<?xml version="1.0" encoding="UTF-8" standalone="no"?>
<!-- Created with Inkscape (http://www.inkscape.org/) -->

<svg
   xmlns:dc="http://purl.org/dc/elements/1.1/"
   xmlns:cc="http://creativecommons.org/ns#"
   xmlns:rdf="http://www.w3.org/1999/02/22-rdf-syntax-ns#"
   xmlns:svg="http://www.w3.org/2000/svg"
   xmlns="http://www.w3.org/2000/svg"
   xmlns:sodipodi="http://sodipodi.sourceforge.net/DTD/sodipodi-0.dtd"
   xmlns:inkscape="http://www.inkscape.org/namespaces/inkscape"
   width="1024"
   height="1024"
   viewBox="0 0 1024 1024"
   id="svg3353"
   version="1.1"
   inkscape:version="0.91 r13725"
   sodipodi:docname="add-line.svg">
  <defs
     id="defs3355" />
  <sodipodi:namedview
     id="base"
     pagecolor="#ffffff"
     bordercolor="#666666"
     borderopacity="1.0"
     inkscape:pageopacity="0.0"
     inkscape:pageshadow="2"
     inkscape:zoom="0.35"
     inkscape:cx="-181.87805"
     inkscape:cy="520"
     inkscape:document-units="px"
     inkscape:current-layer="layer1"
     showgrid="false"
     units="px"
     showguides="true"
     inkscape:guide-bbox="true"
     inkscape:window-width="1536"
     inkscape:window-height="801"
     inkscape:window-x="-8"
     inkscape:window-y="-8"
     inkscape:window-maximized="1">
    <sodipodi:guide
       position="0,512"
       orientation="0,1"
       id="guide3361"
       inkscape:label=""
       inkscape:color="rgb(0,0,255)" />
    <sodipodi:guide
       position="0,128"
       orientation="0,1"
       id="guide3363"
       inkscape:label=""
       inkscape:color="rgb(0,0,255)" />
    <sodipodi:guide
       position="0,256"
       orientation="0,1"
       id="guide3365"
       inkscape:label=""
       inkscape:color="rgb(0,0,255)" />
    <sodipodi:guide
       position="0,640"
       orientation="0,1"
       id="guide3367"
       inkscape:label=""
       inkscape:color="rgb(0,0,255)" />
    <sodipodi:guide
       position="0,384"
       orientation="0,1"
       id="guide3369"
       inkscape:label=""
       inkscape:color="rgb(0,0,255)" />
    <sodipodi:guide
       position="0,768"
       orientation="0,1"
       id="guide3371"
       inkscape:label=""
       inkscape:color="rgb(0,0,255)" />
    <sodipodi:guide
       position="0,896"
       orientation="0,1"
       id="guide3373"
       inkscape:label=""
       inkscape:color="rgb(0,0,255)" />
    <sodipodi:guide
       position="896,0"
       orientation="1,0"
       id="guide3375"
       inkscape:label=""
       inkscape:color="rgb(0,0,255)" />
    <sodipodi:guide
       position="128,0"
       orientation="1,0"
       id="guide3377"
       inkscape:label=""
       inkscape:color="rgb(0,0,255)" />
    <sodipodi:guide
       position="256,0"
       orientation="1,0"
       id="guide3379"
       inkscape:label=""
       inkscape:color="rgb(0,0,255)" />
    <sodipodi:guide
       position="384,0"
       orientation="1,0"
       id="guide3383"
       inkscape:label=""
       inkscape:color="rgb(0,0,255)" />
    <sodipodi:guide
       position="512,0"
       orientation="1,0"
       id="guide3385"
       inkscape:label=""
       inkscape:color="rgb(0,0,255)" />
    <sodipodi:guide
       position="640,0"
       orientation="1,0"
       id="guide3387"
       inkscape:label=""
       inkscape:color="rgb(0,0,255)" />
    <sodipodi:guide
       position="768,0"
       orientation="1,0"
       id="guide3389"
       inkscape:label=""
       inkscape:color="rgb(0,0,255)" />
  </sodipodi:namedview>
  <metadata
     id="metadata3358">
    <rdf:RDF>
      <cc:Work
         rdf:about="">
        <dc:format>image/svg+xml</dc:format>
        <dc:type
           rdf:resource="http://purl.org/dc/dcmitype/StillImage" />
        <dc:title></dc:title>
      </cc:Work>
    </rdf:RDF>
  </metadata>
  <g
     inkscape:label="Vrstva 1"
     inkscape:groupmode="layer"
     id="layer1"
     transform="translate(0,-28.362161)">
    <g
       transform="matrix(22.287177,0,0,22.900073,-14.58243,-7.9111576)"
       id="g5">
      <path
         inkscape:connector-curvature="0"
         id="path11"
         d="m 40.5,35.1 -4.9,0 0,5 -2.5,0 0,-5 -4.9,0 0,-2.5 4.9,0 0,-4.9 2.5,0 0,4.9 4.9,0 0,2.5 z M 34.3,21.5 C 27.5,21.5 22,27 22,33.9 c 0,6.9 5.5,12.4 12.3,12.4 6.8,0 12.3,-5.5 12.3,-12.4 C 46.6,27 41.1,21.5 34.3,21.5 Z M 32.796875,1.5839844 a 6.5,6.5 0 0 0 -6.5,6.5 6.5,6.5 0 0 0 0.462891,2.3906246 L 8.4921875,32.585938 a 6.5,6.5 0 0 0 -1.3378906,-0.146485 6.5,6.5 0 0 0 -6.50000002,6.5 6.5,6.5 0 0 0 6.50000002,6.5 6.5,6.5 0 0 0 6.5000001,-6.5 6.5,6.5 0 0 0 -0.886719,-3.267578 l 17.763672,-21.5 a 6.5,6.5 0 0 0 2.265625,0.412109 6.5,6.5 0 0 0 6.5,-6.4999996 6.5,6.5 0 0 0 -6.5,-6.5 z m 0,2.6992187 A 3.8,3.8 0 0 1 36.597656,8.0839844 3.8,3.8 0 0 1 32.796875,11.884766 3.8,3.8 0 0 1 28.996094,8.0839844 3.8,3.8 0 0 1 32.796875,4.2832031 Z M 7.1542969,35.138672 a 3.8,3.8 0 0 1 3.8007811,3.800781 3.8,3.8 0 0 1 -3.8007811,3.800781 3.8,3.8 0 0 1 -3.8007813,-3.800781 3.8,3.8 0 0 1 3.8007813,-3.800781 z" />
    </g>
  </g>
</svg>
