<?xml version="1.0" encoding="UTF-8" standalone="no"?>
<!-- Created with Inkscape (http://www.inkscape.org/) -->

<svg
   xmlns:dc="http://purl.org/dc/elements/1.1/"
   xmlns:cc="http://creativecommons.org/ns#"
   xmlns:rdf="http://www.w3.org/1999/02/22-rdf-syntax-ns#"
   xmlns:svg="http://www.w3.org/2000/svg"
   xmlns="http://www.w3.org/2000/svg"
   xmlns:sodipodi="http://sodipodi.sourceforge.net/DTD/sodipodi-0.dtd"
   xmlns:inkscape="http://www.inkscape.org/namespaces/inkscape"
   width="1024"
   height="1024"
   viewBox="0 0 1024 1024"
   id="svg3353"
   version="1.1"
   inkscape:version="0.91 r13725"
   sodipodi:docname="add-polygon.svg">
  <defs
     id="defs3355" />
  <sodipodi:namedview
     id="base"
     pagecolor="#ffffff"
     bordercolor="#666666"
     borderopacity="1.0"
     inkscape:pageopacity="0.0"
     inkscape:pageshadow="2"
     inkscape:zoom="0.49497475"
     inkscape:cx="315.98071"
     inkscape:cy="219.56619"
     inkscape:document-units="px"
     inkscape:current-layer="layer1"
     showgrid="false"
     units="px"
     showguides="true"
     inkscape:guide-bbox="true"
     inkscape:window-width="1536"
     inkscape:window-height="801"
     inkscape:window-x="-8"
     inkscape:window-y="-8"
     inkscape:window-maximized="1">
    <sodipodi:guide
       position="0,512"
       orientation="0,1"
       id="guide3361"
       inkscape:label=""
       inkscape:color="rgb(0,0,255)" />
    <sodipodi:guide
       position="0,128"
       orientation="0,1"
       id="guide3363"
       inkscape:label=""
       inkscape:color="rgb(0,0,255)" />
    <sodipodi:guide
       position="0,256"
       orientation="0,1"
       id="guide3365"
       inkscape:label=""
       inkscape:color="rgb(0,0,255)" />
    <sodipodi:guide
       position="0,640"
       orientation="0,1"
       id="guide3367"
       inkscape:label=""
       inkscape:color="rgb(0,0,255)" />
    <sodipodi:guide
       position="0,384"
       orientation="0,1"
       id="guide3369"
       inkscape:label=""
       inkscape:color="rgb(0,0,255)" />
    <sodipodi:guide
       position="0,768"
       orientation="0,1"
       id="guide3371"
       inkscape:label=""
       inkscape:color="rgb(0,0,255)" />
    <sodipodi:guide
       position="0,896"
       orientation="0,1"
       id="guide3373"
       inkscape:label=""
       inkscape:color="rgb(0,0,255)" />
    <sodipodi:guide
       position="896,0"
       orientation="1,0"
       id="guide3375"
       inkscape:label=""
       inkscape:color="rgb(0,0,255)" />
    <sodipodi:guide
       position="128,0"
       orientation="1,0"
       id="guide3377"
       inkscape:label=""
       inkscape:color="rgb(0,0,255)" />
    <sodipodi:guide
       position="256,0"
       orientation="1,0"
       id="guide3379"
       inkscape:label=""
       inkscape:color="rgb(0,0,255)" />
    <sodipodi:guide
       position="384,0"
       orientation="1,0"
       id="guide3383"
       inkscape:label=""
       inkscape:color="rgb(0,0,255)" />
    <sodipodi:guide
       position="512,0"
       orientation="1,0"
       id="guide3385"
       inkscape:label=""
       inkscape:color="rgb(0,0,255)" />
    <sodipodi:guide
       position="640,0"
       orientation="1,0"
       id="guide3387"
       inkscape:label=""
       inkscape:color="rgb(0,0,255)" />
    <sodipodi:guide
       position="768,0"
       orientation="1,0"
       id="guide3389"
       inkscape:label=""
       inkscape:color="rgb(0,0,255)" />
  </sodipodi:namedview>
  <metadata
     id="metadata3358">
    <rdf:RDF>
      <cc:Work
         rdf:about="">
        <dc:format>image/svg+xml</dc:format>
        <dc:type
           rdf:resource="http://purl.org/dc/dcmitype/StillImage" />
        <dc:title />
      </cc:Work>
    </rdf:RDF>
  </metadata>
  <g
     inkscape:label="Vrstva 1"
     inkscape:groupmode="layer"
     id="layer1"
     transform="translate(0,-28.362161)">
    <g
       transform="matrix(22.680056,0,0,22.692521,-37.426629,-9.9200825)"
       id="g5">
      <path
         inkscape:connector-curvature="0"
         class="st0"
         d="m 40.6,35 -4.9,0 0,4.9 -2.5,0 0,-4.9 -4.9,0 0,-2.5 4.9,0 0,-4.9 2.5,0 0,4.9 4.9,0 0,2.5 z M 34.5,21.5 c -6.8,0 -12.3,5.5 -12.3,12.3 0,6.8 5.5,12.3 12.3,12.3 6.8,0 12.3,-5.5 12.3,-12.3 0,-6.8 -5.5,-12.3 -12.3,-12.3 z"
         id="path15" />
    </g>
    <path
       inkscape:connector-curvature="0"
       d="m 762.61235,28.3622 c -81.41913,0 -147.42036,66.037505 -147.42036,147.50139 0,1.36155 0.2268,2.71856 0.2268,4.07784 l -311.0978,153.44002 c -26.8804,-23.76134 -61.49697,-36.90485 -97.36548,-36.96385 -81.41913,0 -147.420363,66.03751 -147.420363,147.50139 0,54.60047 30.218907,104.71463 78.450313,130.2596 L 103.07859,764.27384 C 41.751715,783.62602 0.03628809,840.52071 0,904.86081 c 0,81.46162 66.001231,147.50139 147.42037,147.50139 60.27678,0 114.46624,-36.7619 136.83331,-92.76476 l 173.26883,-50.34789 c -12.6895,-25.27493 -23.51242,-53.00292 -31.74074,-89.57419 L 287.3994,858.94477 c -13.66927,-41.79055 -45.26032,-75.30059 -86.15926,-91.39186 l 32.64794,-178.7036 c 69.80241,-12.97785 120.44471,-73.89366 120.4878,-144.93032 0,-8.53239 -0.83916,-17.04436 -2.34739,-25.44059 l 298.2949,-147.102 c 28.0008,32.9677 69.05397,51.97495 112.2935,51.98857 l 0.74844,0 32.11496,109.25314 c 46.33762,11.37122 79.87916,26.34602 107.5647,40.38361 L 856.74366,289.63708 c -0.61236,0.45385 -1.29277,0.72616 -1.90513,1.15732 34.83884,-27.95265 55.13522,-70.19932 55.19419,-114.88089 0,-81.463882 -66.00123,-147.501386 -147.42037,-147.501386 z m 0,61.251652 c 47.61224,-0.0091 86.21143,38.611328 86.20236,86.249738 0.009,47.6384 -38.59012,86.25881 -86.20236,86.24973 -47.61224,0.009 -86.21143,-38.61133 -86.20235,-86.24973 -0.009,-47.63841 38.59011,-86.258815 86.20235,-86.249738 z M 206.95098,357.66925 c 47.61224,-0.009 86.21143,38.61133 86.20235,86.24974 0.009,47.63841 -38.59011,86.25881 -86.20235,86.24973 -47.61225,0.009 -86.21143,-38.61132 -86.20236,-86.24973 -0.009,-47.63841 38.59011,-86.25881 86.20236,-86.24974 z m -59.53515,460.94183 c 47.61224,-0.009 86.21143,38.61133 86.20236,86.24973 0.009,47.63841 -38.59012,86.25881 -86.20236,86.24974 -47.612243,0.009 -86.21143,-38.61133 -86.202358,-86.24974 -0.0091,-47.6384 38.590115,-86.25881 86.202358,-86.24973 z"
       id="path7-4"
       style="fill:#000000;fill-opacity:1"
       sodipodi:nodetypes="scccccccccccccccccccccccccsccccccccccccccc" />
  </g>
</svg>
