<?xml version="1.0" encoding="UTF-8" standalone="no"?>
<!-- Created with Inkscape (http://www.inkscape.org/) -->

<svg
   xmlns:dc="http://purl.org/dc/elements/1.1/"
   xmlns:cc="http://creativecommons.org/ns#"
   xmlns:rdf="http://www.w3.org/1999/02/22-rdf-syntax-ns#"
   xmlns:svg="http://www.w3.org/2000/svg"
   xmlns="http://www.w3.org/2000/svg"
   xmlns:sodipodi="http://sodipodi.sourceforge.net/DTD/sodipodi-0.dtd"
   xmlns:inkscape="http://www.inkscape.org/namespaces/inkscape"
   width="1024"
   height="1024"
   viewBox="0 0 1024 1024"
   id="svg3353"
   version="1.1"
   inkscape:version="0.92.1 r15371"
   sodipodi:docname="draw-rectangle.svg">
  <defs
     id="defs3355" />
  <sodipodi:namedview
     id="base"
     pagecolor="#ffffff"
     bordercolor="#666666"
     borderopacity="1.0"
     inkscape:pageopacity="0.0"
     inkscape:pageshadow="2"
     inkscape:zoom="0.44228701"
     inkscape:cx="347.13015"
     inkscape:cy="419.75717"
     inkscape:document-units="px"
     inkscape:current-layer="layer1"
     showgrid="false"
     units="px"
     showguides="true"
     inkscape:guide-bbox="true"
     inkscape:window-width="1920"
     inkscape:window-height="1001"
     inkscape:window-x="-9"
     inkscape:window-y="-9"
     inkscape:window-maximized="1">
    <sodipodi:guide
       position="0,512"
       orientation="0,1"
       id="guide3361"
       inkscape:label=""
       inkscape:color="rgb(0,0,255)"
       inkscape:locked="false" />
    <sodipodi:guide
       position="0,128"
       orientation="0,1"
       id="guide3363"
       inkscape:label=""
       inkscape:color="rgb(0,0,255)"
       inkscape:locked="false" />
    <sodipodi:guide
       position="0,256"
       orientation="0,1"
       id="guide3365"
       inkscape:label=""
       inkscape:color="rgb(0,0,255)"
       inkscape:locked="false" />
    <sodipodi:guide
       position="0,640"
       orientation="0,1"
       id="guide3367"
       inkscape:label=""
       inkscape:color="rgb(0,0,255)"
       inkscape:locked="false" />
    <sodipodi:guide
       position="0,384"
       orientation="0,1"
       id="guide3369"
       inkscape:label=""
       inkscape:color="rgb(0,0,255)"
       inkscape:locked="false" />
    <sodipodi:guide
       position="0,768"
       orientation="0,1"
       id="guide3371"
       inkscape:label=""
       inkscape:color="rgb(0,0,255)"
       inkscape:locked="false" />
    <sodipodi:guide
       position="0,896"
       orientation="0,1"
       id="guide3373"
       inkscape:label=""
       inkscape:color="rgb(0,0,255)"
       inkscape:locked="false" />
    <sodipodi:guide
       position="896,0"
       orientation="1,0"
       id="guide3375"
       inkscape:label=""
       inkscape:color="rgb(0,0,255)"
       inkscape:locked="false" />
    <sodipodi:guide
       position="128,0"
       orientation="1,0"
       id="guide3377"
       inkscape:label=""
       inkscape:color="rgb(0,0,255)"
       inkscape:locked="false" />
    <sodipodi:guide
       position="256,0"
       orientation="1,0"
       id="guide3379"
       inkscape:label=""
       inkscape:color="rgb(0,0,255)"
       inkscape:locked="false" />
    <sodipodi:guide
       position="384,0"
       orientation="1,0"
       id="guide3383"
       inkscape:label=""
       inkscape:color="rgb(0,0,255)"
       inkscape:locked="false" />
    <sodipodi:guide
       position="512,0"
       orientation="1,0"
       id="guide3385"
       inkscape:label=""
       inkscape:color="rgb(0,0,255)"
       inkscape:locked="false" />
    <sodipodi:guide
       position="640,0"
       orientation="1,0"
       id="guide3387"
       inkscape:label=""
       inkscape:color="rgb(0,0,255)"
       inkscape:locked="false" />
    <sodipodi:guide
       position="768,0"
       orientation="1,0"
       id="guide3389"
       inkscape:label=""
       inkscape:color="rgb(0,0,255)"
       inkscape:locked="false" />
  </sodipodi:namedview>
  <metadata
     id="metadata3358">
    <rdf:RDF>
      <cc:Work
         rdf:about="">
        <dc:format>image/svg+xml</dc:format>
        <dc:type
           rdf:resource="http://purl.org/dc/dcmitype/StillImage" />
        <dc:title />
      </cc:Work>
    </rdf:RDF>
  </metadata>
  <g
     inkscape:label="Vrstva 1"
     inkscape:groupmode="layer"
     id="layer1"
     transform="translate(0,-28.362161)">
    <path
       style="color:#000000;font-style:normal;font-variant:normal;font-weight:normal;font-stretch:normal;font-size:medium;line-height:normal;font-family:sans-serif;font-variant-ligatures:normal;font-variant-position:normal;font-variant-caps:normal;font-variant-numeric:normal;font-variant-alternates:normal;font-feature-settings:normal;text-indent:0;text-align:start;text-decoration:none;text-decoration-line:none;text-decoration-style:solid;text-decoration-color:#000000;letter-spacing:normal;word-spacing:normal;text-transform:none;writing-mode:lr-tb;direction:ltr;text-orientation:mixed;dominant-baseline:auto;baseline-shift:baseline;text-anchor:start;white-space:normal;shape-padding:0;clip-rule:nonzero;display:inline;overflow:visible;visibility:visible;opacity:1;isolation:auto;mix-blend-mode:normal;color-interpolation:sRGB;color-interpolation-filters:linearRGB;solid-color:#000000;solid-opacity:1;vector-effect:none;fill:#000000;fill-opacity:1;fill-rule:nonzero;stroke:none;stroke-width:27.89953232;stroke-linecap:round;stroke-linejoin:miter;stroke-miterlimit:4;stroke-dasharray:none;stroke-dashoffset:0;stroke-opacity:1;paint-order:normal;color-rendering:auto;image-rendering:auto;shape-rendering:auto;text-rendering:auto;enable-background:accumulate"
       d="m 0,30.323886 c 0,89.583654 0,179.167294 0,268.750954 31.386973,0 62.773946,0 94.16092,0 0,160.85824 0,321.71647 0,482.57471 -31.386974,0 -62.773947,0 -94.16092,0 0,90.23755 0,180.47509 0,270.71265 90.237548,0 180.4751,0 270.71264,0 0,-31.387 0,-62.77396 0,-94.16093 160.85824,0 321.71648,0 482.57472,0 0,31.38697 0,62.77393 0,94.16093 90.23754,0 180.47509,0 270.71264,0 0,-90.23756 0,-180.4751 0,-270.71265 -31.38697,0 -62.77395,0 -94.16092,0 0,-160.85824 0,-321.71647 0,-482.57471 31.38697,0 62.77395,0 94.16092,0 0,-90.23755 0,-180.47509 0,-270.71264 -90.23755,0 -180.4751,0 -270.71264,0 0,31.386973 0,62.773946 0,94.16092 -160.85824,0 -321.71648,0 -482.57472,0 0,-31.386974 0,-62.773947 0,-94.16092 -90.23754,0 -180.475092,0 -270.71264,0 v 0.980843 z m 223.1954,45.555555 c 0,58.559389 0,117.118769 0,175.678159 -58.55939,0 -117.11877,0 -175.678159,0 1e-6,-58.55939 0,-117.11877 0,-175.678159 58.559389,0 117.118769,0 175.678159,0 z m 753.28736,0 c 0,58.559389 0,117.118769 0,175.678159 -58.55939,0 -117.11877,0 -175.67816,0 0,-58.55939 0,-117.11877 0,-175.678159 58.55939,0 117.11877,0 175.67816,0 z M 753.28736,204.91392 c 0,31.38698 0,62.77395 0,94.16092 31.38697,0 62.77394,0 94.16092,0 0,160.85824 0,321.71647 0,482.57471 -31.38698,0 -62.77395,0 -94.16092,0 0,31.38697 0,62.77395 0,94.16092 -160.85824,0 -321.71648,0 -482.57472,0 0,-31.38697 0,-62.77395 0,-94.16092 -31.38697,0 -62.77394,0 -94.16092,0 0,-160.85824 0,-321.71647 0,-482.57471 31.38698,0 62.77395,0 94.16092,0 0,-31.38697 0,-62.77394 0,-94.16092 160.85824,0 321.71648,0 482.57472,0 z M 223.1954,829.16679 c 0,58.55939 0,117.11877 0,175.67821 -58.55939,0 -117.11877,0 -175.678159,0 1e-6,-58.55944 0,-117.11882 0,-175.67821 58.559389,0 117.118769,0 175.678159,0 z m 753.28736,0 c 0,58.55939 0,117.11877 0,175.67821 -58.55939,0 -117.11877,0 -175.67816,0 0,-58.55944 0,-117.11882 0,-175.67821 58.55939,0 117.11877,0 175.67816,0 z"
       id="rect830"
       inkscape:connector-curvature="0" />
  </g>
</svg>
