<?xml version="1.0" encoding="UTF-8" standalone="no"?>
<!-- Created with Inkscape (http://www.inkscape.org/) -->

<svg
   xmlns:dc="http://purl.org/dc/elements/1.1/"
   xmlns:cc="http://creativecommons.org/ns#"
   xmlns:rdf="http://www.w3.org/1999/02/22-rdf-syntax-ns#"
   xmlns:svg="http://www.w3.org/2000/svg"
   xmlns="http://www.w3.org/2000/svg"
   xmlns:sodipodi="http://sodipodi.sourceforge.net/DTD/sodipodi-0.dtd"
   xmlns:inkscape="http://www.inkscape.org/namespaces/inkscape"
   width="1024"
   height="1024"
   viewBox="0 0 1024 1024"
   id="svg3353"
   version="1.1"
   inkscape:version="0.92.1 r15371"
   sodipodi:docname="draw-polygon-four.svg">
  <defs
     id="defs3355" />
  <sodipodi:namedview
     id="base"
     pagecolor="#ffffff"
     bordercolor="#666666"
     borderopacity="1.0"
     inkscape:pageopacity="0.0"
     inkscape:pageshadow="2"
     inkscape:zoom="0.31274414"
     inkscape:cx="-198.65808"
     inkscape:cy="328.49374"
     inkscape:document-units="px"
     inkscape:current-layer="layer1"
     showgrid="false"
     units="px"
     showguides="true"
     inkscape:guide-bbox="true"
     inkscape:window-width="1920"
     inkscape:window-height="1001"
     inkscape:window-x="-9"
     inkscape:window-y="-9"
     inkscape:window-maximized="1">
    <sodipodi:guide
       position="0,512"
       orientation="0,1"
       id="guide3361"
       inkscape:label=""
       inkscape:color="rgb(0,0,255)"
       inkscape:locked="false" />
    <sodipodi:guide
       position="0,128"
       orientation="0,1"
       id="guide3363"
       inkscape:label=""
       inkscape:color="rgb(0,0,255)"
       inkscape:locked="false" />
    <sodipodi:guide
       position="0,256"
       orientation="0,1"
       id="guide3365"
       inkscape:label=""
       inkscape:color="rgb(0,0,255)"
       inkscape:locked="false" />
    <sodipodi:guide
       position="0,640"
       orientation="0,1"
       id="guide3367"
       inkscape:label=""
       inkscape:color="rgb(0,0,255)"
       inkscape:locked="false" />
    <sodipodi:guide
       position="0,384"
       orientation="0,1"
       id="guide3369"
       inkscape:label=""
       inkscape:color="rgb(0,0,255)"
       inkscape:locked="false" />
    <sodipodi:guide
       position="0,768"
       orientation="0,1"
       id="guide3371"
       inkscape:label=""
       inkscape:color="rgb(0,0,255)"
       inkscape:locked="false" />
    <sodipodi:guide
       position="0,896"
       orientation="0,1"
       id="guide3373"
       inkscape:label=""
       inkscape:color="rgb(0,0,255)"
       inkscape:locked="false" />
    <sodipodi:guide
       position="896,0"
       orientation="1,0"
       id="guide3375"
       inkscape:label=""
       inkscape:color="rgb(0,0,255)"
       inkscape:locked="false" />
    <sodipodi:guide
       position="128,0"
       orientation="1,0"
       id="guide3377"
       inkscape:label=""
       inkscape:color="rgb(0,0,255)"
       inkscape:locked="false" />
    <sodipodi:guide
       position="256,0"
       orientation="1,0"
       id="guide3379"
       inkscape:label=""
       inkscape:color="rgb(0,0,255)"
       inkscape:locked="false" />
    <sodipodi:guide
       position="384,0"
       orientation="1,0"
       id="guide3383"
       inkscape:label=""
       inkscape:color="rgb(0,0,255)"
       inkscape:locked="false" />
    <sodipodi:guide
       position="512,0"
       orientation="1,0"
       id="guide3385"
       inkscape:label=""
       inkscape:color="rgb(0,0,255)"
       inkscape:locked="false" />
    <sodipodi:guide
       position="640,0"
       orientation="1,0"
       id="guide3387"
       inkscape:label=""
       inkscape:color="rgb(0,0,255)"
       inkscape:locked="false" />
    <sodipodi:guide
       position="768,0"
       orientation="1,0"
       id="guide3389"
       inkscape:label=""
       inkscape:color="rgb(0,0,255)"
       inkscape:locked="false" />
  </sodipodi:namedview>
  <metadata
     id="metadata3358">
    <rdf:RDF>
      <cc:Work
         rdf:about="">
        <dc:format>image/svg+xml</dc:format>
        <dc:type
           rdf:resource="http://purl.org/dc/dcmitype/StillImage" />
        <dc:title />
      </cc:Work>
    </rdf:RDF>
  </metadata>
  <g
     inkscape:label="Vrstva 1"
     inkscape:groupmode="layer"
     id="layer1"
     transform="translate(0,-28.362161)">
    <path
       style="color:#000000;font-style:normal;font-variant:normal;font-weight:normal;font-stretch:normal;font-size:medium;line-height:normal;font-family:sans-serif;font-variant-ligatures:normal;font-variant-position:normal;font-variant-caps:normal;font-variant-numeric:normal;font-variant-alternates:normal;font-feature-settings:normal;text-indent:0;text-align:start;text-decoration:none;text-decoration-line:none;text-decoration-style:solid;text-decoration-color:#000000;letter-spacing:normal;word-spacing:normal;text-transform:none;writing-mode:lr-tb;direction:ltr;text-orientation:mixed;dominant-baseline:auto;baseline-shift:baseline;text-anchor:start;white-space:normal;shape-padding:0;clip-rule:nonzero;display:inline;overflow:visible;visibility:visible;opacity:1;isolation:auto;mix-blend-mode:normal;color-interpolation:sRGB;color-interpolation-filters:linearRGB;solid-color:#000000;solid-opacity:1;vector-effect:none;fill:#000000;fill-opacity:1;fill-rule:nonzero;stroke:none;stroke-width:27.89953232;stroke-linecap:round;stroke-linejoin:miter;stroke-miterlimit:4;stroke-dasharray:none;stroke-dashoffset:0;stroke-opacity:1;paint-order:normal;color-rendering:auto;image-rendering:auto;shape-rendering:auto;text-rendering:auto;enable-background:accumulate"
       d="m 627.73946,30.323886 c 0,31.605363 0,63.210728 0,94.816094 -119.00893,39.70944 -238.01788,79.4189 -357.02682,119.12835 0,-30.11942 0,-60.23883 0,-90.35824 -90.23754,0 -180.475092,0 -270.71264,0 0,90.23755 0,180.4751 0,270.71264 32.569604,0 65.139208,0 97.708813,0 38.639207,77.15964 77.278417,154.31928 115.917627,231.47893 -29.35951,0 -58.71904,0 -88.07855,0 0,90.23754 0,180.47509 0,270.71264 90.23755,0 180.4751,0 270.71265,0 0,-30.12261 0,-60.24522 0,-90.36781 119.00893,39.67177 238.01788,79.34354 357.02682,119.01532 0,32.30012 0,64.60029 0,96.90039 90.23754,0 180.47509,0 270.71264,0 0,-90.23756 0,-180.4751 0,-270.71265 -32.10534,0 -64.21072,0 -96.3161,0 -40.21456,-160.85824 -80.42912,-321.71647 -120.64367,-482.57471 30.47063,0 60.94125,0 91.41188,0 0,-90.23755 0,-180.47509 0,-270.71264 -90.23755,0 -180.4751,0 -270.71265,0 v 0.980843 z m 223.19541,45.555555 c 0,58.559389 0,117.118769 0,175.678159 -58.55939,0 -117.11878,0 -175.67817,0 0,-58.55939 0,-117.11877 0,-175.678159 58.55939,0 117.11878,0 175.67817,0 z M 223.1954,201.42733 c 0,58.55939 0,117.11877 0,175.67816 -58.55939,0 -117.11877,0 -175.678159,0 1e-6,-58.55939 0,-117.11877 0,-175.67816 58.559389,0 117.118769,0 175.678159,0 z m 404.54406,87.83908 c 0.87501,9.31846 12.17231,11.54961 19.74138,9.68391 25.49049,0.22465 50.98214,0.1002 76.47318,0.12069 40.24649,160.85951 80.49297,321.71903 120.73947,482.57854 -30.46872,0 -60.93743,0 -91.40613,0 0,30.16347 0,60.32695 0,90.49042 -119.00894,-39.70946 -238.01789,-79.4189 -357.02682,-119.12836 0,-32.30331 0,-64.60664 0,-96.90995 -32.63538,0 -65.27075,0 -97.90613,0 -38.57982,-77.15965 -77.15965,-154.31929 -115.73947,-231.47893 29.3659,0 58.73181,0 88.0977,0 0,-32.30012 0,-64.60025 0,-96.90038 119.00894,-39.67178 238.01789,-79.34355 357.02682,-119.01532 0,26.85312 0,53.70625 0,80.55938 z M 348.7433,703.6189 c 0,58.55939 0,117.11877 0,175.67816 -58.55939,0 -117.11878,0 -175.67817,0 0,-58.55939 0,-117.11877 0,-175.67816 58.55939,0 117.11878,0 175.67817,0 z m 627.73946,125.54789 c 0,58.55939 0,117.11877 0,175.67821 -58.55939,0 -117.11877,0 -175.67816,0 0,-58.55944 0,-117.11882 0,-175.67821 58.55939,0 117.11877,0 175.67816,0 z"
       id="rect830"
       inkscape:connector-curvature="0" />
  </g>
</svg>
