<?xml version="1.0" encoding="UTF-8" standalone="no"?>
<!-- Created with Inkscape (http://www.inkscape.org/) -->

<svg
   xmlns:dc="http://purl.org/dc/elements/1.1/"
   xmlns:cc="http://creativecommons.org/ns#"
   xmlns:rdf="http://www.w3.org/1999/02/22-rdf-syntax-ns#"
   xmlns:svg="http://www.w3.org/2000/svg"
   xmlns="http://www.w3.org/2000/svg"
   xmlns:sodipodi="http://sodipodi.sourceforge.net/DTD/sodipodi-0.dtd"
   xmlns:inkscape="http://www.inkscape.org/namespaces/inkscape"
   width="1024"
   height="1024"
   viewBox="0 0 1024 1024"
   id="svg3353"
   version="1.1"
   inkscape:version="0.91 r13725"
   sodipodi:docname="geom-filter.svg">
  <defs
     id="defs3355" />
  <sodipodi:namedview
     id="base"
     pagecolor="#ffffff"
     bordercolor="#666666"
     borderopacity="1.0"
     inkscape:pageopacity="0.0"
     inkscape:pageshadow="2"
     inkscape:zoom="0.25"
     inkscape:cx="149.16191"
     inkscape:cy="537.09913"
     inkscape:document-units="px"
     inkscape:current-layer="layer1"
     showgrid="false"
     units="px"
     showguides="true"
     inkscape:guide-bbox="true"
     inkscape:window-width="1536"
     inkscape:window-height="801"
     inkscape:window-x="-8"
     inkscape:window-y="-8"
     inkscape:window-maximized="1">
    <sodipodi:guide
       position="0,512"
       orientation="0,1"
       id="guide3361"
       inkscape:label=""
       inkscape:color="rgb(0,0,255)" />
    <sodipodi:guide
       position="0,128"
       orientation="0,1"
       id="guide3363"
       inkscape:label=""
       inkscape:color="rgb(0,0,255)" />
    <sodipodi:guide
       position="0,256"
       orientation="0,1"
       id="guide3365"
       inkscape:label=""
       inkscape:color="rgb(0,0,255)" />
    <sodipodi:guide
       position="0,640"
       orientation="0,1"
       id="guide3367"
       inkscape:label=""
       inkscape:color="rgb(0,0,255)" />
    <sodipodi:guide
       position="0,384"
       orientation="0,1"
       id="guide3369"
       inkscape:label=""
       inkscape:color="rgb(0,0,255)" />
    <sodipodi:guide
       position="0,768"
       orientation="0,1"
       id="guide3371"
       inkscape:label=""
       inkscape:color="rgb(0,0,255)" />
    <sodipodi:guide
       position="0,896"
       orientation="0,1"
       id="guide3373"
       inkscape:label=""
       inkscape:color="rgb(0,0,255)" />
    <sodipodi:guide
       position="896,0"
       orientation="1,0"
       id="guide3375"
       inkscape:label=""
       inkscape:color="rgb(0,0,255)" />
    <sodipodi:guide
       position="128,0"
       orientation="1,0"
       id="guide3377"
       inkscape:label=""
       inkscape:color="rgb(0,0,255)" />
    <sodipodi:guide
       position="256,0"
       orientation="1,0"
       id="guide3379"
       inkscape:label=""
       inkscape:color="rgb(0,0,255)" />
    <sodipodi:guide
       position="384,0"
       orientation="1,0"
       id="guide3383"
       inkscape:label=""
       inkscape:color="rgb(0,0,255)" />
    <sodipodi:guide
       position="512,0"
       orientation="1,0"
       id="guide3385"
       inkscape:label=""
       inkscape:color="rgb(0,0,255)" />
    <sodipodi:guide
       position="640,0"
       orientation="1,0"
       id="guide3387"
       inkscape:label=""
       inkscape:color="rgb(0,0,255)" />
    <sodipodi:guide
       position="768,0"
       orientation="1,0"
       id="guide3389"
       inkscape:label=""
       inkscape:color="rgb(0,0,255)" />
  </sodipodi:namedview>
  <metadata
     id="metadata3358">
    <rdf:RDF>
      <cc:Work
         rdf:about="">
        <dc:format>image/svg+xml</dc:format>
        <dc:type
           rdf:resource="http://purl.org/dc/dcmitype/StillImage" />
        <dc:title />
      </cc:Work>
    </rdf:RDF>
  </metadata>
  <g
     inkscape:label="Vrstva 1"
     inkscape:groupmode="layer"
     id="layer1"
     transform="translate(0,-28.362161)">
    <g
       transform="matrix(0.85009488,0,0,-0.85009488,1.9430738,1050.4191)"
       id="g4">
      <path
         style="fill:currentColor"
         inkscape:connector-curvature="0"
         d="m 1014,1120 106,-106 q 7,-8 7,-18 0,-10 -7,-18 L 871,729 965,635 Q 979,621 975,610.5 971,600 950,600 l -300,0 q -21,0 -35.5,14.5 Q 600,629 600,650 l 0,300 q 0,21 10.5,25 10.5,4 24.5,-10 l 94,-94 249,249 q 8,7 18,7 10,0 18,-7 z m -764,-520 300,0 q 21,0 35.5,-14.5 Q 600,571 600,550 l 0,-300 Q 600,229 589.5,225 579,221 565,235 L 471,329 222,80 q -8,-7 -18,-7 -10,0 -18,7 L 80,186 q -7,8 -7,18 0,10 7,18 l 249,249 -94,94 q -14,14 -10,24.5 4,10.5 25,10.5 z"
         id="path6" />
    </g>
  </g>
</svg>
