<?xml version="1.0" encoding="UTF-8" standalone="no"?>
<!-- Created with Inkscape (http://www.inkscape.org/) -->

<svg
   xmlns:dc="http://purl.org/dc/elements/1.1/"
   xmlns:cc="http://creativecommons.org/ns#"
   xmlns:rdf="http://www.w3.org/1999/02/22-rdf-syntax-ns#"
   xmlns:svg="http://www.w3.org/2000/svg"
   xmlns="http://www.w3.org/2000/svg"
   xmlns:sodipodi="http://sodipodi.sourceforge.net/DTD/sodipodi-0.dtd"
   xmlns:inkscape="http://www.inkscape.org/namespaces/inkscape"
   width="1024"
   height="1024"
   viewBox="0 0 1024 1024"
   id="svg3353"
   version="1.1"
   inkscape:version="0.92.1 r15371"
   sodipodi:docname="hand.svg">
  <defs
     id="defs3355">
    <pattern
       y="0"
       x="0"
       height="6"
       width="6"
       patternUnits="userSpaceOnUse"
       id="EMFhbasepattern" />
  </defs>
  <sodipodi:namedview
     id="base"
     pagecolor="#ffffff"
     bordercolor="#666666"
     borderopacity="1.0"
     inkscape:pageopacity="0.0"
     inkscape:pageshadow="2"
     inkscape:zoom="0.442287"
     inkscape:cx="309.48181"
     inkscape:cy="562.37794"
     inkscape:document-units="px"
     inkscape:current-layer="layer1"
     showgrid="false"
     units="px"
     showguides="true"
     inkscape:guide-bbox="true"
     inkscape:window-width="1920"
     inkscape:window-height="1001"
     inkscape:window-x="-9"
     inkscape:window-y="-9"
     inkscape:window-maximized="1">
    <sodipodi:guide
       position="0,512"
       orientation="0,1"
       id="guide3361"
       inkscape:label=""
       inkscape:color="rgb(0,0,255)"
       inkscape:locked="false" />
    <sodipodi:guide
       position="0,128"
       orientation="0,1"
       id="guide3363"
       inkscape:label=""
       inkscape:color="rgb(0,0,255)"
       inkscape:locked="false" />
    <sodipodi:guide
       position="0,256"
       orientation="0,1"
       id="guide3365"
       inkscape:label=""
       inkscape:color="rgb(0,0,255)"
       inkscape:locked="false" />
    <sodipodi:guide
       position="0,640"
       orientation="0,1"
       id="guide3367"
       inkscape:label=""
       inkscape:color="rgb(0,0,255)"
       inkscape:locked="false" />
    <sodipodi:guide
       position="0,384"
       orientation="0,1"
       id="guide3369"
       inkscape:label=""
       inkscape:color="rgb(0,0,255)"
       inkscape:locked="false" />
    <sodipodi:guide
       position="0,768"
       orientation="0,1"
       id="guide3371"
       inkscape:label=""
       inkscape:color="rgb(0,0,255)"
       inkscape:locked="false" />
    <sodipodi:guide
       position="0,896"
       orientation="0,1"
       id="guide3373"
       inkscape:label=""
       inkscape:color="rgb(0,0,255)"
       inkscape:locked="false" />
    <sodipodi:guide
       position="896,0"
       orientation="1,0"
       id="guide3375"
       inkscape:label=""
       inkscape:color="rgb(0,0,255)"
       inkscape:locked="false" />
    <sodipodi:guide
       position="128,0"
       orientation="1,0"
       id="guide3377"
       inkscape:label=""
       inkscape:color="rgb(0,0,255)"
       inkscape:locked="false" />
    <sodipodi:guide
       position="256,0"
       orientation="1,0"
       id="guide3379"
       inkscape:label=""
       inkscape:color="rgb(0,0,255)"
       inkscape:locked="false" />
    <sodipodi:guide
       position="384,0"
       orientation="1,0"
       id="guide3383"
       inkscape:label=""
       inkscape:color="rgb(0,0,255)"
       inkscape:locked="false" />
    <sodipodi:guide
       position="512,0"
       orientation="1,0"
       id="guide3385"
       inkscape:label=""
       inkscape:color="rgb(0,0,255)"
       inkscape:locked="false" />
    <sodipodi:guide
       position="640,0"
       orientation="1,0"
       id="guide3387"
       inkscape:label=""
       inkscape:color="rgb(0,0,255)"
       inkscape:locked="false" />
    <sodipodi:guide
       position="768,0"
       orientation="1,0"
       id="guide3389"
       inkscape:label=""
       inkscape:color="rgb(0,0,255)"
       inkscape:locked="false" />
  </sodipodi:namedview>
  <metadata
     id="metadata3358">
    <rdf:RDF>
      <cc:Work
         rdf:about="">
        <dc:format>image/svg+xml</dc:format>
        <dc:type
           rdf:resource="http://purl.org/dc/dcmitype/StillImage" />
        <dc:title />
      </cc:Work>
    </rdf:RDF>
  </metadata>
  <g
     inkscape:label="Vrstva 1"
     inkscape:groupmode="layer"
     id="layer1"
     transform="translate(0,-28.362161)">
    <g
       transform="matrix(2.5820541,0,0,2.5839532,0.37738235,28.362179)"
       id="g7">
      <g
         id="g5">
        <g
           id="Layer_5_86_">
          <path
             inkscape:connector-curvature="0"
             d="m 334.86,69.735 c -10.052,0 -18.202,8.149 -18.202,18.202 v 79.334 c 0,4.365 -3.923,7.906 -8.764,7.906 -4.842,0 -8.765,-3.541 -8.765,-7.906 V 54.766 c -0.015,-12.071 -9.802,-21.851 -21.87,-21.851 -12.083,0 -21.875,9.793 -21.875,21.873 0,0 0.06,112.416 0,112.443 v 0.039 c 0,4.365 -3.698,7.906 -8.265,7.906 -4.563,0 -8.265,-3.541 -8.265,-7.906 V 23.688 C 238.843,10.604 228.234,0 215.149,0 c -13.097,0 -23.711,10.614 -23.711,23.711 0,0 -0.024,142.38 -0.024,144.031 -0.246,4.146 -3.676,7.436 -7.884,7.436 -4.367,0 -7.907,-3.541 -7.907,-7.906 V 44.415 c 0,-13.096 -10.614,-23.71 -23.708,-23.71 -13.096,0 -23.711,10.614 -23.711,23.71 -0.219,171.794 -0.218,171.794 -0.234,186.019 0,5.369 0.104,16.905 -2.484,18.836 -2.149,1.604 -5.012,-0.389 -8.477,-5.066 -7.863,-10.617 -19.216,-27.481 -27.484,-38.752 -7.838,-10.686 -20.218,-22.288 -34.271,-14.602 -13.364,7.311 -15.628,26.043 -6.591,38.313 0,0 58.548,85.917 78.556,115.788 11.712,17.485 14.854,23.026 18.892,28.771 15.388,21.886 23.975,22.57 48.791,22.57 26.771,0 102.836,0 102.836,0 55.323,0 55.323,-65.667 55.323,-93.693 V 97.943 c 0,-20.059 -8.148,-28.208 -18.201,-28.208 z"
             id="path2" />
        </g>
      </g>
    </g>
  </g>
</svg>
