<?xml version="1.0" encoding="UTF-8" standalone="no"?>
<!-- Created with Inkscape (http://www.inkscape.org/) -->

<svg
   xmlns:dc="http://purl.org/dc/elements/1.1/"
   xmlns:cc="http://creativecommons.org/ns#"
   xmlns:rdf="http://www.w3.org/1999/02/22-rdf-syntax-ns#"
   xmlns:svg="http://www.w3.org/2000/svg"
   xmlns="http://www.w3.org/2000/svg"
   xmlns:sodipodi="http://sodipodi.sourceforge.net/DTD/sodipodi-0.dtd"
   xmlns:inkscape="http://www.inkscape.org/namespaces/inkscape"
   width="1024"
   height="1024"
   viewBox="0 0 1024 1024"
   id="svg3353"
   version="1.1"
   inkscape:version="0.91 r13725"
   sodipodi:docname="import.svg">
  <defs
     id="defs3355" />
  <sodipodi:namedview
     id="base"
     pagecolor="#ffffff"
     bordercolor="#666666"
     borderopacity="1.0"
     inkscape:pageopacity="0.0"
     inkscape:pageshadow="2"
     inkscape:zoom="0.175"
     inkscape:cx="-260.02918"
     inkscape:cy="478.266"
     inkscape:document-units="px"
     inkscape:current-layer="layer1"
     showgrid="false"
     units="px"
     showguides="true"
     inkscape:guide-bbox="true"
     inkscape:window-width="1536"
     inkscape:window-height="801"
     inkscape:window-x="-8"
     inkscape:window-y="-8"
     inkscape:window-maximized="1">
    <sodipodi:guide
       position="0,512"
       orientation="0,1"
       id="guide3361"
       inkscape:label=""
       inkscape:color="rgb(0,0,255)" />
    <sodipodi:guide
       position="0,128"
       orientation="0,1"
       id="guide3363"
       inkscape:label=""
       inkscape:color="rgb(0,0,255)" />
    <sodipodi:guide
       position="0,256"
       orientation="0,1"
       id="guide3365"
       inkscape:label=""
       inkscape:color="rgb(0,0,255)" />
    <sodipodi:guide
       position="0,640"
       orientation="0,1"
       id="guide3367"
       inkscape:label=""
       inkscape:color="rgb(0,0,255)" />
    <sodipodi:guide
       position="0,384"
       orientation="0,1"
       id="guide3369"
       inkscape:label=""
       inkscape:color="rgb(0,0,255)" />
    <sodipodi:guide
       position="0,768"
       orientation="0,1"
       id="guide3371"
       inkscape:label=""
       inkscape:color="rgb(0,0,255)" />
    <sodipodi:guide
       position="0,896"
       orientation="0,1"
       id="guide3373"
       inkscape:label=""
       inkscape:color="rgb(0,0,255)" />
    <sodipodi:guide
       position="896,0"
       orientation="1,0"
       id="guide3375"
       inkscape:label=""
       inkscape:color="rgb(0,0,255)" />
    <sodipodi:guide
       position="128,0"
       orientation="1,0"
       id="guide3377"
       inkscape:label=""
       inkscape:color="rgb(0,0,255)" />
    <sodipodi:guide
       position="256,0"
       orientation="1,0"
       id="guide3379"
       inkscape:label=""
       inkscape:color="rgb(0,0,255)" />
    <sodipodi:guide
       position="384,0"
       orientation="1,0"
       id="guide3383"
       inkscape:label=""
       inkscape:color="rgb(0,0,255)" />
    <sodipodi:guide
       position="512,0"
       orientation="1,0"
       id="guide3385"
       inkscape:label=""
       inkscape:color="rgb(0,0,255)" />
    <sodipodi:guide
       position="640,0"
       orientation="1,0"
       id="guide3387"
       inkscape:label=""
       inkscape:color="rgb(0,0,255)" />
    <sodipodi:guide
       position="768,0"
       orientation="1,0"
       id="guide3389"
       inkscape:label=""
       inkscape:color="rgb(0,0,255)" />
  </sodipodi:namedview>
  <metadata
     id="metadata3358">
    <rdf:RDF>
      <cc:Work
         rdf:about="">
        <dc:format>image/svg+xml</dc:format>
        <dc:type
           rdf:resource="http://purl.org/dc/dcmitype/StillImage" />
        <dc:title></dc:title>
      </cc:Work>
    </rdf:RDF>
  </metadata>
  <g
     inkscape:label="Vrstva 1"
     inkscape:groupmode="layer"
     id="layer1"
     transform="translate(0,-28.362161)">
    <g
       transform="matrix(0.61538462,0,0,-0.61643389,0,973.45863)"
       id="g4">
      <path
         style="fill:currentColor"
         inkscape:connector-curvature="0"
         d="m 1280,64 c 0,17.333333 -6.3333,32.333333 -19,45 -12.6667,12.66667 -27.6667,19 -45,19 -17.3333,0 -32.3333,-6.33333 -45,-19 -12.6667,-12.666667 -19,-27.666667 -19,-45 0,-17.333333 6.3333,-32.333333 19,-45 12.6667,-12.6666667 27.6667,-19 45,-19 17.3333,0 32.3333,6.3333333 45,19 12.6667,12.666667 19,27.666667 19,45 z m 256,0 c 0,17.333333 -6.3333,32.333333 -19,45 -12.6667,12.66667 -27.6667,19 -45,19 -17.3333,0 -32.3333,-6.33333 -45,-19 -12.6667,-12.666667 -19,-27.666667 -19,-45 0,-17.333333 6.3333,-32.333333 19,-45 12.6667,-12.6666667 27.6667,-19 45,-19 17.3333,0 32.3333,6.3333333 45,19 12.6667,12.666667 19,27.666667 19,45 z m 128,224 0,-320 c 0,-26.666667 -9.3333,-49.333333 -28,-68 -18.6667,-18.66667 -41.3333,-28 -68,-28 l -1472,0 c -26.666667,0 -49.333333,9.33333 -68,28 C 9.3333333,-81.333333 0,-58.666667 0,-32 l 0,320 c 0,26.66667 9.3333333,49.33333 28,68 18.666667,18.66667 41.333333,28 68,28 l 427,0 c 14,-37.33333 37.5,-68 70.5,-92 33,-24 69.83333,-36 110.5,-36 l 256,0 c 40.6667,0 77.5,12 110.5,36 33,24 56.5,54.66667 70.5,92 l 427,0 c 26.6667,0 49.3333,-9.33333 68,-28 18.6667,-18.66667 28,-41.33333 28,-68 z m -325,709.16757 c -11.3333,-26.66667 -31.0001,-39.94676 -59,-40 l -256,0 L 1024,448 c 0,-17.33333 -6.3333,-32.33333 -19,-45 -12.66667,-12.66667 -27.66667,-19 -45,-19 l -256,0 c -17.33333,0 -32.33333,6.33333 -45,19 -12.66667,12.66667 -19,27.66667 -19,45 l 0,509.16757 -256,0 c -28,0 -47.66667,13.33333 -59,40 -11.33333,26.00003 -6.66667,49.00003 14,69.00003 l 448,448 c 12,12.6666 27,19 45,19 18,0 33,-6.3334 45,-19 l 448,-448 c 20.6667,-20 25.3333,-43 14,-69.00003 z"
         id="path6"
         sodipodi:nodetypes="sssssssssssssssssssssssssssscsssscssscscsssssscscccsccc" />
    </g>
  </g>
</svg>
