<?xml version="1.0" encoding="UTF-8" standalone="no"?>
<!-- Created with Inkscape (http://www.inkscape.org/) -->

<svg
   xmlns:dc="http://purl.org/dc/elements/1.1/"
   xmlns:cc="http://creativecommons.org/ns#"
   xmlns:rdf="http://www.w3.org/1999/02/22-rdf-syntax-ns#"
   xmlns:svg="http://www.w3.org/2000/svg"
   xmlns="http://www.w3.org/2000/svg"
   xmlns:sodipodi="http://sodipodi.sourceforge.net/DTD/sodipodi-0.dtd"
   xmlns:inkscape="http://www.inkscape.org/namespaces/inkscape"
   width="1024"
   height="1024"
   viewBox="0 0 1024 1024"
   id="svg3353"
   version="1.1"
   inkscape:version="0.92.1 r15371"
   sodipodi:docname="layer-point.svg">
  <defs
     id="defs3355" />
  <sodipodi:namedview
     id="base"
     pagecolor="#ffffff"
     bordercolor="#666666"
     borderopacity="1.0"
     inkscape:pageopacity="0.0"
     inkscape:pageshadow="2"
     inkscape:zoom="0.49407705"
     inkscape:cx="572.34749"
     inkscape:cy="430.25168"
     inkscape:document-units="px"
     inkscape:current-layer="layer1"
     showgrid="false"
     units="px"
     showguides="true"
     inkscape:guide-bbox="true"
     inkscape:window-width="1920"
     inkscape:window-height="1001"
     inkscape:window-x="-9"
     inkscape:window-y="-9"
     inkscape:window-maximized="1">
    <sodipodi:guide
       position="0,512"
       orientation="0,1"
       id="guide3361"
       inkscape:label=""
       inkscape:color="rgb(0,0,255)"
       inkscape:locked="false" />
    <sodipodi:guide
       position="0,128"
       orientation="0,1"
       id="guide3363"
       inkscape:label=""
       inkscape:color="rgb(0,0,255)"
       inkscape:locked="false" />
    <sodipodi:guide
       position="0,256"
       orientation="0,1"
       id="guide3365"
       inkscape:label=""
       inkscape:color="rgb(0,0,255)"
       inkscape:locked="false" />
    <sodipodi:guide
       position="0,640"
       orientation="0,1"
       id="guide3367"
       inkscape:label=""
       inkscape:color="rgb(0,0,255)"
       inkscape:locked="false" />
    <sodipodi:guide
       position="0,384"
       orientation="0,1"
       id="guide3369"
       inkscape:label=""
       inkscape:color="rgb(0,0,255)"
       inkscape:locked="false" />
    <sodipodi:guide
       position="0,768"
       orientation="0,1"
       id="guide3371"
       inkscape:label=""
       inkscape:color="rgb(0,0,255)"
       inkscape:locked="false" />
    <sodipodi:guide
       position="0,896"
       orientation="0,1"
       id="guide3373"
       inkscape:label=""
       inkscape:color="rgb(0,0,255)"
       inkscape:locked="false" />
    <sodipodi:guide
       position="896,0"
       orientation="1,0"
       id="guide3375"
       inkscape:label=""
       inkscape:color="rgb(0,0,255)"
       inkscape:locked="false" />
    <sodipodi:guide
       position="128,0"
       orientation="1,0"
       id="guide3377"
       inkscape:label=""
       inkscape:color="rgb(0,0,255)"
       inkscape:locked="false" />
    <sodipodi:guide
       position="256,0"
       orientation="1,0"
       id="guide3379"
       inkscape:label=""
       inkscape:color="rgb(0,0,255)"
       inkscape:locked="false" />
    <sodipodi:guide
       position="384,0"
       orientation="1,0"
       id="guide3383"
       inkscape:label=""
       inkscape:color="rgb(0,0,255)"
       inkscape:locked="false" />
    <sodipodi:guide
       position="512,0"
       orientation="1,0"
       id="guide3385"
       inkscape:label=""
       inkscape:color="rgb(0,0,255)"
       inkscape:locked="false" />
    <sodipodi:guide
       position="640,0"
       orientation="1,0"
       id="guide3387"
       inkscape:label=""
       inkscape:color="rgb(0,0,255)"
       inkscape:locked="false" />
    <sodipodi:guide
       position="768,0"
       orientation="1,0"
       id="guide3389"
       inkscape:label=""
       inkscape:color="rgb(0,0,255)"
       inkscape:locked="false" />
    <sodipodi:guide
       position="0,0"
       orientation="1,0"
       id="guide826"
       inkscape:locked="false"
       inkscape:label=""
       inkscape:color="rgb(0,0,255)" />
    <sodipodi:guide
       position="1024,1024"
       orientation="1,0"
       id="guide828"
       inkscape:locked="false"
       inkscape:label=""
       inkscape:color="rgb(0,0,255)" />
    <sodipodi:guide
       position="0,0"
       orientation="0,1"
       id="guide830"
       inkscape:locked="false"
       inkscape:label=""
       inkscape:color="rgb(0,0,255)" />
    <sodipodi:guide
       position="1024,1024"
       orientation="0,1"
       id="guide832"
       inkscape:locked="false"
       inkscape:label=""
       inkscape:color="rgb(0,0,255)" />
  </sodipodi:namedview>
  <metadata
     id="metadata3358">
    <rdf:RDF>
      <cc:Work
         rdf:about="">
        <dc:format>image/svg+xml</dc:format>
        <dc:type
           rdf:resource="http://purl.org/dc/dcmitype/StillImage" />
        <dc:title></dc:title>
      </cc:Work>
    </rdf:RDF>
  </metadata>
  <g
     inkscape:label="Vrstva 1"
     inkscape:groupmode="layer"
     id="layer1"
     transform="translate(0,-28.362161)">
    <g
       transform="matrix(1.056578,0,0,-1.0753037,-55.998636,590.55525)"
       id="g4-28-8">
      <path
         style="fill:currentColor;stroke-width:1.26615608"
         inkscape:connector-curvature="0"
         d="m 241.65725,522.8226 c 51.9124,0 96.22787,-18.99234 134.21254,-55.71087 36.71853,-36.71852 55.71087,-81.03399 55.71087,-132.94638 0,-26.58928 -7.59693,-56.97702 -20.25849,-91.16324 C 398.66061,208.8159 382.20057,177.16199 364.47439,148.0404 345.48205,118.91882 326.48971,92.329538 308.76352,65.740261 289.77118,40.41714 274.57731,20.158643 261.91575,4.9647699 l -20.2585,-21.5246559 c -5.06463,5.064628 -12.66156,12.6615637 -20.2585,22.7908121 -8.86309,10.1292489 -24.05696,29.1215899 -45.58161,58.2431789 -21.52466,29.12159 -40.517,58.243185 -56.97702,84.832455 -17.72618,27.85543 -32.920062,59.50934 -45.581622,93.69555 -13.927717,34.18622 -20.258497,64.57396 -20.258497,91.16324 0,51.91239 17.726185,96.22786 54.444709,132.94638 36.71852,36.71853 81.03399,55.71087 134.21254,55.71087 z m 0,-255.76352 c 17.72619,0 34.18622,6.33078 48.11393,18.99234 12.66156,13.92771 20.2585,29.12158 20.2585,48.11393 0,18.99234 -7.59694,34.18621 -20.2585,46.84777 -13.92771,13.92771 -30.38774,20.25849 -48.11393,20.25849 -18.99234,0 -35.45237,-6.33078 -48.11393,-20.25849 -12.66155,-12.66156 -18.99233,-27.85543 -18.99233,-46.84777 0,-18.99235 6.33078,-34.18622 18.99233,-48.11393 12.66156,-12.66156 29.12159,-18.99234 48.11393,-18.99234 z"
         id="path6-5-6" />
    </g>
    <g
       transform="matrix(1.056578,0,0,-1.0753037,568.00136,1034.5553)"
       id="g4-28-8-3">
      <path
         style="fill:currentColor;stroke-width:1.26615608"
         inkscape:connector-curvature="0"
         d="m 241.65725,522.8226 c 51.9124,0 96.22787,-18.99234 134.21254,-55.71087 36.71853,-36.71852 55.71087,-81.03399 55.71087,-132.94638 0,-26.58928 -7.59693,-56.97702 -20.25849,-91.16324 C 398.66061,208.8159 382.20057,177.16199 364.47439,148.0404 345.48205,118.91882 326.48971,92.329538 308.76352,65.740261 289.77118,40.41714 274.57731,20.158643 261.91575,4.9647699 l -20.2585,-21.5246559 c -5.06463,5.064628 -12.66156,12.6615637 -20.2585,22.7908121 -8.86309,10.1292489 -24.05696,29.1215899 -45.58161,58.2431789 -21.52466,29.12159 -40.517,58.243185 -56.97702,84.832455 -17.72618,27.85543 -32.920062,59.50934 -45.581622,93.69555 -13.927717,34.18622 -20.258497,64.57396 -20.258497,91.16324 0,51.91239 17.726185,96.22786 54.444709,132.94638 36.71852,36.71853 81.03399,55.71087 134.21254,55.71087 z m 0,-255.76352 c 17.72619,0 34.18622,6.33078 48.11393,18.99234 12.66156,13.92771 20.2585,29.12158 20.2585,48.11393 0,18.99234 -7.59694,34.18621 -20.2585,46.84777 -13.92771,13.92771 -30.38774,20.25849 -48.11393,20.25849 -18.99234,0 -35.45237,-6.33078 -48.11393,-20.25849 -12.66155,-12.66156 -18.99233,-27.85543 -18.99233,-46.84777 0,-18.99235 6.33078,-34.18622 18.99233,-48.11393 12.66156,-12.66156 29.12159,-18.99234 48.11393,-18.99234 z"
         id="path6-5-6-4" />
    </g>
  </g>
</svg>
