<?xml version="1.0" encoding="UTF-8" standalone="no"?>
<!-- Created with Inkscape (http://www.inkscape.org/) -->

<svg
   xmlns:dc="http://purl.org/dc/elements/1.1/"
   xmlns:cc="http://creativecommons.org/ns#"
   xmlns:rdf="http://www.w3.org/1999/02/22-rdf-syntax-ns#"
   xmlns:svg="http://www.w3.org/2000/svg"
   xmlns="http://www.w3.org/2000/svg"
   xmlns:sodipodi="http://sodipodi.sourceforge.net/DTD/sodipodi-0.dtd"
   xmlns:inkscape="http://www.inkscape.org/namespaces/inkscape"
   width="1024"
   height="1024"
   viewBox="0 0 1024 1024"
   id="svg3353"
   version="1.1"
   inkscape:version="0.92.1 r15371"
   sodipodi:docname="layer-image.svg">
  <defs
     id="defs3355" />
  <sodipodi:namedview
     id="base"
     pagecolor="#ffffff"
     bordercolor="#666666"
     borderopacity="1.0"
     inkscape:pageopacity="0.0"
     inkscape:pageshadow="2"
     inkscape:zoom="0.55795142"
     inkscape:cx="239.93427"
     inkscape:cy="329.43139"
     inkscape:document-units="px"
     inkscape:current-layer="layer1"
     showgrid="false"
     units="px"
     showguides="true"
     inkscape:guide-bbox="true"
     inkscape:window-width="1920"
     inkscape:window-height="1001"
     inkscape:window-x="-9"
     inkscape:window-y="-9"
     inkscape:window-maximized="1">
    <sodipodi:guide
       position="0,512"
       orientation="0,1"
       id="guide3361"
       inkscape:label=""
       inkscape:color="rgb(0,0,255)"
       inkscape:locked="false" />
    <sodipodi:guide
       position="0,128"
       orientation="0,1"
       id="guide3363"
       inkscape:label=""
       inkscape:color="rgb(0,0,255)"
       inkscape:locked="false" />
    <sodipodi:guide
       position="0,256"
       orientation="0,1"
       id="guide3365"
       inkscape:label=""
       inkscape:color="rgb(0,0,255)"
       inkscape:locked="false" />
    <sodipodi:guide
       position="0,640"
       orientation="0,1"
       id="guide3367"
       inkscape:label=""
       inkscape:color="rgb(0,0,255)"
       inkscape:locked="false" />
    <sodipodi:guide
       position="0,384"
       orientation="0,1"
       id="guide3369"
       inkscape:label=""
       inkscape:color="rgb(0,0,255)"
       inkscape:locked="false" />
    <sodipodi:guide
       position="0,768"
       orientation="0,1"
       id="guide3371"
       inkscape:label=""
       inkscape:color="rgb(0,0,255)"
       inkscape:locked="false" />
    <sodipodi:guide
       position="0,896"
       orientation="0,1"
       id="guide3373"
       inkscape:label=""
       inkscape:color="rgb(0,0,255)"
       inkscape:locked="false" />
    <sodipodi:guide
       position="896,0"
       orientation="1,0"
       id="guide3375"
       inkscape:label=""
       inkscape:color="rgb(0,0,255)"
       inkscape:locked="false" />
    <sodipodi:guide
       position="128,0"
       orientation="1,0"
       id="guide3377"
       inkscape:label=""
       inkscape:color="rgb(0,0,255)"
       inkscape:locked="false" />
    <sodipodi:guide
       position="256,0"
       orientation="1,0"
       id="guide3379"
       inkscape:label=""
       inkscape:color="rgb(0,0,255)"
       inkscape:locked="false" />
    <sodipodi:guide
       position="384,0"
       orientation="1,0"
       id="guide3383"
       inkscape:label=""
       inkscape:color="rgb(0,0,255)"
       inkscape:locked="false" />
    <sodipodi:guide
       position="512,0"
       orientation="1,0"
       id="guide3385"
       inkscape:label=""
       inkscape:color="rgb(0,0,255)"
       inkscape:locked="false" />
    <sodipodi:guide
       position="640,0"
       orientation="1,0"
       id="guide3387"
       inkscape:label=""
       inkscape:color="rgb(0,0,255)"
       inkscape:locked="false" />
    <sodipodi:guide
       position="768,0"
       orientation="1,0"
       id="guide3389"
       inkscape:label=""
       inkscape:color="rgb(0,0,255)"
       inkscape:locked="false" />
    <sodipodi:guide
       position="0,0"
       orientation="1,0"
       id="guide826"
       inkscape:locked="false"
       inkscape:label=""
       inkscape:color="rgb(0,0,255)" />
    <sodipodi:guide
       position="1024,1024"
       orientation="1,0"
       id="guide828"
       inkscape:locked="false"
       inkscape:label=""
       inkscape:color="rgb(0,0,255)" />
    <sodipodi:guide
       position="0,0"
       orientation="0,1"
       id="guide830"
       inkscape:locked="false"
       inkscape:label=""
       inkscape:color="rgb(0,0,255)" />
    <sodipodi:guide
       position="1024,1024"
       orientation="0,1"
       id="guide832"
       inkscape:locked="false"
       inkscape:label=""
       inkscape:color="rgb(0,0,255)" />
  </sodipodi:namedview>
  <metadata
     id="metadata3358">
    <rdf:RDF>
      <cc:Work
         rdf:about="">
        <dc:format>image/svg+xml</dc:format>
        <dc:type
           rdf:resource="http://purl.org/dc/dcmitype/StillImage" />
        <dc:title />
      </cc:Work>
    </rdf:RDF>
  </metadata>
  <g
     inkscape:label="Vrstva 1"
     inkscape:groupmode="layer"
     id="layer1"
     transform="translate(0,-28.362161)">
    <path
       style="stroke-width:2.663445"
       d="M 360.29821,28.367707 C 321.07858,30.645222 285.06518,48.427079 247.18357,57.22186 171.71346,79.687415 95.639742,100.22338 20.806392,124.82525 3.1447725,135.24944 -2.0341245,158.4037 0.67697446,177.68784 c 0.274945,279.97742 -0.728342,559.96093 0.47089804,839.93426 3.32235,26.372 35.6585695,42.8792 58.6636995,30.6122 99.892078,-28.6769 199.097188,-59.79025 299.465318,-86.71144 26.68339,0.83634 50.81083,14.15978 76.71184,19.1949 81.11495,23.11854 161.91257,47.49134 243.34333,69.39214 24.11596,0.2253 45.92544,-12.3631 69.02035,-16.8299 84.77183,-24.8384 170.1952,-47.5039 254.33529,-74.47917 17.7562,-10.38415 22.9978,-33.61967 20.2613,-52.95616 -0.3018,-279.95258 1.8958,-559.91142 0.6826,-839.859841 -3.242,-26.03522 -36.20049,-42.802254 -59.12659,-30.901373 C 870.82869,62.061994 777.15234,89.04053 683.47599,116.01907 581.32493,87.410334 480.00082,55.619659 377.25895,29.276557 371.63738,28.55063 365.96177,28.322201 360.29821,28.367707 Z M 643.22762,192.08693 V 385.87818 C 563.02897,362.77128 482.83515,339.64704 402.61436,316.61963 V 122.76671 c 80.20441,23.10674 160.40885,46.21349 240.61326,69.32022 z m -321.14138,124.5327 c -80.31694,23.0928 -160.60903,46.27378 -240.906258,69.43718 0.009,-64.15333 0.0167,-128.30666 0.0251,-192.46001 80.293728,-23.55119 160.587438,-47.10239 240.881158,-70.65358 z m 620.33457,6.25853 c -72.88831,21 -145.7767,42.00001 -218.66507,63.00002 V 192.08693 C 796.64411,171.08835 869.5325,150.08977 942.42081,129.09118 Z M 643.22762,473.54017 V 669.34315 C 563.02897,646.23626 482.83515,623.11202 402.61436,600.08461 V 404.2157 c 80.20441,23.10815 160.40885,46.21632 240.61326,69.32447 z M 322.08624,600.08248 c -80.32482,23.10634 -160.62941,46.2842 -240.937658,69.44995 0.009,-65.262 0.0181,-130.52399 0.0272,-195.78598 80.303488,-23.16842 160.606968,-46.33681 240.910448,-69.50523 z m 620.33457,6.26066 c -72.88831,21.00001 -145.7767,42.00002 -218.66507,63.00001 V 473.54017 c 72.88837,-21 145.77676,-42.00001 218.66507,-63.00002 z M 643.22762,757.00727 V 952.79111 C 563.02856,929.68569 482.83377,906.56492 402.61436,883.53258 V 687.68706 Z m -321.14138,126.5572 c -80.33695,23.48735 -160.6521,47.05175 -240.971138,70.60254 0.009,-65.65043 0.0182,-131.30088 0.0272,-196.95133 80.314628,-23.17053 160.629278,-46.34107 240.943918,-69.51161 z m 620.33457,6.23088 c -72.88831,20.99859 -145.7767,41.99718 -218.66507,62.99576 V 757.00727 C 796.64411,736.00868 869.5325,715.0101 942.42081,694.01152 Z"
       id="XMLID_2029_"
       inkscape:connector-curvature="0"
       sodipodi:nodetypes="ccccccccccccccccccccccccccccccccccccccccccccccccccccccccccccccc" />
  </g>
</svg>
