<?xml version="1.0" encoding="UTF-8" standalone="no"?>
<!-- Created with Inkscape (http://www.inkscape.org/) -->

<svg
   xmlns:dc="http://purl.org/dc/elements/1.1/"
   xmlns:cc="http://creativecommons.org/ns#"
   xmlns:rdf="http://www.w3.org/1999/02/22-rdf-syntax-ns#"
   xmlns:svg="http://www.w3.org/2000/svg"
   xmlns="http://www.w3.org/2000/svg"
   xmlns:sodipodi="http://sodipodi.sourceforge.net/DTD/sodipodi-0.dtd"
   xmlns:inkscape="http://www.inkscape.org/namespaces/inkscape"
   width="1024"
   height="1024"
   viewBox="0 0 1024 1024"
   id="svg3353"
   version="1.1"
   inkscape:version="0.92.1 r15371"
   sodipodi:docname="layer-collection.svg">
  <defs
     id="defs3355" />
  <sodipodi:namedview
     id="base"
     pagecolor="#ffffff"
     bordercolor="#666666"
     borderopacity="1.0"
     inkscape:pageopacity="0.0"
     inkscape:pageshadow="2"
     inkscape:zoom="0.34936523"
     inkscape:cx="321.26681"
     inkscape:cy="441.08402"
     inkscape:document-units="px"
     inkscape:current-layer="layer1"
     showgrid="false"
     units="px"
     showguides="true"
     inkscape:guide-bbox="true"
     inkscape:window-width="1920"
     inkscape:window-height="1001"
     inkscape:window-x="-9"
     inkscape:window-y="-9"
     inkscape:window-maximized="1">
    <sodipodi:guide
       position="0,512"
       orientation="0,1"
       id="guide3361"
       inkscape:label=""
       inkscape:color="rgb(0,0,255)"
       inkscape:locked="false" />
    <sodipodi:guide
       position="0,128"
       orientation="0,1"
       id="guide3363"
       inkscape:label=""
       inkscape:color="rgb(0,0,255)"
       inkscape:locked="false" />
    <sodipodi:guide
       position="0,256"
       orientation="0,1"
       id="guide3365"
       inkscape:label=""
       inkscape:color="rgb(0,0,255)"
       inkscape:locked="false" />
    <sodipodi:guide
       position="0,640"
       orientation="0,1"
       id="guide3367"
       inkscape:label=""
       inkscape:color="rgb(0,0,255)"
       inkscape:locked="false" />
    <sodipodi:guide
       position="0,384"
       orientation="0,1"
       id="guide3369"
       inkscape:label=""
       inkscape:color="rgb(0,0,255)"
       inkscape:locked="false" />
    <sodipodi:guide
       position="0,768"
       orientation="0,1"
       id="guide3371"
       inkscape:label=""
       inkscape:color="rgb(0,0,255)"
       inkscape:locked="false" />
    <sodipodi:guide
       position="0,896"
       orientation="0,1"
       id="guide3373"
       inkscape:label=""
       inkscape:color="rgb(0,0,255)"
       inkscape:locked="false" />
    <sodipodi:guide
       position="896,0"
       orientation="1,0"
       id="guide3375"
       inkscape:label=""
       inkscape:color="rgb(0,0,255)"
       inkscape:locked="false" />
    <sodipodi:guide
       position="128,0"
       orientation="1,0"
       id="guide3377"
       inkscape:label=""
       inkscape:color="rgb(0,0,255)"
       inkscape:locked="false" />
    <sodipodi:guide
       position="256,0"
       orientation="1,0"
       id="guide3379"
       inkscape:label=""
       inkscape:color="rgb(0,0,255)"
       inkscape:locked="false" />
    <sodipodi:guide
       position="384,0"
       orientation="1,0"
       id="guide3383"
       inkscape:label=""
       inkscape:color="rgb(0,0,255)"
       inkscape:locked="false" />
    <sodipodi:guide
       position="512,0"
       orientation="1,0"
       id="guide3385"
       inkscape:label=""
       inkscape:color="rgb(0,0,255)"
       inkscape:locked="false" />
    <sodipodi:guide
       position="640,0"
       orientation="1,0"
       id="guide3387"
       inkscape:label=""
       inkscape:color="rgb(0,0,255)"
       inkscape:locked="false" />
    <sodipodi:guide
       position="768,0"
       orientation="1,0"
       id="guide3389"
       inkscape:label=""
       inkscape:color="rgb(0,0,255)"
       inkscape:locked="false" />
    <sodipodi:guide
       position="0,0"
       orientation="1,0"
       id="guide826"
       inkscape:locked="false"
       inkscape:label=""
       inkscape:color="rgb(0,0,255)" />
    <sodipodi:guide
       position="1024,1024"
       orientation="1,0"
       id="guide828"
       inkscape:locked="false"
       inkscape:label=""
       inkscape:color="rgb(0,0,255)" />
    <sodipodi:guide
       position="0,0"
       orientation="0,1"
       id="guide830"
       inkscape:locked="false"
       inkscape:label=""
       inkscape:color="rgb(0,0,255)" />
    <sodipodi:guide
       position="1024,1024"
       orientation="0,1"
       id="guide832"
       inkscape:locked="false"
       inkscape:label=""
       inkscape:color="rgb(0,0,255)" />
  </sodipodi:namedview>
  <metadata
     id="metadata3358">
    <rdf:RDF>
      <cc:Work
         rdf:about="">
        <dc:format>image/svg+xml</dc:format>
        <dc:type
           rdf:resource="http://purl.org/dc/dcmitype/StillImage" />
        <dc:title />
      </cc:Work>
    </rdf:RDF>
  </metadata>
  <g
     inkscape:label="Vrstva 1"
     inkscape:groupmode="layer"
     id="layer1"
     transform="translate(0,-28.362161)">
    <g
       transform="matrix(1.056578,0,0,-1.0753037,-55.998635,906.55525)"
       id="g4-28-8-3" />
    <path
       id="path4511-9"
       transform="translate(0,28.362161)"
       style="fill:#000000;fill-opacity:1;stroke:none;stroke-width:40;stroke-linecap:round;stroke-linejoin:round;stroke-miterlimit:4;stroke-dasharray:none;stroke-opacity:1;paint-order:stroke fill markers"
       d="m 944,564 a 80,80 0 0 0 -80,80 80,80 0 0 0 1.66797,15.84375 L 525.57617,878.2793 A 80,80 0 0 0 480,864 a 80,80 0 0 0 -80,80 80,80 0 0 0 80,80 80,80 0 0 0 80,-80 80,80 0 0 0 -0.87305,-11.20508 L 902.48047,712.26562 A 80,80 0 0 0 944,724 80,80 0 0 0 1024,644 80,80 0 0 0 944,564 Z M 944,0 A 80,80 0 0 0 868.96875,52.53125 L 316.01172,92.568359 a 80,80 0 0 0 -72.625,-46.677734 80,80 0 0 0 -80,79.999995 80,80 0 0 0 80,80 80,80 0 0 0 36.39258,-8.76367 l 288.61328,209.57813 a 80,80 0 0 0 -0.7207,10.10156 80,80 0 0 0 80,80 80,80 0 0 0 80,-80 80,80 0 0 0 -4.49415,-26.15625 L 923.90039,157.33203 A 80,80 0 0 0 944,160 80,80 0 0 0 1024,80 80,80 0 0 0 944,0 Z m -71.21875,116.42578 a 80,80 0 0 0 0.75586,1.31445 L 679.40039,343.40039 A 80,80 0 0 0 647.67188,336.80664 80,80 0 0 0 601.46289,351.625 L 331.5332,155.61328 Z M 199.3311,316.00001 c 54.8495,0 101.67225,20.42254 141.80602,59.90611 C 379.93311,415.38968 400,463.04227 400,518.86385 c 0,28.59155 -8.02675,61.2676 -21.40468,98.02817 -13.37793,36.76056 -30.76924,70.79813 -49.49833,102.11268 -20.06689,31.31454 -40.13378,59.9061 -58.86288,88.49764 -20.06689,27.23005 -36.1204,49.01409 -49.49833,65.35211 L 199.3311,896 c -5.35118,-5.44602 -13.37793,-13.61503 -21.40469,-24.50705 -9.36454,-10.89202 -25.41805,-31.31455 -48.16052,-62.6291 C 107.0234,777.54929 86.956516,746.23473 69.565221,717.64319 50.836129,687.69015 34.782608,653.65258 21.404682,616.89202 6.6889629,580.13145 5.6577974e-8,547.4554 5.6577974e-8,518.86385 5.6577974e-8,463.04227 18.729097,415.38968 57.525082,375.90612 96.321062,336.42255 143.14381,316.00001 199.3311,316.00001 Z m 0,275.02346 c 18.7291,0 36.12041,-6.80751 50.83612,-20.42253 13.37792,-14.97652 21.40468,-31.31454 21.40468,-51.73709 0,-20.42253 -8.02676,-36.76056 -21.40468,-50.37558 -14.71571,-14.97652 -32.10702,-21.78403 -50.83612,-21.78403 -20.06689,0 -37.4582,6.80751 -50.83612,21.78403 -13.37792,13.61502 -20.06688,29.95305 -20.06688,50.37558 0,20.42255 6.68896,36.76057 20.06688,51.73709 13.37792,13.61502 30.76923,20.42253 50.83612,20.42253 z" />
  </g>
</svg>
