<?xml version="1.0" encoding="UTF-8" standalone="no"?>
<!-- Created with Inkscape (http://www.inkscape.org/) -->

<svg
   xmlns:dc="http://purl.org/dc/elements/1.1/"
   xmlns:cc="http://creativecommons.org/ns#"
   xmlns:rdf="http://www.w3.org/1999/02/22-rdf-syntax-ns#"
   xmlns:svg="http://www.w3.org/2000/svg"
   xmlns="http://www.w3.org/2000/svg"
   xmlns:sodipodi="http://sodipodi.sourceforge.net/DTD/sodipodi-0.dtd"
   xmlns:inkscape="http://www.inkscape.org/namespaces/inkscape"
   width="1024"
   height="1024"
   viewBox="0 0 1024 1024"
   id="svg3353"
   version="1.1"
   inkscape:version="0.91 r13725"
   sodipodi:docname="list.svg">
  <defs
     id="defs3355" />
  <sodipodi:namedview
     id="base"
     pagecolor="#ffffff"
     bordercolor="#666666"
     borderopacity="1.0"
     inkscape:pageopacity="0.0"
     inkscape:pageshadow="2"
     inkscape:zoom="0.35"
     inkscape:cx="-60.714286"
     inkscape:cy="520"
     inkscape:document-units="px"
     inkscape:current-layer="layer1"
     showgrid="false"
     units="px"
     showguides="true"
     inkscape:guide-bbox="true"
     inkscape:window-width="1536"
     inkscape:window-height="801"
     inkscape:window-x="-8"
     inkscape:window-y="-8"
     inkscape:window-maximized="1">
    <sodipodi:guide
       position="0,512"
       orientation="0,1"
       id="guide3361"
       inkscape:label=""
       inkscape:color="rgb(0,0,255)" />
    <sodipodi:guide
       position="0,128"
       orientation="0,1"
       id="guide3363"
       inkscape:label=""
       inkscape:color="rgb(0,0,255)" />
    <sodipodi:guide
       position="0,256"
       orientation="0,1"
       id="guide3365"
       inkscape:label=""
       inkscape:color="rgb(0,0,255)" />
    <sodipodi:guide
       position="0,640"
       orientation="0,1"
       id="guide3367"
       inkscape:label=""
       inkscape:color="rgb(0,0,255)" />
    <sodipodi:guide
       position="0,384"
       orientation="0,1"
       id="guide3369"
       inkscape:label=""
       inkscape:color="rgb(0,0,255)" />
    <sodipodi:guide
       position="0,768"
       orientation="0,1"
       id="guide3371"
       inkscape:label=""
       inkscape:color="rgb(0,0,255)" />
    <sodipodi:guide
       position="0,896"
       orientation="0,1"
       id="guide3373"
       inkscape:label=""
       inkscape:color="rgb(0,0,255)" />
    <sodipodi:guide
       position="896,0"
       orientation="1,0"
       id="guide3375"
       inkscape:label=""
       inkscape:color="rgb(0,0,255)" />
    <sodipodi:guide
       position="128,0"
       orientation="1,0"
       id="guide3377"
       inkscape:label=""
       inkscape:color="rgb(0,0,255)" />
    <sodipodi:guide
       position="256,0"
       orientation="1,0"
       id="guide3379"
       inkscape:label=""
       inkscape:color="rgb(0,0,255)" />
    <sodipodi:guide
       position="384,0"
       orientation="1,0"
       id="guide3383"
       inkscape:label=""
       inkscape:color="rgb(0,0,255)" />
    <sodipodi:guide
       position="512,0"
       orientation="1,0"
       id="guide3385"
       inkscape:label=""
       inkscape:color="rgb(0,0,255)" />
    <sodipodi:guide
       position="640,0"
       orientation="1,0"
       id="guide3387"
       inkscape:label=""
       inkscape:color="rgb(0,0,255)" />
    <sodipodi:guide
       position="768,0"
       orientation="1,0"
       id="guide3389"
       inkscape:label=""
       inkscape:color="rgb(0,0,255)" />
  </sodipodi:namedview>
  <metadata
     id="metadata3358">
    <rdf:RDF>
      <cc:Work
         rdf:about="">
        <dc:format>image/svg+xml</dc:format>
        <dc:type
           rdf:resource="http://purl.org/dc/dcmitype/StillImage" />
        <dc:title></dc:title>
      </cc:Work>
    </rdf:RDF>
  </metadata>
  <g
     inkscape:label="Vrstva 1"
     inkscape:groupmode="layer"
     id="layer1"
     transform="translate(0,-28.362161)">
    <g
       transform="matrix(0.57142857,0,0,-0.57102273,0,942.36216)"
       id="g4">
      <path
         style="fill:currentColor"
         inkscape:connector-curvature="0"
         d="M 256,224 256,32 Q 256,19 246.5,9.5 237,0 224,0 L 32,0 Q 19,0 9.5,9.5 0,19 0,32 L 0,224 Q 0,237 9.5,246.5 19,256 32,256 l 192,0 q 13,0 22.5,-9.5 Q 256,237 256,224 Z m 0,384 0,-192 q 0,-13 -9.5,-22.5 Q 237,384 224,384 L 32,384 Q 19,384 9.5,393.5 0,403 0,416 L 0,608 Q 0,621 9.5,630.5 19,640 32,640 l 192,0 q 13,0 22.5,-9.5 Q 256,621 256,608 Z m 0,384 0,-192 q 0,-13 -9.5,-22.5 Q 237,768 224,768 L 32,768 Q 19,768 9.5,777.5 0,787 0,800 l 0,192 q 0,13 9.5,22.5 9.5,9.5 22.5,9.5 l 192,0 q 13,0 22.5,-9.5 Q 256,1005 256,992 Z M 1792,224 1792,32 Q 1792,19 1782.5,9.5 1773,0 1760,0 L 416,0 Q 403,0 393.5,9.5 384,19 384,32 l 0,192 q 0,13 9.5,22.5 9.5,9.5 22.5,9.5 l 1344,0 q 13,0 22.5,-9.5 9.5,-9.5 9.5,-22.5 z m -1536,1152 0,-192 q 0,-13 -9.5,-22.5 Q 237,1152 224,1152 l -192,0 q -13,0 -22.5,9.5 Q 0,1171 0,1184 l 0,192 q 0,13 9.5,22.5 9.5,9.5 22.5,9.5 l 192,0 q 13,0 22.5,-9.5 9.5,-9.5 9.5,-22.5 z m 1536,-768 0,-192 q 0,-13 -9.5,-22.5 Q 1773,384 1760,384 l -1344,0 q -13,0 -22.5,9.5 Q 384,403 384,416 l 0,192 q 0,13 9.5,22.5 9.5,9.5 22.5,9.5 l 1344,0 q 13,0 22.5,-9.5 9.5,-9.5 9.5,-22.5 z m 0,384 0,-192 q 0,-13 -9.5,-22.5 Q 1773,768 1760,768 l -1344,0 q -13,0 -22.5,9.5 Q 384,787 384,800 l 0,192 q 0,13 9.5,22.5 9.5,9.5 22.5,9.5 l 1344,0 q 13,0 22.5,-9.5 9.5,-9.5 9.5,-22.5 z m 0,384 0,-192 q 0,-13 -9.5,-22.5 -9.5,-9.5 -22.5,-9.5 l -1344,0 q -13,0 -22.5,9.5 -9.5,9.5 -9.5,22.5 l 0,192 q 0,13 9.5,22.5 9.5,9.5 22.5,9.5 l 1344,0 q 13,0 22.5,-9.5 9.5,-9.5 9.5,-22.5 z"
         id="path6" />
    </g>
  </g>
</svg>
