<?xml version="1.0" encoding="UTF-8" standalone="no"?>
<!-- Created with Inkscape (http://www.inkscape.org/) -->

<svg
   xmlns:dc="http://purl.org/dc/elements/1.1/"
   xmlns:cc="http://creativecommons.org/ns#"
   xmlns:rdf="http://www.w3.org/1999/02/22-rdf-syntax-ns#"
   xmlns:svg="http://www.w3.org/2000/svg"
   xmlns="http://www.w3.org/2000/svg"
   xmlns:sodipodi="http://sodipodi.sourceforge.net/DTD/sodipodi-0.dtd"
   xmlns:inkscape="http://www.inkscape.org/namespaces/inkscape"
   width="1024"
   height="1024"
   viewBox="0 0 1024 1024"
   id="svg3353"
   version="1.1"
   inkscape:version="0.92.1 r15371"
   sodipodi:docname="location-coordinates.svg">
  <defs
     id="defs3355" />
  <sodipodi:namedview
     id="base"
     pagecolor="#ffffff"
     bordercolor="#666666"
     borderopacity="1.0"
     inkscape:pageopacity="0.0"
     inkscape:pageshadow="2"
     inkscape:zoom="0.30859375"
     inkscape:cx="525.85047"
     inkscape:cy="210.0229"
     inkscape:document-units="px"
     inkscape:current-layer="layer1"
     showgrid="false"
     units="px"
     showguides="true"
     inkscape:guide-bbox="true"
     inkscape:window-width="1920"
     inkscape:window-height="1001"
     inkscape:window-x="-9"
     inkscape:window-y="-9"
     inkscape:window-maximized="1">
    <sodipodi:guide
       position="0,512"
       orientation="0,1"
       id="guide3361"
       inkscape:label=""
       inkscape:color="rgb(0,0,255)"
       inkscape:locked="false" />
    <sodipodi:guide
       position="0,128"
       orientation="0,1"
       id="guide3363"
       inkscape:label=""
       inkscape:color="rgb(0,0,255)"
       inkscape:locked="false" />
    <sodipodi:guide
       position="0,256"
       orientation="0,1"
       id="guide3365"
       inkscape:label=""
       inkscape:color="rgb(0,0,255)"
       inkscape:locked="false" />
    <sodipodi:guide
       position="0,640"
       orientation="0,1"
       id="guide3367"
       inkscape:label=""
       inkscape:color="rgb(0,0,255)"
       inkscape:locked="false" />
    <sodipodi:guide
       position="0,384"
       orientation="0,1"
       id="guide3369"
       inkscape:label=""
       inkscape:color="rgb(0,0,255)"
       inkscape:locked="false" />
    <sodipodi:guide
       position="0,768"
       orientation="0,1"
       id="guide3371"
       inkscape:label=""
       inkscape:color="rgb(0,0,255)"
       inkscape:locked="false" />
    <sodipodi:guide
       position="0,896"
       orientation="0,1"
       id="guide3373"
       inkscape:label=""
       inkscape:color="rgb(0,0,255)"
       inkscape:locked="false" />
    <sodipodi:guide
       position="896,0"
       orientation="1,0"
       id="guide3375"
       inkscape:label=""
       inkscape:color="rgb(0,0,255)"
       inkscape:locked="false" />
    <sodipodi:guide
       position="128,0"
       orientation="1,0"
       id="guide3377"
       inkscape:label=""
       inkscape:color="rgb(0,0,255)"
       inkscape:locked="false" />
    <sodipodi:guide
       position="256,0"
       orientation="1,0"
       id="guide3379"
       inkscape:label=""
       inkscape:color="rgb(0,0,255)"
       inkscape:locked="false" />
    <sodipodi:guide
       position="384,0"
       orientation="1,0"
       id="guide3383"
       inkscape:label=""
       inkscape:color="rgb(0,0,255)"
       inkscape:locked="false" />
    <sodipodi:guide
       position="512,0"
       orientation="1,0"
       id="guide3385"
       inkscape:label=""
       inkscape:color="rgb(0,0,255)"
       inkscape:locked="false" />
    <sodipodi:guide
       position="640,0"
       orientation="1,0"
       id="guide3387"
       inkscape:label=""
       inkscape:color="rgb(0,0,255)"
       inkscape:locked="false" />
    <sodipodi:guide
       position="768,0"
       orientation="1,0"
       id="guide3389"
       inkscape:label=""
       inkscape:color="rgb(0,0,255)"
       inkscape:locked="false" />
  </sodipodi:namedview>
  <metadata
     id="metadata3358">
    <rdf:RDF>
      <cc:Work
         rdf:about="">
        <dc:format>image/svg+xml</dc:format>
        <dc:type
           rdf:resource="http://purl.org/dc/dcmitype/StillImage" />
        <dc:title></dc:title>
      </cc:Work>
    </rdf:RDF>
  </metadata>
  <g
     inkscape:label="Vrstva 1"
     inkscape:groupmode="layer"
     id="layer1"
     transform="translate(0,-28.362161)">
    <g
       id="g6"
       transform="matrix(2.1113402,0,0,2.1113402,0,28.36216)">
      <path
         inkscape:connector-curvature="0"
         d="m 256.62,179.397 c 0,-41.355 -33.645,-75 -75,-75 -41.355,0 -75,33.645 -75,75 0,41.355 33.645,75 75,75 41.355,0 75,-33.645 75,-75 z m -75,45 c -24.813,0 -45,-20.187 -45,-45 0,-24.813 20.187,-45 45,-45 24.813,0 45,20.187 45,45 0,24.813 -20.187,45 -45,45 z"
         id="path2" />
      <path
         inkscape:connector-curvature="0"
         d="m 357.7,226.168 c 3.674,-14.491 5.54,-29.398 5.54,-44.549 C 363.24,81.474 281.765,0 181.62,0 81.475,0 0,81.474 0,181.619 0,222.851 13.525,261.746 39.138,294.133 L 181.875,485 235.947,404.968 C 255.398,451.9 301.688,485 355.57,485 426.938,485 485,426.938 485,355.57 485,284.915 428.088,227.31 357.7,226.168 Z M 181.875,436.807 62.643,275.491 C 41.288,248.489 30,216.028 30,181.619 30,98.016 98.016,30 181.62,30 c 83.604,0 151.62,68.016 151.62,151.619 0,16.485 -2.634,32.619 -7.824,48.077 -56.871,13.624 -99.275,64.887 -99.275,125.874 0,4.3 0.216,8.55 0.627,12.743 z m 188.695,17.062 v -54.444 h -30 v 54.444 c -42.841,-6.51 -76.788,-40.458 -83.299,-83.299 h 54.444 v -30 h -54.444 c 6.51,-42.841 40.458,-76.789 83.299,-83.299 v 54.444 h 30 v -54.444 c 42.841,6.51 76.789,40.458 83.299,83.299 h -54.444 v 30 h 54.444 c -6.51,42.841 -40.458,76.789 -83.299,83.299 z"
         id="path4"
         sodipodi:nodetypes="cssscccsscccssscsccccccccccccccccccc" />
    </g>
  </g>
</svg>
