<?xml version="1.0" encoding="UTF-8" standalone="no"?>
<!-- Created with Inkscape (http://www.inkscape.org/) -->

<svg
   xmlns:dc="http://purl.org/dc/elements/1.1/"
   xmlns:cc="http://creativecommons.org/ns#"
   xmlns:rdf="http://www.w3.org/1999/02/22-rdf-syntax-ns#"
   xmlns:svg="http://www.w3.org/2000/svg"
   xmlns="http://www.w3.org/2000/svg"
   xmlns:sodipodi="http://sodipodi.sourceforge.net/DTD/sodipodi-0.dtd"
   xmlns:inkscape="http://www.inkscape.org/namespaces/inkscape"
   width="1024"
   height="1024"
   viewBox="0 0 1024 1024"
   id="svg3353"
   version="1.1"
   inkscape:version="0.92.1 r15371"
   sodipodi:docname="move-down.svg">
  <defs
     id="defs3355" />
  <sodipodi:namedview
     id="base"
     pagecolor="#ffffff"
     bordercolor="#666666"
     borderopacity="1.0"
     inkscape:pageopacity="0.0"
     inkscape:pageshadow="2"
     inkscape:zoom="0.24748737"
     inkscape:cx="-1411.5559"
     inkscape:cy="1409.7046"
     inkscape:document-units="px"
     inkscape:current-layer="layer1"
     showgrid="false"
     units="px"
     showguides="true"
     inkscape:guide-bbox="true"
     inkscape:window-width="1920"
     inkscape:window-height="1001"
     inkscape:window-x="-9"
     inkscape:window-y="-9"
     inkscape:window-maximized="1">
    <sodipodi:guide
       position="0,512"
       orientation="0,1"
       id="guide3361"
       inkscape:label=""
       inkscape:color="rgb(0,0,255)"
       inkscape:locked="false" />
    <sodipodi:guide
       position="0,128"
       orientation="0,1"
       id="guide3363"
       inkscape:label=""
       inkscape:color="rgb(0,0,255)"
       inkscape:locked="false" />
    <sodipodi:guide
       position="0,256"
       orientation="0,1"
       id="guide3365"
       inkscape:label=""
       inkscape:color="rgb(0,0,255)"
       inkscape:locked="false" />
    <sodipodi:guide
       position="0,640"
       orientation="0,1"
       id="guide3367"
       inkscape:label=""
       inkscape:color="rgb(0,0,255)"
       inkscape:locked="false" />
    <sodipodi:guide
       position="0,384"
       orientation="0,1"
       id="guide3369"
       inkscape:label=""
       inkscape:color="rgb(0,0,255)"
       inkscape:locked="false" />
    <sodipodi:guide
       position="0,768"
       orientation="0,1"
       id="guide3371"
       inkscape:label=""
       inkscape:color="rgb(0,0,255)"
       inkscape:locked="false" />
    <sodipodi:guide
       position="0,896"
       orientation="0,1"
       id="guide3373"
       inkscape:label=""
       inkscape:color="rgb(0,0,255)"
       inkscape:locked="false" />
    <sodipodi:guide
       position="896,0"
       orientation="1,0"
       id="guide3375"
       inkscape:label=""
       inkscape:color="rgb(0,0,255)"
       inkscape:locked="false" />
    <sodipodi:guide
       position="128,0"
       orientation="1,0"
       id="guide3377"
       inkscape:label=""
       inkscape:color="rgb(0,0,255)"
       inkscape:locked="false" />
    <sodipodi:guide
       position="256,0"
       orientation="1,0"
       id="guide3379"
       inkscape:label=""
       inkscape:color="rgb(0,0,255)"
       inkscape:locked="false" />
    <sodipodi:guide
       position="384,0"
       orientation="1,0"
       id="guide3383"
       inkscape:label=""
       inkscape:color="rgb(0,0,255)"
       inkscape:locked="false" />
    <sodipodi:guide
       position="512,0"
       orientation="1,0"
       id="guide3385"
       inkscape:label=""
       inkscape:color="rgb(0,0,255)"
       inkscape:locked="false" />
    <sodipodi:guide
       position="640,0"
       orientation="1,0"
       id="guide3387"
       inkscape:label=""
       inkscape:color="rgb(0,0,255)"
       inkscape:locked="false" />
    <sodipodi:guide
       position="768,0"
       orientation="1,0"
       id="guide3389"
       inkscape:label=""
       inkscape:color="rgb(0,0,255)"
       inkscape:locked="false" />
  </sodipodi:namedview>
  <metadata
     id="metadata3358">
    <rdf:RDF>
      <cc:Work
         rdf:about="">
        <dc:format>image/svg+xml</dc:format>
        <dc:type
           rdf:resource="http://purl.org/dc/dcmitype/StillImage" />
        <dc:title />
      </cc:Work>
    </rdf:RDF>
  </metadata>
  <g
     inkscape:label="Vrstva 1"
     inkscape:groupmode="layer"
     id="layer1"
     transform="translate(0,-28.362161)">
    <path
       style="color:#000000;font-style:normal;font-variant:normal;font-weight:normal;font-stretch:normal;font-size:medium;line-height:normal;font-family:sans-serif;font-variant-ligatures:normal;font-variant-position:normal;font-variant-caps:normal;font-variant-numeric:normal;font-variant-alternates:normal;font-feature-settings:normal;text-indent:0;text-align:start;text-decoration:none;text-decoration-line:none;text-decoration-style:solid;text-decoration-color:#000000;letter-spacing:normal;word-spacing:normal;text-transform:none;writing-mode:lr-tb;direction:ltr;text-orientation:mixed;dominant-baseline:auto;baseline-shift:baseline;text-anchor:start;white-space:normal;shape-padding:0;clip-rule:nonzero;display:inline;overflow:visible;visibility:visible;opacity:1;isolation:auto;mix-blend-mode:normal;color-interpolation:sRGB;color-interpolation-filters:linearRGB;solid-color:#000000;solid-opacity:1;vector-effect:none;fill:#000000;fill-opacity:1;fill-rule:nonzero;stroke:none;stroke-width:28.64866066;stroke-linecap:butt;stroke-linejoin:miter;stroke-miterlimit:4;stroke-dasharray:none;stroke-dashoffset:0;stroke-opacity:1;color-rendering:auto;image-rendering:auto;shape-rendering:auto;text-rendering:auto;enable-background:accumulate"
       d="M 512 0 C 502.74944 0 493.42889 3.6446469 486.64453 9.9355469 L 331.17773 154.09766 C 324.39343 160.38869 320 169.74147 320 179.08203 C 320 188.42259 324.39343 197.77539 331.17773 204.06641 C 337.96213 210.35754 347.28446 214 356.53516 214 L 667.4668 214 C 676.7174 214 686.03792 210.35746 692.82227 204.06641 C 699.60658 197.77534 704 188.42259 704 179.08203 C 704 169.74147 699.60663 160.38869 692.82227 154.09766 L 537.35547 9.9355469 C 530.57111 3.6446469 521.25056 7.1054274e-015 512 0 z M 512 28.650391 C 514.77957 28.650391 515.87007 29.082459 517.87695 30.943359 L 673.34375 175.10547 C 675.35064 176.96642 675.35156 177.26721 675.35156 179.08203 C 675.35156 180.89684 675.35069 181.19756 673.34375 183.05859 C 671.33687 184.91955 670.24632 185.35156 667.4668 185.35156 L 356.53516 185.35156 C 353.75566 185.35156 352.6651 184.91959 350.6582 183.05859 C 348.6513 181.19763 348.64844 180.89684 348.64844 179.08203 C 348.64844 177.26721 348.6484 176.96642 350.6582 175.10547 L 506.125 30.943359 C 508.13188 29.082459 509.22044 28.650391 512 28.650391 z M 179.08203 319.90039 C 169.74147 319.90039 160.38869 324.29377 154.09766 331.07812 L 9.9355469 486.54492 C 3.6446469 493.32928 -3.5527137e-015 502.64983 0 511.90039 C 0 521.15095 3.6446469 530.4715 9.9355469 537.25586 L 154.09766 692.72266 C 160.38869 699.50702 169.74147 703.90039 179.08203 703.90039 C 188.42259 703.90039 197.77539 699.50702 204.06641 692.72266 C 210.35754 685.93833 214 676.61589 214 667.36523 L 214 356.43359 C 214 347.18299 210.35745 337.86248 204.06641 331.07812 C 197.77534 324.29381 188.42259 319.90039 179.08203 319.90039 z M 844.91797 320 C 835.57741 320 826.22461 324.39343 819.93359 331.17773 C 813.64246 337.96213 810 347.28446 810 356.53516 L 810 667.4668 C 810 676.7174 813.64254 686.03792 819.93359 692.82227 C 826.22466 699.60658 835.57741 704 844.91797 704 C 854.25853 704 863.61131 699.60663 869.90234 692.82227 L 1014.0645 537.35547 C 1020.3555 530.57111 1024 521.25056 1024 512 C 1024 502.74944 1020.3555 493.42889 1014.0645 486.64453 L 869.90234 331.17773 C 863.61131 324.39343 854.25853 320 844.91797 320 z M 179.08203 348.54883 C 180.89684 348.54883 181.19756 348.5497 183.05859 350.55664 C 184.91954 352.56352 185.35156 353.65407 185.35156 356.43359 L 185.35156 667.36523 C 185.35156 670.14471 184.91958 671.23529 183.05859 673.24219 C 181.19763 675.24908 180.89684 675.25195 179.08203 675.25195 C 177.26721 675.25195 176.96642 675.24895 175.10547 673.24219 L 30.943359 517.77539 C 29.082459 515.76851 28.650391 514.67995 28.650391 511.90039 C 28.650391 509.12082 29.082459 508.03032 30.943359 506.02344 L 175.10547 350.55664 C 176.96642 348.54975 177.26721 348.54883 179.08203 348.54883 z M 844.91797 348.64844 C 846.73279 348.64844 847.03358 348.64851 848.89453 350.6582 L 993.05664 506.125 C 994.91754 508.13188 995.34961 509.22044 995.34961 512 C 995.34961 514.77957 994.91754 515.87007 993.05664 517.87695 L 848.89453 673.34375 C 847.03358 675.35064 846.73279 675.35156 844.91797 675.35156 C 843.10316 675.35156 842.80244 675.35069 840.94141 673.34375 C 839.08045 671.33687 838.64844 670.24632 838.64844 667.4668 L 838.64844 356.53516 C 838.64844 353.75566 839.08041 352.6651 840.94141 350.6582 C 842.80237 348.6513 843.10316 348.64844 844.91797 348.64844 z M 512 384 A 128 128 0 0 0 384 512 A 128 128 0 0 0 512 640 A 128 128 0 0 0 640 512 A 128 128 0 0 0 512 384 z M 344 810 C 337.49999 810 331.875 812.35259 327.125 817.05859 C 322.375 821.76466 320 827.33754 320 833.77734 C 320 840.21714 322.375 845.79009 327.125 850.49609 L 495.125 1016.9414 C 499.875 1021.6473 505.5 1024 512 1024 C 518.5 1024 524.125 1021.6473 528.875 1016.9414 L 696.875 850.49609 C 701.625 845.79009 704 840.21714 704 833.77734 C 704 827.33754 701.625 821.76459 696.875 817.05859 C 692.125 812.35253 686.5 810 680 810 L 344 810 z "
       transform="translate(0,28.362161)"
       id="path6-6-1-9" />
  </g>
</svg>
