<?xml version="1.0" encoding="UTF-8" standalone="no"?>
<!-- Created with Inkscape (http://www.inkscape.org/) -->

<svg
   xmlns:dc="http://purl.org/dc/elements/1.1/"
   xmlns:cc="http://creativecommons.org/ns#"
   xmlns:rdf="http://www.w3.org/1999/02/22-rdf-syntax-ns#"
   xmlns:svg="http://www.w3.org/2000/svg"
   xmlns="http://www.w3.org/2000/svg"
   xmlns:sodipodi="http://sodipodi.sourceforge.net/DTD/sodipodi-0.dtd"
   xmlns:inkscape="http://www.inkscape.org/namespaces/inkscape"
   width="1024"
   height="1024"
   viewBox="0 0 1024 1024"
   id="svg3353"
   version="1.1"
   inkscape:version="0.92.1 r15371"
   sodipodi:docname="move-left.svg">
  <defs
     id="defs3355" />
  <sodipodi:namedview
     id="base"
     pagecolor="#ffffff"
     bordercolor="#666666"
     borderopacity="1.0"
     inkscape:pageopacity="0.0"
     inkscape:pageshadow="2"
     inkscape:zoom="0.24748737"
     inkscape:cx="-1108.5101"
     inkscape:cy="1409.7046"
     inkscape:document-units="px"
     inkscape:current-layer="layer1"
     showgrid="false"
     units="px"
     showguides="true"
     inkscape:guide-bbox="true"
     inkscape:window-width="1920"
     inkscape:window-height="1001"
     inkscape:window-x="-9"
     inkscape:window-y="-9"
     inkscape:window-maximized="1">
    <sodipodi:guide
       position="0,512"
       orientation="0,1"
       id="guide3361"
       inkscape:label=""
       inkscape:color="rgb(0,0,255)"
       inkscape:locked="false" />
    <sodipodi:guide
       position="0,128"
       orientation="0,1"
       id="guide3363"
       inkscape:label=""
       inkscape:color="rgb(0,0,255)"
       inkscape:locked="false" />
    <sodipodi:guide
       position="0,256"
       orientation="0,1"
       id="guide3365"
       inkscape:label=""
       inkscape:color="rgb(0,0,255)"
       inkscape:locked="false" />
    <sodipodi:guide
       position="0,640"
       orientation="0,1"
       id="guide3367"
       inkscape:label=""
       inkscape:color="rgb(0,0,255)"
       inkscape:locked="false" />
    <sodipodi:guide
       position="0,384"
       orientation="0,1"
       id="guide3369"
       inkscape:label=""
       inkscape:color="rgb(0,0,255)"
       inkscape:locked="false" />
    <sodipodi:guide
       position="0,768"
       orientation="0,1"
       id="guide3371"
       inkscape:label=""
       inkscape:color="rgb(0,0,255)"
       inkscape:locked="false" />
    <sodipodi:guide
       position="0,896"
       orientation="0,1"
       id="guide3373"
       inkscape:label=""
       inkscape:color="rgb(0,0,255)"
       inkscape:locked="false" />
    <sodipodi:guide
       position="896,0"
       orientation="1,0"
       id="guide3375"
       inkscape:label=""
       inkscape:color="rgb(0,0,255)"
       inkscape:locked="false" />
    <sodipodi:guide
       position="128,0"
       orientation="1,0"
       id="guide3377"
       inkscape:label=""
       inkscape:color="rgb(0,0,255)"
       inkscape:locked="false" />
    <sodipodi:guide
       position="256,0"
       orientation="1,0"
       id="guide3379"
       inkscape:label=""
       inkscape:color="rgb(0,0,255)"
       inkscape:locked="false" />
    <sodipodi:guide
       position="384,0"
       orientation="1,0"
       id="guide3383"
       inkscape:label=""
       inkscape:color="rgb(0,0,255)"
       inkscape:locked="false" />
    <sodipodi:guide
       position="512,0"
       orientation="1,0"
       id="guide3385"
       inkscape:label=""
       inkscape:color="rgb(0,0,255)"
       inkscape:locked="false" />
    <sodipodi:guide
       position="640,0"
       orientation="1,0"
       id="guide3387"
       inkscape:label=""
       inkscape:color="rgb(0,0,255)"
       inkscape:locked="false" />
    <sodipodi:guide
       position="768,0"
       orientation="1,0"
       id="guide3389"
       inkscape:label=""
       inkscape:color="rgb(0,0,255)"
       inkscape:locked="false" />
  </sodipodi:namedview>
  <metadata
     id="metadata3358">
    <rdf:RDF>
      <cc:Work
         rdf:about="">
        <dc:format>image/svg+xml</dc:format>
        <dc:type
           rdf:resource="http://purl.org/dc/dcmitype/StillImage" />
        <dc:title />
      </cc:Work>
    </rdf:RDF>
  </metadata>
  <g
     inkscape:label="Vrstva 1"
     inkscape:groupmode="layer"
     id="layer1"
     transform="translate(0,-28.362161)">
    <path
       style="color:#000000;font-style:normal;font-variant:normal;font-weight:normal;font-stretch:normal;font-size:medium;line-height:normal;font-family:sans-serif;font-variant-ligatures:normal;font-variant-position:normal;font-variant-caps:normal;font-variant-numeric:normal;font-variant-alternates:normal;font-feature-settings:normal;text-indent:0;text-align:start;text-decoration:none;text-decoration-line:none;text-decoration-style:solid;text-decoration-color:#000000;letter-spacing:normal;word-spacing:normal;text-transform:none;writing-mode:lr-tb;direction:ltr;text-orientation:mixed;dominant-baseline:auto;baseline-shift:baseline;text-anchor:start;white-space:normal;shape-padding:0;clip-rule:nonzero;display:inline;overflow:visible;visibility:visible;opacity:1;isolation:auto;mix-blend-mode:normal;color-interpolation:sRGB;color-interpolation-filters:linearRGB;solid-color:#000000;solid-opacity:1;vector-effect:none;fill:#000000;fill-opacity:1;fill-rule:nonzero;stroke:none;stroke-width:28.64866066;stroke-linecap:butt;stroke-linejoin:miter;stroke-miterlimit:4;stroke-dasharray:none;stroke-dashoffset:0;stroke-opacity:1;color-rendering:auto;image-rendering:auto;shape-rendering:auto;text-rendering:auto;enable-background:accumulate"
       d="M 512.09961 0 C 502.84905 0 493.5285 3.6445909 486.74414 9.9355469 L 331.27734 154.09766 C 324.49298 160.38869 320.09961 169.74147 320.09961 179.08203 C 320.09961 188.42259 324.49298 197.77539 331.27734 204.06641 C 338.06167 210.35754 347.38411 214 356.63477 214 L 667.56641 214 C 676.81701 214 686.13753 210.35746 692.92188 204.06641 C 699.70619 197.77534 704.09961 188.42259 704.09961 179.08203 C 704.09961 169.74147 699.70623 160.38869 692.92188 154.09766 L 537.45508 9.9355469 C 530.67072 3.6445889 521.35017 0 512.09961 0 z M 512.09961 28.650391 C 514.87918 28.650391 515.96968 29.082434 517.97656 30.943359 L 673.44336 175.10547 C 675.45025 176.96642 675.45117 177.26721 675.45117 179.08203 C 675.45117 180.89684 675.4503 181.19756 673.44336 183.05859 C 671.43648 184.91955 670.34593 185.35156 667.56641 185.35156 L 356.63477 185.35156 C 353.85529 185.35156 352.76471 184.91959 350.75781 183.05859 C 348.75092 181.19763 348.74805 180.89684 348.74805 179.08203 C 348.74805 177.26721 348.75105 176.96642 350.75781 175.10547 L 506.22461 30.943359 C 508.23149 29.082431 509.32005 28.650391 512.09961 28.650391 z M 190.22266 320 C 183.78286 320 178.20991 322.375 173.50391 327.125 L 7.0585938 495.125 C 2.3526604 499.875 0 505.5 0 512 C 0 518.5 2.3526604 524.125 7.0585938 528.875 L 173.50391 696.875 C 178.20991 701.625 183.78286 704 190.22266 704 C 196.66246 704 202.23541 701.625 206.94141 696.875 C 211.64747 692.125 214 686.5 214 680 L 214 344 C 214 337.49999 211.64741 331.875 206.94141 327.125 C 202.23534 322.375 196.66246 320 190.22266 320 z M 844.91797 320 C 835.57741 320 826.22461 324.39337 819.93359 331.17773 C 813.64246 337.96206 810 347.2845 810 356.53516 L 810 667.4668 C 810 676.7174 813.64254 686.03792 819.93359 692.82227 C 826.22466 699.60658 835.57741 704 844.91797 704 C 854.25853 704 863.61131 699.60663 869.90234 692.82227 L 1014.0645 537.35547 C 1020.3554 530.57111 1024 521.25056 1024 512 C 1024 502.74944 1020.3554 493.42889 1014.0645 486.64453 L 869.90234 331.17773 C 863.61131 324.39337 854.25853 320 844.91797 320 z M 844.91797 348.64844 C 846.73279 348.64844 847.03358 348.65144 848.89453 350.6582 L 993.05664 506.125 C 994.91757 508.13188 995.34961 509.22044 995.34961 512 C 995.34961 514.77957 994.91756 515.87007 993.05664 517.87695 L 848.89453 673.34375 C 847.03358 675.35064 846.73279 675.35156 844.91797 675.35156 C 843.10316 675.35156 842.80244 675.35069 840.94141 673.34375 C 839.08045 671.33687 838.64844 670.24632 838.64844 667.4668 L 838.64844 356.53516 C 838.64844 353.75568 839.08041 352.6651 840.94141 350.6582 C 842.80237 348.65131 843.10316 348.64844 844.91797 348.64844 z M 512 384 A 128 128 0 0 0 384 512 A 128 128 0 0 0 512 640 A 128 128 0 0 0 640 512 A 128 128 0 0 0 512 384 z M 356.5332 810 C 347.2826 810 337.96208 813.64254 331.17773 819.93359 C 324.39342 826.22466 320 835.57741 320 844.91797 C 320 854.25853 324.39337 863.61131 331.17773 869.90234 L 486.64453 1014.0645 C 493.42889 1020.3555 502.74944 1024 512 1024 C 521.25056 1024 530.57111 1020.3555 537.35547 1014.0645 L 692.82227 869.90234 C 699.60663 863.61131 704 854.25853 704 844.91797 C 704 835.57741 699.60663 826.22461 692.82227 819.93359 C 686.03794 813.64246 676.7155 810 667.46484 810 L 356.5332 810 z M 356.5332 838.64844 L 667.46484 838.64844 C 670.24432 838.64844 671.3349 839.08041 673.3418 840.94141 C 675.34869 842.80237 675.35156 843.10316 675.35156 844.91797 C 675.35156 846.73279 675.34856 847.03358 673.3418 848.89453 L 517.875 993.05664 C 515.86812 994.91754 514.77956 995.34961 512 995.34961 C 509.22043 995.34961 508.12993 994.91754 506.12305 993.05664 L 350.65625 848.89453 C 348.64936 847.03358 348.64844 846.73279 348.64844 844.91797 C 348.64844 843.10316 348.64931 842.80244 350.65625 840.94141 C 352.66313 839.08045 353.75368 838.64844 356.5332 838.64844 z "
       transform="translate(0,28.362161)"
       id="path6-6-1" />
  </g>
</svg>
