<?xml version="1.0" encoding="UTF-8" standalone="no"?>
<!-- Created with Inkscape (http://www.inkscape.org/) -->

<svg
   xmlns:dc="http://purl.org/dc/elements/1.1/"
   xmlns:cc="http://creativecommons.org/ns#"
   xmlns:rdf="http://www.w3.org/1999/02/22-rdf-syntax-ns#"
   xmlns:svg="http://www.w3.org/2000/svg"
   xmlns="http://www.w3.org/2000/svg"
   xmlns:sodipodi="http://sodipodi.sourceforge.net/DTD/sodipodi-0.dtd"
   xmlns:inkscape="http://www.inkscape.org/namespaces/inkscape"
   width="1024"
   height="1024"
   viewBox="0 0 1024 1024"
   id="svg3353"
   version="1.1"
   inkscape:version="0.92.1 r15371"
   sodipodi:docname="move-right.svg">
  <defs
     id="defs3355" />
  <sodipodi:namedview
     id="base"
     pagecolor="#ffffff"
     bordercolor="#666666"
     borderopacity="1.0"
     inkscape:pageopacity="0.0"
     inkscape:pageshadow="2"
     inkscape:zoom="0.24748737"
     inkscape:cx="-443.82973"
     inkscape:cy="1409.7046"
     inkscape:document-units="px"
     inkscape:current-layer="layer1"
     showgrid="false"
     units="px"
     showguides="true"
     inkscape:guide-bbox="true"
     inkscape:window-width="1920"
     inkscape:window-height="1001"
     inkscape:window-x="-9"
     inkscape:window-y="-9"
     inkscape:window-maximized="1">
    <sodipodi:guide
       position="0,512"
       orientation="0,1"
       id="guide3361"
       inkscape:label=""
       inkscape:color="rgb(0,0,255)"
       inkscape:locked="false" />
    <sodipodi:guide
       position="0,128"
       orientation="0,1"
       id="guide3363"
       inkscape:label=""
       inkscape:color="rgb(0,0,255)"
       inkscape:locked="false" />
    <sodipodi:guide
       position="0,256"
       orientation="0,1"
       id="guide3365"
       inkscape:label=""
       inkscape:color="rgb(0,0,255)"
       inkscape:locked="false" />
    <sodipodi:guide
       position="0,640"
       orientation="0,1"
       id="guide3367"
       inkscape:label=""
       inkscape:color="rgb(0,0,255)"
       inkscape:locked="false" />
    <sodipodi:guide
       position="0,384"
       orientation="0,1"
       id="guide3369"
       inkscape:label=""
       inkscape:color="rgb(0,0,255)"
       inkscape:locked="false" />
    <sodipodi:guide
       position="0,768"
       orientation="0,1"
       id="guide3371"
       inkscape:label=""
       inkscape:color="rgb(0,0,255)"
       inkscape:locked="false" />
    <sodipodi:guide
       position="0,896"
       orientation="0,1"
       id="guide3373"
       inkscape:label=""
       inkscape:color="rgb(0,0,255)"
       inkscape:locked="false" />
    <sodipodi:guide
       position="896,0"
       orientation="1,0"
       id="guide3375"
       inkscape:label=""
       inkscape:color="rgb(0,0,255)"
       inkscape:locked="false" />
    <sodipodi:guide
       position="128,0"
       orientation="1,0"
       id="guide3377"
       inkscape:label=""
       inkscape:color="rgb(0,0,255)"
       inkscape:locked="false" />
    <sodipodi:guide
       position="256,0"
       orientation="1,0"
       id="guide3379"
       inkscape:label=""
       inkscape:color="rgb(0,0,255)"
       inkscape:locked="false" />
    <sodipodi:guide
       position="384,0"
       orientation="1,0"
       id="guide3383"
       inkscape:label=""
       inkscape:color="rgb(0,0,255)"
       inkscape:locked="false" />
    <sodipodi:guide
       position="512,0"
       orientation="1,0"
       id="guide3385"
       inkscape:label=""
       inkscape:color="rgb(0,0,255)"
       inkscape:locked="false" />
    <sodipodi:guide
       position="640,0"
       orientation="1,0"
       id="guide3387"
       inkscape:label=""
       inkscape:color="rgb(0,0,255)"
       inkscape:locked="false" />
    <sodipodi:guide
       position="768,0"
       orientation="1,0"
       id="guide3389"
       inkscape:label=""
       inkscape:color="rgb(0,0,255)"
       inkscape:locked="false" />
  </sodipodi:namedview>
  <metadata
     id="metadata3358">
    <rdf:RDF>
      <cc:Work
         rdf:about="">
        <dc:format>image/svg+xml</dc:format>
        <dc:type
           rdf:resource="http://purl.org/dc/dcmitype/StillImage" />
        <dc:title></dc:title>
      </cc:Work>
    </rdf:RDF>
  </metadata>
  <g
     inkscape:label="Vrstva 1"
     inkscape:groupmode="layer"
     id="layer1"
     transform="translate(0,-28.362161)">
    <path
       id="path6-6-1-9"
       style="color:#000000;font-style:normal;font-variant:normal;font-weight:normal;font-stretch:normal;font-size:medium;line-height:normal;font-family:sans-serif;font-variant-ligatures:normal;font-variant-position:normal;font-variant-caps:normal;font-variant-numeric:normal;font-variant-alternates:normal;font-feature-settings:normal;text-indent:0;text-align:start;text-decoration:none;text-decoration-line:none;text-decoration-style:solid;text-decoration-color:#000000;letter-spacing:normal;word-spacing:normal;text-transform:none;writing-mode:lr-tb;direction:ltr;text-orientation:mixed;dominant-baseline:auto;baseline-shift:baseline;text-anchor:start;white-space:normal;shape-padding:0;clip-rule:nonzero;display:inline;overflow:visible;visibility:visible;opacity:1;isolation:auto;mix-blend-mode:normal;color-interpolation:sRGB;color-interpolation-filters:linearRGB;solid-color:#000000;solid-opacity:1;vector-effect:none;fill:#000000;fill-opacity:1;fill-rule:nonzero;stroke:none;stroke-width:28.64866066;stroke-linecap:butt;stroke-linejoin:miter;stroke-miterlimit:4;stroke-dasharray:none;stroke-dashoffset:0;stroke-opacity:1;color-rendering:auto;image-rendering:auto;shape-rendering:auto;text-rendering:auto;enable-background:accumulate"
       d="m 512.00001,28.361365 c -9.25056,0 -18.57111,3.6446 -25.35547,9.9356 L 331.17769,182.45904 c -6.7843,6.29103 -11.1777,15.64382 -11.1777,24.98438 0,9.34056 4.3934,18.69335 11.1777,24.98437 6.7844,6.29113 16.1068,9.9336 25.3575,9.9336 h 310.93162 c 9.2506,0 18.57112,-3.64255 25.35547,-9.9336 6.78431,-6.29107 11.17773,-15.64381 11.17773,-24.98437 0,-9.34056 -4.39337,-18.69335 -11.17773,-24.98438 L 537.35548,38.296965 c -6.78436,-6.291 -16.10491,-9.9356 -25.35547,-9.9356 z m 0,28.6504 c 2.77957,0 3.87007,0.4321 5.87695,2.293 l 155.4668,144.162095 c 2.00689,1.86095 2.00781,2.16174 2.00781,3.97656 0,1.81481 -8.7e-4,2.11553 -2.00781,3.97656 -2.00688,1.86096 -3.09743,2.29297 -5.87695,2.29297 H 356.53519 c -2.7795,0 -3.8701,-0.43197 -5.877,-2.29297 -2.0069,-1.86096 -2.00969,-2.16175 -2.00969,-3.97656 0,-1.81482 0,-2.11561 2.00969,-3.97656 L 506.12501,59.304765 c 2.00688,-1.8609 3.09544,-2.293 5.875,-2.293 z M -3.5e-5,540.3614 c 0,9.25056 3.6446,18.57111 9.9355,25.35547 L 154.09765,721.1837 c 6.29103,6.7843 15.64382,11.1777 24.98438,11.1777 9.34056,0 18.69335,-4.3934 24.98437,-11.1777 C 210.35753,714.3993 214,705.0769 214,695.8262 V 384.8946 c 0,-9.2506 -3.64255,-18.57112 -9.9336,-25.35547 -6.29107,-6.78431 -15.64381,-11.17773 -24.98437,-11.17773 -9.34056,0 -18.69335,4.39337 -24.98438,11.17773 L 9.935465,515.00593 c -6.2909,6.78436 -9.9355,16.10491 -9.9355,25.35547 z m 28.6504,0 c 0,-2.77957 0.4321,-3.87007 2.293,-5.87695 L 175.10547,379.01765 c 1.86095,-2.00689 2.16174,-2.00781 3.97656,-2.00781 1.81481,0 2.11553,8.7e-4 3.97656,2.00781 1.86096,2.00688 2.29297,3.09743 2.29297,5.87695 v 310.9316 c 0,2.7795 -0.43197,3.8701 -2.29297,5.877 -1.86096,2.0069 -2.16175,2.0098 -3.97656,2.0098 -1.81482,0 -2.11561,0 -3.97656,-2.0098 L 30.943365,546.2364 c -1.8609,-2.00688 -2.293,-3.09544 -2.293,-5.875 z M 384,540.36138 a 128,128 0 0 1 128,-128 128,128 0 0 1 128,128 128,128 0 0 1 -128,128 128,128 0 0 1 -128,-128 z M 833.7778,348.3614 q 9.6597,0 16.7187,7.125 l 166.4446,168 q 7.0589,7.125 7.0589,16.875 0,9.75 -7.0589,16.875 l -166.4446,168 q -7.059,7.125 -16.7187,7.125 -9.6597,0 -16.7188,-7.125 Q 810,718.1114 810,708.36139 V 372.3614 q 0,-9.75 7.0591,-16.875 7.059,-7.125 16.7187,-7.125 z m -321.87741,704.0008 c 9.25056,0 18.57111,-3.6446 25.35547,-9.9355 l 155.4668,-144.16212 c 6.78436,-6.29103 11.17773,-15.64382 11.17773,-24.98438 0,-9.34056 -4.39337,-18.69335 -11.17773,-24.98437 -6.78433,-6.29113 -16.10677,-9.9336 -25.35743,-9.9336 H 356.43359 c -9.2506,0 -18.57112,3.64255 -25.35547,9.9336 -6.78431,6.29107 -11.17773,15.64381 -11.17773,24.98437 0,9.34056 4.39337,18.69335 11.17773,24.98438 l 155.4668,144.16212 c 6.78436,6.2909 16.10491,9.9355 25.35547,9.9355 z m 0,-28.6504 c -2.77957,0 -3.87007,-0.432 -5.87695,-2.2929 L 350.55664,877.25676 c -2.00689,-1.86095 -2.00781,-2.16174 -2.00781,-3.97656 0,-1.81481 8.7e-4,-2.11553 2.00781,-3.97656 2.00688,-1.86096 3.09743,-2.29297 5.87695,-2.29297 h 310.93164 c 2.77948,0 3.87006,0.43197 5.87696,2.29297 2.00689,1.86096 2.00976,2.16175 2.00976,3.97656 0,1.81482 -0.003,2.11561 -2.00976,3.97656 l -155.4668,144.16214 c -2.00688,1.8609 -3.09544,2.2929 -5.875,2.2929 z"
       inkscape:connector-curvature="0" />
  </g>
</svg>
