<?xml version="1.0" encoding="UTF-8" standalone="no"?>
<!-- Created with Inkscape (http://www.inkscape.org/) -->

<svg
   xmlns:dc="http://purl.org/dc/elements/1.1/"
   xmlns:cc="http://creativecommons.org/ns#"
   xmlns:rdf="http://www.w3.org/1999/02/22-rdf-syntax-ns#"
   xmlns:svg="http://www.w3.org/2000/svg"
   xmlns="http://www.w3.org/2000/svg"
   xmlns:sodipodi="http://sodipodi.sourceforge.net/DTD/sodipodi-0.dtd"
   xmlns:inkscape="http://www.inkscape.org/namespaces/inkscape"
   width="1024"
   height="1024"
   viewBox="0 0 1024 1024"
   id="svg3353"
   version="1.1"
   inkscape:version="0.91 r13725"
   sodipodi:docname="relation-link.svg">
  <defs
     id="defs3355" />
  <sodipodi:namedview
     id="base"
     pagecolor="#ffffff"
     bordercolor="#666666"
     borderopacity="1.0"
     inkscape:pageopacity="0.0"
     inkscape:pageshadow="2"
     inkscape:zoom="0.1767767"
     inkscape:cx="197.38008"
     inkscape:cy="312.75008"
     inkscape:document-units="px"
     inkscape:current-layer="layer1"
     showgrid="false"
     units="px"
     showguides="true"
     inkscape:guide-bbox="true"
     inkscape:window-width="1536"
     inkscape:window-height="801"
     inkscape:window-x="-8"
     inkscape:window-y="-8"
     inkscape:window-maximized="1">
    <sodipodi:guide
       position="0,512"
       orientation="0,1"
       id="guide3361"
       inkscape:label=""
       inkscape:color="rgb(0,0,255)" />
    <sodipodi:guide
       position="0,128"
       orientation="0,1"
       id="guide3363"
       inkscape:label=""
       inkscape:color="rgb(0,0,255)" />
    <sodipodi:guide
       position="0,256"
       orientation="0,1"
       id="guide3365"
       inkscape:label=""
       inkscape:color="rgb(0,0,255)" />
    <sodipodi:guide
       position="0,640"
       orientation="0,1"
       id="guide3367"
       inkscape:label=""
       inkscape:color="rgb(0,0,255)" />
    <sodipodi:guide
       position="0,384"
       orientation="0,1"
       id="guide3369"
       inkscape:label=""
       inkscape:color="rgb(0,0,255)" />
    <sodipodi:guide
       position="0,768"
       orientation="0,1"
       id="guide3371"
       inkscape:label=""
       inkscape:color="rgb(0,0,255)" />
    <sodipodi:guide
       position="0,896"
       orientation="0,1"
       id="guide3373"
       inkscape:label=""
       inkscape:color="rgb(0,0,255)" />
    <sodipodi:guide
       position="896,0"
       orientation="1,0"
       id="guide3375"
       inkscape:label=""
       inkscape:color="rgb(0,0,255)" />
    <sodipodi:guide
       position="128,0"
       orientation="1,0"
       id="guide3377"
       inkscape:label=""
       inkscape:color="rgb(0,0,255)" />
    <sodipodi:guide
       position="256,0"
       orientation="1,0"
       id="guide3379"
       inkscape:label=""
       inkscape:color="rgb(0,0,255)" />
    <sodipodi:guide
       position="384,0"
       orientation="1,0"
       id="guide3383"
       inkscape:label=""
       inkscape:color="rgb(0,0,255)" />
    <sodipodi:guide
       position="512,0"
       orientation="1,0"
       id="guide3385"
       inkscape:label=""
       inkscape:color="rgb(0,0,255)" />
    <sodipodi:guide
       position="640,0"
       orientation="1,0"
       id="guide3387"
       inkscape:label=""
       inkscape:color="rgb(0,0,255)" />
    <sodipodi:guide
       position="768,0"
       orientation="1,0"
       id="guide3389"
       inkscape:label=""
       inkscape:color="rgb(0,0,255)" />
  </sodipodi:namedview>
  <metadata
     id="metadata3358">
    <rdf:RDF>
      <cc:Work
         rdf:about="">
        <dc:format>image/svg+xml</dc:format>
        <dc:type
           rdf:resource="http://purl.org/dc/dcmitype/StillImage" />
        <dc:title></dc:title>
      </cc:Work>
    </rdf:RDF>
  </metadata>
  <g
     inkscape:label="Vrstva 1"
     inkscape:groupmode="layer"
     id="layer1"
     transform="translate(0,-28.362161)">
    <g
       transform="matrix(2.1974249,0,0,-2.1974249,-50.540773,1142.4566)"
       id="g4">
      <path
         style="fill:currentColor"
         inkscape:connector-curvature="0"
         d="m 434,165 c 0,7 -2,14 -8,19 l -59,59 c -5,6 -12,8 -20,8 -8,0 -14,-3 -20,-9 l 5,-5 6,-6 c 0,0 3,-3 5,-6 2,-2 3,-4 3,-7 1,-2 1,-5 1,-8 0,-7 -2,-14 -8,-19 -5,-5 -11,-8 -19,-8 -3,0 -5,0 -8,1 -2,1 -5,2 -7,4 -3,1 -4,3 -6,4 l -6,6 c 0,0 -4,5 -5,5 -6,-5 -9,-12 -9,-20 0,-8 2,-15 8,-20 l 58,-59 c 6,-5 12,-8 20,-8 7,0 14,3 19,8 l 42,41 c 6,6 8,12 8,20 z M 233,366 c 0,8 -2,14 -8,19 l -58,60 c -6,5 -12,8 -20,8 -7,0 -14,-3 -19,-8 L 86,403 c -6,-5 -8,-12 -8,-19 0,-8 2,-14 8,-19 l 59,-60 c 5,-5 12,-8 20,-8 8,0 14,3 20,9 0,1 -2,3 -5,6 l -6,6 -5,5 c -2,3 -3,5 -3,7 -1,3 -1,5 -1,8 0,8 2,14 8,20 5,5 11,8 19,8 3,0 5,-1 8,-1 2,-1 5,-2 7,-4 3,-2 4,-3 6,-4 l 6,-6 c 0,0 4,-5 5,-6 6,6 9,13 9,21 z M 489,165 c 0,-23 -8,-43 -24,-58 L 423,65 C 407,49 388,41 365,41 c -23,0 -43,8 -58,24 l -59,60 c -16,15 -24,35 -24,58 0,23 8,43 25,59 l -25,25 c -16,-16 -36,-25 -59,-25 -23,0 -43,8 -59,24 l -59,60 c -16,16 -24,35 -24,58 0,23 8,42 24,58 l 42,42 c 16,16 35,23 58,23 23,0 43,-8 58,-24 l 59,-59 c 16,-16 24,-35 24,-58 0,-23 -8,-43 -25,-60 l 25,-25 c 16,17 36,25 59,25 23,0 43,-8 59,-24 l 59,-59 c 16,-16 24,-36 24,-58 z"
         id="path6" />
    </g>
  </g>
</svg>
