<?xml version="1.0" encoding="UTF-8" standalone="no"?>
<!-- Created with Inkscape (http://www.inkscape.org/) -->

<svg
   xmlns:dc="http://purl.org/dc/elements/1.1/"
   xmlns:cc="http://creativecommons.org/ns#"
   xmlns:rdf="http://www.w3.org/1999/02/22-rdf-syntax-ns#"
   xmlns:svg="http://www.w3.org/2000/svg"
   xmlns="http://www.w3.org/2000/svg"
   xmlns:sodipodi="http://sodipodi.sourceforge.net/DTD/sodipodi-0.dtd"
   xmlns:inkscape="http://www.inkscape.org/namespaces/inkscape"
   width="1024"
   height="1024"
   viewBox="0 0 1024 1024"
   id="svg3353"
   version="1.1"
   inkscape:version="0.91 r13725"
   sodipodi:docname="remove-polygon.svg">
  <defs
     id="defs3355" />
  <sodipodi:namedview
     id="base"
     pagecolor="#ffffff"
     bordercolor="#666666"
     borderopacity="1.0"
     inkscape:pageopacity="0.0"
     inkscape:pageshadow="2"
     inkscape:zoom="0.49497475"
     inkscape:cx="400.25061"
     inkscape:cy="443.87201"
     inkscape:document-units="px"
     inkscape:current-layer="layer1"
     showgrid="false"
     units="px"
     showguides="true"
     inkscape:guide-bbox="true"
     inkscape:window-width="1536"
     inkscape:window-height="801"
     inkscape:window-x="-8"
     inkscape:window-y="-8"
     inkscape:window-maximized="1">
    <sodipodi:guide
       position="0,512"
       orientation="0,1"
       id="guide3361"
       inkscape:label=""
       inkscape:color="rgb(0,0,255)" />
    <sodipodi:guide
       position="0,128"
       orientation="0,1"
       id="guide3363"
       inkscape:label=""
       inkscape:color="rgb(0,0,255)" />
    <sodipodi:guide
       position="0,256"
       orientation="0,1"
       id="guide3365"
       inkscape:label=""
       inkscape:color="rgb(0,0,255)" />
    <sodipodi:guide
       position="0,640"
       orientation="0,1"
       id="guide3367"
       inkscape:label=""
       inkscape:color="rgb(0,0,255)" />
    <sodipodi:guide
       position="0,384"
       orientation="0,1"
       id="guide3369"
       inkscape:label=""
       inkscape:color="rgb(0,0,255)" />
    <sodipodi:guide
       position="0,768"
       orientation="0,1"
       id="guide3371"
       inkscape:label=""
       inkscape:color="rgb(0,0,255)" />
    <sodipodi:guide
       position="0,896"
       orientation="0,1"
       id="guide3373"
       inkscape:label=""
       inkscape:color="rgb(0,0,255)" />
    <sodipodi:guide
       position="896,0"
       orientation="1,0"
       id="guide3375"
       inkscape:label=""
       inkscape:color="rgb(0,0,255)" />
    <sodipodi:guide
       position="128,0"
       orientation="1,0"
       id="guide3377"
       inkscape:label=""
       inkscape:color="rgb(0,0,255)" />
    <sodipodi:guide
       position="256,0"
       orientation="1,0"
       id="guide3379"
       inkscape:label=""
       inkscape:color="rgb(0,0,255)" />
    <sodipodi:guide
       position="384,0"
       orientation="1,0"
       id="guide3383"
       inkscape:label=""
       inkscape:color="rgb(0,0,255)" />
    <sodipodi:guide
       position="512,0"
       orientation="1,0"
       id="guide3385"
       inkscape:label=""
       inkscape:color="rgb(0,0,255)" />
    <sodipodi:guide
       position="640,0"
       orientation="1,0"
       id="guide3387"
       inkscape:label=""
       inkscape:color="rgb(0,0,255)" />
    <sodipodi:guide
       position="768,0"
       orientation="1,0"
       id="guide3389"
       inkscape:label=""
       inkscape:color="rgb(0,0,255)" />
  </sodipodi:namedview>
  <metadata
     id="metadata3358">
    <rdf:RDF>
      <cc:Work
         rdf:about="">
        <dc:format>image/svg+xml</dc:format>
        <dc:type
           rdf:resource="http://purl.org/dc/dcmitype/StillImage" />
        <dc:title></dc:title>
      </cc:Work>
    </rdf:RDF>
  </metadata>
  <g
     inkscape:label="Vrstva 1"
     inkscape:groupmode="layer"
     id="layer1"
     transform="translate(0,-28.362161)">
    <path
       d="m 753.84666,28.3622 c -80.48239,0 -145.72588,65.331705 -145.72588,145.92491 0.0448,1.347 0.13452,2.68951 0.2242,4.03427 L 300.82214,330.12144 c -26.57076,-23.50961 -60.78921,-36.51041 -96.24544,-36.56878 -80.48238,0 -145.725868,65.33171 -145.725868,145.92491 0.04484,54.01693 29.871786,103.59547 77.548138,128.86742 L 101.89422,756.40852 C 41.27136,775.55387 0.03609518,831.83823 0,895.49292 c 0,80.59096 65.24349,145.92498 145.72587,145.92498 59.58305,-0.023 113.14964,-36.3691 135.26051,-91.77337 l 276.69532,-81.3812 0,-95.89511 -273.58642,77.69715 C 270.58335,808.72372 239.35609,775.57183 198.92792,759.65254 L 231.1997,582.85891 c 69.00053,-12.83917 119.06073,-73.1039 119.10287,-143.38134 -0.0448,-8.44119 -0.82279,-16.86217 -2.32085,-25.16868 L 642.84883,268.7791 c 27.6776,32.61535 68.25934,51.41946 111.00231,51.43292 l 0.74432,0 31.74605,108.08546 96.42098,0 -35.86224,-141.45287 c -0.5986,0.42655 -1.27791,0.7184 -1.88323,1.14495 34.43839,-27.65389 54.50237,-69.44903 54.55954,-113.65306 0,-80.593205 -65.24371,-145.92491 -145.72587,-145.92491 z m 0,60.597003 c 47.06474,-0.009 85.22071,38.198647 85.21107,85.327907 0.01,47.12926 -38.14633,85.3369 -85.21107,85.32567 -47.06498,0.0112 -85.22094,-38.19641 -85.2113,-85.32567 -0.01,-47.12926 38.14632,-85.336887 85.2113,-85.327907 z M 204.57222,354.14966 c 47.06475,-0.009 85.22071,38.19865 85.21107,85.32791 0.01,47.12926 -38.14632,85.33689 -85.21107,85.32566 -47.06497,0.0112 -85.22094,-38.1964 -85.2113,-85.32566 -0.01,-47.12926 38.14633,-85.33689 85.2113,-85.32791 z m -58.85083,456.01536 c 47.06475,-0.009 85.22071,38.19865 85.21107,85.3279 0.01,47.12926 -38.14632,85.33689 -85.21107,85.32567 -47.064976,0.0112 -85.220941,-38.19641 -85.2113,-85.32567 -0.0096,-47.12925 38.146324,-85.33689 85.2113,-85.3279 z"
       id="path7"
       inkscape:connector-curvature="0"
       sodipodi:nodetypes="scccccccccccccccccccccccccsccccccccccccccc" />
    <path
       inkscape:connector-curvature="0"
       id="path15-6"
       d="m 911.90318,500.09254 -31.38711,-31.42998 -159.17749,0 -31.38711,31.42998 -112.09683,0 0,65.10496 446.14536,0 0,-65.10496 -112.09682,0 z m -224.19365,255.92985 44.83873,-44.89998 67.25809,69.59496 67.2581,-69.59496 44.83873,44.89998 -67.2581,69.59495 67.2581,69.59496 -44.83873,44.89997 -67.2581,-69.59495 -67.25809,69.59495 -44.83873,-44.89997 67.25809,-69.59496 -67.25809,-69.59495 z m -80.70971,231.23485 c 0,35.92006 29.14517,65.10496 62.77422,65.10496 l 257.82269,0 c 35.87099,0 62.77422,-29.1849 62.77422,-65.10496 l 0,-388.38476 -383.37113,0 0,388.38476 z"
       class="st0" />
  </g>
</svg>
