<?xml version="1.0" encoding="UTF-8" standalone="no"?>
<!-- Created with Inkscape (http://www.inkscape.org/) -->

<svg
   xmlns:dc="http://purl.org/dc/elements/1.1/"
   xmlns:cc="http://creativecommons.org/ns#"
   xmlns:rdf="http://www.w3.org/1999/02/22-rdf-syntax-ns#"
   xmlns:svg="http://www.w3.org/2000/svg"
   xmlns="http://www.w3.org/2000/svg"
   xmlns:sodipodi="http://sodipodi.sourceforge.net/DTD/sodipodi-0.dtd"
   xmlns:inkscape="http://www.inkscape.org/namespaces/inkscape"
   width="1024"
   height="1024"
   viewBox="0 0 1024 1024"
   id="svg3353"
   version="1.1"
   inkscape:version="0.92.1 r15371"
   sodipodi:docname="save-file.svg">
  <defs
     id="defs3355" />
  <sodipodi:namedview
     id="base"
     pagecolor="#ffffff"
     bordercolor="#666666"
     borderopacity="1.0"
     inkscape:pageopacity="0.0"
     inkscape:pageshadow="2"
     inkscape:zoom="0.31274414"
     inkscape:cx="-514.31842"
     inkscape:cy="686.25947"
     inkscape:document-units="px"
     inkscape:current-layer="layer1"
     showgrid="false"
     units="px"
     showguides="true"
     inkscape:guide-bbox="true"
     inkscape:window-width="1920"
     inkscape:window-height="1001"
     inkscape:window-x="-9"
     inkscape:window-y="-9"
     inkscape:window-maximized="1">
    <sodipodi:guide
       position="384,511.60031"
       orientation="0,1"
       id="guide3361"
       inkscape:label=""
       inkscape:color="rgb(0,0,255)"
       inkscape:locked="false" />
    <sodipodi:guide
       position="0,128"
       orientation="0,1"
       id="guide3363"
       inkscape:label=""
       inkscape:color="rgb(0,0,255)"
       inkscape:locked="false" />
    <sodipodi:guide
       position="0,256"
       orientation="0,1"
       id="guide3365"
       inkscape:label=""
       inkscape:color="rgb(0,0,255)"
       inkscape:locked="false" />
    <sodipodi:guide
       position="0,640"
       orientation="0,1"
       id="guide3367"
       inkscape:label=""
       inkscape:color="rgb(0,0,255)"
       inkscape:locked="false" />
    <sodipodi:guide
       position="0,384"
       orientation="0,1"
       id="guide3369"
       inkscape:label=""
       inkscape:color="rgb(0,0,255)"
       inkscape:locked="false" />
    <sodipodi:guide
       position="0,768"
       orientation="0,1"
       id="guide3371"
       inkscape:label=""
       inkscape:color="rgb(0,0,255)"
       inkscape:locked="false" />
    <sodipodi:guide
       position="0,896"
       orientation="0,1"
       id="guide3373"
       inkscape:label=""
       inkscape:color="rgb(0,0,255)"
       inkscape:locked="false" />
    <sodipodi:guide
       position="896,0"
       orientation="1,0"
       id="guide3375"
       inkscape:label=""
       inkscape:color="rgb(0,0,255)"
       inkscape:locked="false" />
    <sodipodi:guide
       position="128,0"
       orientation="1,0"
       id="guide3377"
       inkscape:label=""
       inkscape:color="rgb(0,0,255)"
       inkscape:locked="false" />
    <sodipodi:guide
       position="256,0"
       orientation="1,0"
       id="guide3379"
       inkscape:label=""
       inkscape:color="rgb(0,0,255)"
       inkscape:locked="false" />
    <sodipodi:guide
       position="384,0"
       orientation="1,0"
       id="guide3383"
       inkscape:label=""
       inkscape:color="rgb(0,0,255)"
       inkscape:locked="false" />
    <sodipodi:guide
       position="512,0"
       orientation="1,0"
       id="guide3385"
       inkscape:label=""
       inkscape:color="rgb(0,0,255)"
       inkscape:locked="false" />
    <sodipodi:guide
       position="640,0"
       orientation="1,0"
       id="guide3387"
       inkscape:label=""
       inkscape:color="rgb(0,0,255)"
       inkscape:locked="false" />
    <sodipodi:guide
       position="768,0"
       orientation="1,0"
       id="guide3389"
       inkscape:label=""
       inkscape:color="rgb(0,0,255)"
       inkscape:locked="false" />
  </sodipodi:namedview>
  <metadata
     id="metadata3358">
    <rdf:RDF>
      <cc:Work
         rdf:about="">
        <dc:format>image/svg+xml</dc:format>
        <dc:type
           rdf:resource="http://purl.org/dc/dcmitype/StillImage" />
        <dc:title></dc:title>
      </cc:Work>
    </rdf:RDF>
  </metadata>
  <g
     inkscape:label="Vrstva 1"
     inkscape:groupmode="layer"
     id="layer1"
     transform="translate(0,-28.362161)">
    <g
       transform="matrix(2.3350846,0,0,2.3350527,-0.00700525,28.36216)"
       id="g4">
      <path
         inkscape:connector-curvature="0"
         d="m 432.823,121.049 c -3.806,-9.132 -8.377,-16.367 -13.709,-21.695 L 339.173,19.412 C 333.848,14.087 326.613,9.517 317.477,5.708 308.346,1.903 299.969,0 292.357,0 H 27.409 C 19.798,0 13.325,2.663 7.995,7.993 2.665,13.32 0.003,19.792 0.003,27.407 v 383.719 c 0,7.617 2.662,14.089 7.992,19.417 5.33,5.325 11.803,7.991 19.414,7.991 h 383.718 c 7.618,0 14.089,-2.666 19.417,-7.991 5.325,-5.328 7.987,-11.8 7.987,-19.417 V 146.178 c 0,-7.616 -1.902,-15.99 -5.708,-25.129 z M 182.725,45.677 c 0,-2.474 0.905,-4.611 2.714,-6.423 1.807,-1.804 3.949,-2.708 6.423,-2.708 h 54.819 c 2.468,0 4.609,0.902 6.417,2.708 1.813,1.812 2.717,3.949 2.717,6.423 v 91.362 c 0,2.478 -0.91,4.618 -2.717,6.427 -1.808,1.803 -3.949,2.708 -6.417,2.708 h -54.819 c -2.474,0 -4.617,-0.902 -6.423,-2.708 -1.809,-1.812 -2.714,-3.949 -2.714,-6.427 V 45.677 Z M 328.906,401.991 H 109.633 V 292.355 h 219.273 z m 73.094,0 h -36.552 -0.007 V 283.218 c 0,-7.617 -2.663,-14.085 -7.991,-19.417 -5.328,-5.328 -11.8,-7.994 -19.41,-7.994 H 100.498 c -7.614,0 -14.087,2.666 -19.417,7.994 -5.327,5.328 -7.992,11.8 -7.992,19.417 V 401.991 H 36.544 V 36.542 h 36.544 v 118.771 c 0,7.615 2.662,14.084 7.992,19.414 5.33,5.327 11.803,7.993 19.417,7.993 h 164.456 c 7.61,0 14.089,-2.666 19.41,-7.993 5.325,-5.327 7.994,-11.799 7.994,-19.414 V 36.542 c 2.854,0 6.563,0.95 11.136,2.853 4.572,1.902 7.806,3.805 9.709,5.708 l 80.232,80.23 c 1.902,1.903 3.806,5.19 5.708,9.851 1.909,4.665 2.857,8.33 2.857,10.994 v 255.813 z"
         id="path2" />
    </g>
    <g
       transform="matrix(2.3350846,0,0,1,-0.00700525,613.82816)"
       id="g6" />
    <g
       transform="matrix(2.3350846,0,0,1,-0.00700525,613.82816)"
       id="g8" />
    <g
       transform="matrix(2.3350846,0,0,1,-0.00700525,613.82816)"
       id="g10" />
    <g
       transform="matrix(2.3350846,0,0,1,-0.00700525,613.82816)"
       id="g12" />
    <g
       transform="matrix(2.3350846,0,0,1,-0.00700525,613.82816)"
       id="g14" />
    <g
       transform="matrix(2.3350846,0,0,1,-0.00700525,613.82816)"
       id="g16" />
    <g
       transform="matrix(2.3350846,0,0,1,-0.00700525,613.82816)"
       id="g18" />
    <g
       transform="matrix(2.3350846,0,0,1,-0.00700525,613.82816)"
       id="g20" />
    <g
       transform="matrix(2.3350846,0,0,1,-0.00700525,613.82816)"
       id="g22" />
    <g
       transform="matrix(2.3350846,0,0,1,-0.00700525,613.82816)"
       id="g24" />
    <g
       transform="matrix(2.3350846,0,0,1,-0.00700525,613.82816)"
       id="g26" />
    <g
       transform="matrix(2.3350846,0,0,1,-0.00700525,613.82816)"
       id="g28" />
    <g
       transform="matrix(2.3350846,0,0,1,-0.00700525,613.82816)"
       id="g30" />
    <g
       transform="matrix(2.3350846,0,0,1,-0.00700525,613.82816)"
       id="g32" />
    <g
       transform="matrix(2.3350846,0,0,1,-0.00700525,613.82816)"
       id="g34" />
  </g>
</svg>
