<?xml version="1.0" encoding="UTF-8" standalone="no"?>
<!-- Created with Inkscape (http://www.inkscape.org/) -->

<svg
   xmlns:dc="http://purl.org/dc/elements/1.1/"
   xmlns:cc="http://creativecommons.org/ns#"
   xmlns:rdf="http://www.w3.org/1999/02/22-rdf-syntax-ns#"
   xmlns:svg="http://www.w3.org/2000/svg"
   xmlns="http://www.w3.org/2000/svg"
   xmlns:sodipodi="http://sodipodi.sourceforge.net/DTD/sodipodi-0.dtd"
   xmlns:inkscape="http://www.inkscape.org/namespaces/inkscape"
   width="1024"
   height="1024"
   viewBox="0 0 1024 1024"
   id="svg3353"
   version="1.1"
   inkscape:version="0.91 r13725"
   sodipodi:docname="ci-search.svg">
  <defs
     id="defs3355" />
  <sodipodi:namedview
     id="base"
     pagecolor="#ffffff"
     bordercolor="#666666"
     borderopacity="1.0"
     inkscape:pageopacity="0.0"
     inkscape:pageshadow="2"
     inkscape:zoom="0.24748737"
     inkscape:cx="139.78587"
     inkscape:cy="936.52239"
     inkscape:document-units="px"
     inkscape:current-layer="layer1"
     showgrid="false"
     units="px"
     showguides="true"
     inkscape:guide-bbox="true"
     inkscape:window-width="1536"
     inkscape:window-height="801"
     inkscape:window-x="-8"
     inkscape:window-y="-8"
     inkscape:window-maximized="1">
    <sodipodi:guide
       position="0,512"
       orientation="0,1"
       id="guide3361"
       inkscape:label=""
       inkscape:color="rgb(0,0,255)" />
    <sodipodi:guide
       position="0,128"
       orientation="0,1"
       id="guide3363"
       inkscape:label=""
       inkscape:color="rgb(0,0,255)" />
    <sodipodi:guide
       position="0,256"
       orientation="0,1"
       id="guide3365"
       inkscape:label=""
       inkscape:color="rgb(0,0,255)" />
    <sodipodi:guide
       position="0,640"
       orientation="0,1"
       id="guide3367"
       inkscape:label=""
       inkscape:color="rgb(0,0,255)" />
    <sodipodi:guide
       position="0,384"
       orientation="0,1"
       id="guide3369"
       inkscape:label=""
       inkscape:color="rgb(0,0,255)" />
    <sodipodi:guide
       position="0,768"
       orientation="0,1"
       id="guide3371"
       inkscape:label=""
       inkscape:color="rgb(0,0,255)" />
    <sodipodi:guide
       position="0,896"
       orientation="0,1"
       id="guide3373"
       inkscape:label=""
       inkscape:color="rgb(0,0,255)" />
    <sodipodi:guide
       position="896,0"
       orientation="1,0"
       id="guide3375"
       inkscape:label=""
       inkscape:color="rgb(0,0,255)" />
    <sodipodi:guide
       position="128,0"
       orientation="1,0"
       id="guide3377"
       inkscape:label=""
       inkscape:color="rgb(0,0,255)" />
    <sodipodi:guide
       position="256,0"
       orientation="1,0"
       id="guide3379"
       inkscape:label=""
       inkscape:color="rgb(0,0,255)" />
    <sodipodi:guide
       position="384,0"
       orientation="1,0"
       id="guide3383"
       inkscape:label=""
       inkscape:color="rgb(0,0,255)" />
    <sodipodi:guide
       position="512,0"
       orientation="1,0"
       id="guide3385"
       inkscape:label=""
       inkscape:color="rgb(0,0,255)" />
    <sodipodi:guide
       position="640,0"
       orientation="1,0"
       id="guide3387"
       inkscape:label=""
       inkscape:color="rgb(0,0,255)" />
    <sodipodi:guide
       position="768,0"
       orientation="1,0"
       id="guide3389"
       inkscape:label=""
       inkscape:color="rgb(0,0,255)" />
  </sodipodi:namedview>
  <metadata
     id="metadata3358">
    <rdf:RDF>
      <cc:Work
         rdf:about="">
        <dc:format>image/svg+xml</dc:format>
        <dc:type
           rdf:resource="http://purl.org/dc/dcmitype/StillImage" />
        <dc:title></dc:title>
      </cc:Work>
    </rdf:RDF>
  </metadata>
  <g
     inkscape:label="Vrstva 1"
     inkscape:groupmode="layer"
     id="layer1"
     transform="translate(0,-28.362161)">
    <g
       transform="matrix(0.85226045,0,0,-0.85404504,-7.6703441,1045.5298)"
       id="g4">
      <path
         style="fill:currentColor"
         inkscape:connector-curvature="0"
         d="m 500,1191 q 100,0 191,-39 91,-39 156.5,-104.5 Q 913,982 952,891 991,800 991,700 l -1,-2 1,-5 q 0,-141 -78,-262 l 275,-274 q 23,-26 22.5,-44.5 Q 1210,94 1188,70 L 1129,12 Q 1103,-8 1082.5,-8 1062,-8 1043,12 L 768,286 Q 649,209 507,209 l -5,1 -2,-1 Q 400,209 309,248 218,287 152.5,352.5 87,418 48,509 9,600 9,700 9,800 48,891 87,982 152.5,1047.5 218,1113 309,1152 q 91,39 191,39 z m 0,-169 q -88,0 -162,-43 -74,-43 -117,-117 -43,-74 -43,-162 0,-88 43,-162 43,-74 117,-117 74,-43 162,-43 88,0 162,43 74,43 117,117 43,74 43,162 0,88 -43,162 -43,74 -117,117 -74,43 -162,43 z"
         id="path6" />
    </g>
  </g>
</svg>
