<?xml version="1.0" encoding="UTF-8" standalone="no"?>
<!-- Created with Inkscape (http://www.inkscape.org/) -->

<svg
   xmlns:dc="http://purl.org/dc/elements/1.1/"
   xmlns:cc="http://creativecommons.org/ns#"
   xmlns:rdf="http://www.w3.org/1999/02/22-rdf-syntax-ns#"
   xmlns:svg="http://www.w3.org/2000/svg"
   xmlns="http://www.w3.org/2000/svg"
   xmlns:sodipodi="http://sodipodi.sourceforge.net/DTD/sodipodi-0.dtd"
   xmlns:inkscape="http://www.inkscape.org/namespaces/inkscape"
   width="1024"
   height="1024"
   viewBox="0 0 1024 1024"
   id="svg3353"
   version="1.1"
   inkscape:version="0.92.1 r15371"
   sodipodi:docname="snap-on.svg">
  <defs
     id="defs3355" />
  <sodipodi:namedview
     id="base"
     pagecolor="#ffffff"
     bordercolor="#666666"
     borderopacity="1.0"
     inkscape:pageopacity="0.0"
     inkscape:pageshadow="2"
     inkscape:zoom="1.4"
     inkscape:cx="737.50329"
     inkscape:cy="609.2697"
     inkscape:document-units="px"
     inkscape:current-layer="layer1"
     showgrid="false"
     units="px"
     showguides="true"
     inkscape:guide-bbox="true"
     inkscape:window-width="1920"
     inkscape:window-height="1001"
     inkscape:window-x="-9"
     inkscape:window-y="-9"
     inkscape:window-maximized="1">
    <sodipodi:guide
       position="0,512"
       orientation="0,1"
       id="guide3361"
       inkscape:label=""
       inkscape:color="rgb(0,0,255)"
       inkscape:locked="false" />
    <sodipodi:guide
       position="0,128"
       orientation="0,1"
       id="guide3363"
       inkscape:label=""
       inkscape:color="rgb(0,0,255)"
       inkscape:locked="false" />
    <sodipodi:guide
       position="0,256"
       orientation="0,1"
       id="guide3365"
       inkscape:label=""
       inkscape:color="rgb(0,0,255)"
       inkscape:locked="false" />
    <sodipodi:guide
       position="0,640"
       orientation="0,1"
       id="guide3367"
       inkscape:label=""
       inkscape:color="rgb(0,0,255)"
       inkscape:locked="false" />
    <sodipodi:guide
       position="0,384"
       orientation="0,1"
       id="guide3369"
       inkscape:label=""
       inkscape:color="rgb(0,0,255)"
       inkscape:locked="false" />
    <sodipodi:guide
       position="0,768"
       orientation="0,1"
       id="guide3371"
       inkscape:label=""
       inkscape:color="rgb(0,0,255)"
       inkscape:locked="false" />
    <sodipodi:guide
       position="0,896"
       orientation="0,1"
       id="guide3373"
       inkscape:label=""
       inkscape:color="rgb(0,0,255)"
       inkscape:locked="false" />
    <sodipodi:guide
       position="896,0"
       orientation="1,0"
       id="guide3375"
       inkscape:label=""
       inkscape:color="rgb(0,0,255)"
       inkscape:locked="false" />
    <sodipodi:guide
       position="128,0"
       orientation="1,0"
       id="guide3377"
       inkscape:label=""
       inkscape:color="rgb(0,0,255)"
       inkscape:locked="false" />
    <sodipodi:guide
       position="256,0"
       orientation="1,0"
       id="guide3379"
       inkscape:label=""
       inkscape:color="rgb(0,0,255)"
       inkscape:locked="false" />
    <sodipodi:guide
       position="384,0"
       orientation="1,0"
       id="guide3383"
       inkscape:label=""
       inkscape:color="rgb(0,0,255)"
       inkscape:locked="false" />
    <sodipodi:guide
       position="512,0"
       orientation="1,0"
       id="guide3385"
       inkscape:label=""
       inkscape:color="rgb(0,0,255)"
       inkscape:locked="false" />
    <sodipodi:guide
       position="640,0"
       orientation="1,0"
       id="guide3387"
       inkscape:label=""
       inkscape:color="rgb(0,0,255)"
       inkscape:locked="false" />
    <sodipodi:guide
       position="768,0"
       orientation="1,0"
       id="guide3389"
       inkscape:label=""
       inkscape:color="rgb(0,0,255)"
       inkscape:locked="false" />
    <sodipodi:guide
       position="0,0"
       orientation="1,0"
       id="guide826"
       inkscape:locked="false"
       inkscape:label=""
       inkscape:color="rgb(0,0,255)" />
    <sodipodi:guide
       position="1024,1024"
       orientation="1,0"
       id="guide828"
       inkscape:locked="false"
       inkscape:label=""
       inkscape:color="rgb(0,0,255)" />
    <sodipodi:guide
       position="0,0"
       orientation="0,1"
       id="guide830"
       inkscape:locked="false"
       inkscape:label=""
       inkscape:color="rgb(0,0,255)" />
    <sodipodi:guide
       position="1024,1024"
       orientation="0,1"
       id="guide832"
       inkscape:locked="false"
       inkscape:label=""
       inkscape:color="rgb(0,0,255)" />
  </sodipodi:namedview>
  <metadata
     id="metadata3358">
    <rdf:RDF>
      <cc:Work
         rdf:about="">
        <dc:format>image/svg+xml</dc:format>
        <dc:type
           rdf:resource="http://purl.org/dc/dcmitype/StillImage" />
        <dc:title />
      </cc:Work>
    </rdf:RDF>
  </metadata>
  <g
     inkscape:label="Vrstva 1"
     inkscape:groupmode="layer"
     id="layer1"
     transform="translate(0,-28.362161)">
    <g
       transform="matrix(-2.0000371,0,0,-2,1024.0088,1052.3621)"
       id="g6">
      <g
         id="g4">
        <path
           style="stroke-width:1"
           d="M 277.79415,512 V 455.34864 H 243.27232 V 512 Z m -85.72812,-12.04984 56.50209,-56.58004 -24.41068,-24.41015 -56.5021,56.57906 z M 306.77896,454.80957 460.38451,301.20606 c 68.814,-68.81501 68.814,-180.78371 0,-249.595708 C 425.97851,17.204352 380.78102,2.1830943e-6 335.58701,2.1830943e-6 290.39102,2.1830943e-6 245.19555,17.203352 210.78855,51.610352 L 57.183979,205.21387 151.2418,299.26954 301.04763,149.46485 c 16.94899,-16.94901 44.52827,-16.95201 61.48127,0 16.949,16.951 16.949,44.53241 0,61.48242 L 212.7221,360.75391 Z m -94.5881,-30.55469 V 389.7334 h -56.65129 v 34.52148 z m 94.5881,-18.26659 -45.23451,-45.23633 41.9377,-41.9375 45.23646,45.23535 z M 122.25894,356.46485 V 299.81446 H 87.737122 v 56.65039 z M 36.536683,344.41013 93.038784,287.83105 68.628097,263.4209 12.126006,319.99997 Z m 20.118986,-75.6904 V 234.19824 H 0.00436961 v 34.52149 z m 94.587101,-18.26953 -45.23646,-45.23633 41.93771,-41.93751 45.23646,45.23536 z"
           id="path2"
           inkscape:connector-curvature="0"
           sodipodi:nodetypes="cccccccccccccscccccccccccccccccccccccccccccccccccccc" />
      </g>
    </g>
    <g
       transform="matrix(2.0000371,0,0,2,-0.00900017,28.36216)"
       id="g12">
      <g
         id="g10" />
    </g>
    <g
       transform="matrix(2.0000371,0,0,2,-0.00900017,28.36216)"
       id="g18">
      <g
         id="g16" />
    </g>
    <g
       transform="matrix(2.0000371,0,0,2,-0.00900017,28.36216)"
       id="g24">
      <g
         id="g22" />
    </g>
    <g
       transform="matrix(2.0000371,0,0,2,-0.00900017,28.36216)"
       id="g30">
      <g
         id="g28" />
    </g>
    <g
       transform="matrix(2.0000371,0,0,2,-0.00900017,28.36216)"
       id="g36">
      <g
         id="g34" />
    </g>
    <g
       transform="matrix(2.0000371,0,0,2,-0.00900017,28.36216)"
       id="g42">
      <g
         id="g40" />
    </g>
    <g
       transform="matrix(2.0000371,0,0,2,-0.00900017,28.36216)"
       id="g44" />
    <g
       transform="matrix(2.0000371,0,0,2,-0.00900017,28.36216)"
       id="g46" />
    <g
       transform="matrix(2.0000371,0,0,2,-0.00900017,28.36216)"
       id="g48" />
    <g
       transform="matrix(2.0000371,0,0,2,-0.00900017,28.36216)"
       id="g50" />
    <g
       transform="matrix(2.0000371,0,0,2,-0.00900017,28.36216)"
       id="g52" />
    <g
       transform="matrix(2.0000371,0,0,2,-0.00900017,28.36216)"
       id="g54" />
    <g
       transform="matrix(2.0000371,0,0,2,-0.00900017,28.36216)"
       id="g56" />
    <g
       transform="matrix(2.0000371,0,0,2,-0.00900017,28.36216)"
       id="g58" />
    <g
       transform="matrix(2.0000371,0,0,2,-0.00900017,28.36216)"
       id="g60" />
    <g
       transform="matrix(2.0000371,0,0,2,-0.00900017,28.36216)"
       id="g62" />
    <g
       transform="matrix(2.0000371,0,0,2,-0.00900017,28.36216)"
       id="g64" />
    <g
       transform="matrix(2.0000371,0,0,2,-0.00900017,28.36216)"
       id="g66" />
    <g
       transform="matrix(2.0000371,0,0,2,-0.00900017,28.36216)"
       id="g68" />
    <g
       transform="matrix(2.0000371,0,0,2,-0.00900017,28.36216)"
       id="g70" />
    <g
       transform="matrix(2.0000371,0,0,2,-0.00900017,28.36216)"
       id="g72" />
  </g>
</svg>
