<?xml version="1.0" encoding="UTF-8" standalone="no"?>
<!-- Created with Inkscape (http://www.inkscape.org/) -->

<svg
   xmlns:dc="http://purl.org/dc/elements/1.1/"
   xmlns:cc="http://creativecommons.org/ns#"
   xmlns:rdf="http://www.w3.org/1999/02/22-rdf-syntax-ns#"
   xmlns:svg="http://www.w3.org/2000/svg"
   xmlns="http://www.w3.org/2000/svg"
   xmlns:sodipodi="http://sodipodi.sourceforge.net/DTD/sodipodi-0.dtd"
   xmlns:inkscape="http://www.inkscape.org/namespaces/inkscape"
   width="1024"
   height="1024"
   viewBox="0 0 1024 1024"
   id="svg3353"
   version="1.1"
   inkscape:version="0.92.1 r15371"
   sodipodi:docname="snap-off.svg">
  <defs
     id="defs3355" />
  <sodipodi:namedview
     id="base"
     pagecolor="#ffffff"
     bordercolor="#666666"
     borderopacity="1.0"
     inkscape:pageopacity="0.0"
     inkscape:pageshadow="2"
     inkscape:zoom="0.175"
     inkscape:cx="-2686.4987"
     inkscape:cy="669.53208"
     inkscape:document-units="px"
     inkscape:current-layer="layer1"
     showgrid="false"
     units="px"
     showguides="false"
     inkscape:guide-bbox="true"
     inkscape:window-width="1920"
     inkscape:window-height="1001"
     inkscape:window-x="-9"
     inkscape:window-y="-9"
     inkscape:window-maximized="1">
    <sodipodi:guide
       position="0,512"
       orientation="0,1"
       id="guide3361"
       inkscape:label=""
       inkscape:color="rgb(0,0,255)"
       inkscape:locked="false" />
    <sodipodi:guide
       position="0,128"
       orientation="0,1"
       id="guide3363"
       inkscape:label=""
       inkscape:color="rgb(0,0,255)"
       inkscape:locked="false" />
    <sodipodi:guide
       position="0,256"
       orientation="0,1"
       id="guide3365"
       inkscape:label=""
       inkscape:color="rgb(0,0,255)"
       inkscape:locked="false" />
    <sodipodi:guide
       position="0,640"
       orientation="0,1"
       id="guide3367"
       inkscape:label=""
       inkscape:color="rgb(0,0,255)"
       inkscape:locked="false" />
    <sodipodi:guide
       position="0,384"
       orientation="0,1"
       id="guide3369"
       inkscape:label=""
       inkscape:color="rgb(0,0,255)"
       inkscape:locked="false" />
    <sodipodi:guide
       position="0,768"
       orientation="0,1"
       id="guide3371"
       inkscape:label=""
       inkscape:color="rgb(0,0,255)"
       inkscape:locked="false" />
    <sodipodi:guide
       position="0,896"
       orientation="0,1"
       id="guide3373"
       inkscape:label=""
       inkscape:color="rgb(0,0,255)"
       inkscape:locked="false" />
    <sodipodi:guide
       position="896,0"
       orientation="1,0"
       id="guide3375"
       inkscape:label=""
       inkscape:color="rgb(0,0,255)"
       inkscape:locked="false" />
    <sodipodi:guide
       position="128,0"
       orientation="1,0"
       id="guide3377"
       inkscape:label=""
       inkscape:color="rgb(0,0,255)"
       inkscape:locked="false" />
    <sodipodi:guide
       position="256,0"
       orientation="1,0"
       id="guide3379"
       inkscape:label=""
       inkscape:color="rgb(0,0,255)"
       inkscape:locked="false" />
    <sodipodi:guide
       position="384,0"
       orientation="1,0"
       id="guide3383"
       inkscape:label=""
       inkscape:color="rgb(0,0,255)"
       inkscape:locked="false" />
    <sodipodi:guide
       position="512,0"
       orientation="1,0"
       id="guide3385"
       inkscape:label=""
       inkscape:color="rgb(0,0,255)"
       inkscape:locked="false" />
    <sodipodi:guide
       position="640,0"
       orientation="1,0"
       id="guide3387"
       inkscape:label=""
       inkscape:color="rgb(0,0,255)"
       inkscape:locked="false" />
    <sodipodi:guide
       position="768,0"
       orientation="1,0"
       id="guide3389"
       inkscape:label=""
       inkscape:color="rgb(0,0,255)"
       inkscape:locked="false" />
    <sodipodi:guide
       position="0,0"
       orientation="1,0"
       id="guide826"
       inkscape:locked="false"
       inkscape:label=""
       inkscape:color="rgb(0,0,255)" />
    <sodipodi:guide
       position="1024,1024"
       orientation="1,0"
       id="guide828"
       inkscape:locked="false"
       inkscape:label=""
       inkscape:color="rgb(0,0,255)" />
    <sodipodi:guide
       position="0,0"
       orientation="0,1"
       id="guide830"
       inkscape:locked="false"
       inkscape:label=""
       inkscape:color="rgb(0,0,255)" />
    <sodipodi:guide
       position="1024,1024"
       orientation="0,1"
       id="guide832"
       inkscape:locked="false"
       inkscape:label=""
       inkscape:color="rgb(0,0,255)" />
  </sodipodi:namedview>
  <metadata
     id="metadata3358">
    <rdf:RDF>
      <cc:Work
         rdf:about="">
        <dc:format>image/svg+xml</dc:format>
        <dc:type
           rdf:resource="http://purl.org/dc/dcmitype/StillImage" />
        <dc:title />
      </cc:Work>
    </rdf:RDF>
  </metadata>
  <g
     inkscape:label="Vrstva 1"
     inkscape:groupmode="layer"
     id="layer1"
     transform="translate(0,-28.362161)">
    <g
       transform="matrix(2.0000371,0,0,2,-0.00900017,28.36216)"
       id="g6">
      <g
         id="g4">
        <path
           inkscape:connector-curvature="0"
           d="M 360.758,212.73 210.952,362.535 c -16.949,16.949 -44.529,16.952 -61.482,0 -16.949,-16.951 -16.949,-44.532 0,-61.482 L 299.277,151.246 205.22,57.19 51.615,210.794 c -68.814,68.815 -68.814,180.784 0,249.596 34.406,34.406 79.603,51.61 124.797,51.61 45.196,0 90.392,-17.203 124.799,-51.61 L 454.815,306.786 Z M 205.22,106.012 l 45.235,45.236 -41.938,41.938 -45.236,-45.236 z m 71.581,329.967 c -55.356,55.354 -145.42,55.354 -200.776,0 -55.353,-55.354 -55.353,-145.421 0,-200.776 l 62.845,-62.844 45.236,45.236 -59.047,59.047 c -30.411,30.41 -30.411,79.892 0,110.304 30.413,30.412 79.895,30.41 110.304,0 l 59.047,-59.046 45.236,45.236 z m 42.018,-132.491 41.938,-41.938 45.236,45.236 -41.938,41.938 z"
           id="path2" />
      </g>
    </g>
    <g
       transform="matrix(2.0000371,0,0,2,-0.00900017,28.36216)"
       id="g12">
      <g
         id="g10" />
    </g>
    <g
       transform="matrix(2.0000371,0,0,2,-0.00900017,28.36216)"
       id="g18">
      <g
         id="g16" />
    </g>
    <g
       transform="matrix(2.0000371,0,0,2,-0.00900017,28.36216)"
       id="g24">
      <g
         id="g22" />
    </g>
    <g
       transform="matrix(2.0000371,0,0,2,-0.00900017,28.36216)"
       id="g30">
      <g
         id="g28" />
    </g>
    <g
       transform="matrix(2.0000371,0,0,2,-0.00900017,28.36216)"
       id="g36">
      <g
         id="g34" />
    </g>
    <g
       transform="matrix(2.0000371,0,0,2,-0.00900017,28.36216)"
       id="g42">
      <g
         id="g40" />
    </g>
    <g
       transform="matrix(2.0000371,0,0,2,-0.00900017,28.36216)"
       id="g44" />
    <g
       transform="matrix(2.0000371,0,0,2,-0.00900017,28.36216)"
       id="g46" />
    <g
       transform="matrix(2.0000371,0,0,2,-0.00900017,28.36216)"
       id="g48" />
    <g
       transform="matrix(2.0000371,0,0,2,-0.00900017,28.36216)"
       id="g50" />
    <g
       transform="matrix(2.0000371,0,0,2,-0.00900017,28.36216)"
       id="g52" />
    <g
       transform="matrix(2.0000371,0,0,2,-0.00900017,28.36216)"
       id="g54" />
    <g
       transform="matrix(2.0000371,0,0,2,-0.00900017,28.36216)"
       id="g56" />
    <g
       transform="matrix(2.0000371,0,0,2,-0.00900017,28.36216)"
       id="g58" />
    <g
       transform="matrix(2.0000371,0,0,2,-0.00900017,28.36216)"
       id="g60" />
    <g
       transform="matrix(2.0000371,0,0,2,-0.00900017,28.36216)"
       id="g62" />
    <g
       transform="matrix(2.0000371,0,0,2,-0.00900017,28.36216)"
       id="g64" />
    <g
       transform="matrix(2.0000371,0,0,2,-0.00900017,28.36216)"
       id="g66" />
    <g
       transform="matrix(2.0000371,0,0,2,-0.00900017,28.36216)"
       id="g68" />
    <g
       transform="matrix(2.0000371,0,0,2,-0.00900017,28.36216)"
       id="g70" />
    <g
       transform="matrix(2.0000371,0,0,2,-0.00900017,28.36216)"
       id="g72" />
  </g>
</svg>
