<?xml version="1.0" encoding="UTF-8" standalone="no"?>
<!-- Created with Inkscape (http://www.inkscape.org/) -->

<svg
   xmlns:dc="http://purl.org/dc/elements/1.1/"
   xmlns:cc="http://creativecommons.org/ns#"
   xmlns:rdf="http://www.w3.org/1999/02/22-rdf-syntax-ns#"
   xmlns:svg="http://www.w3.org/2000/svg"
   xmlns="http://www.w3.org/2000/svg"
   xmlns:sodipodi="http://sodipodi.sourceforge.net/DTD/sodipodi-0.dtd"
   xmlns:inkscape="http://www.inkscape.org/namespaces/inkscape"
   width="1024"
   height="1024"
   viewBox="0 0 1024 1024"
   id="svg3353"
   version="1.1"
   inkscape:version="0.91 r13725"
   sodipodi:docname="spinner.svg">
  <defs
     id="defs3355" />
  <sodipodi:namedview
     id="base"
     pagecolor="#ffffff"
     bordercolor="#666666"
     borderopacity="1.0"
     inkscape:pageopacity="0.0"
     inkscape:pageshadow="2"
     inkscape:zoom="0.25"
     inkscape:cx="701.20051"
     inkscape:cy="640.87285"
     inkscape:document-units="px"
     inkscape:current-layer="layer1"
     showgrid="false"
     units="px"
     showguides="true"
     inkscape:guide-bbox="true"
     inkscape:window-width="1536"
     inkscape:window-height="801"
     inkscape:window-x="-8"
     inkscape:window-y="-8"
     inkscape:window-maximized="1">
    <sodipodi:guide
       position="0,512"
       orientation="0,1"
       id="guide3361"
       inkscape:label=""
       inkscape:color="rgb(0,0,255)" />
    <sodipodi:guide
       position="0,128"
       orientation="0,1"
       id="guide3363"
       inkscape:label=""
       inkscape:color="rgb(0,0,255)" />
    <sodipodi:guide
       position="0,256"
       orientation="0,1"
       id="guide3365"
       inkscape:label=""
       inkscape:color="rgb(0,0,255)" />
    <sodipodi:guide
       position="0,640"
       orientation="0,1"
       id="guide3367"
       inkscape:label=""
       inkscape:color="rgb(0,0,255)" />
    <sodipodi:guide
       position="0,384"
       orientation="0,1"
       id="guide3369"
       inkscape:label=""
       inkscape:color="rgb(0,0,255)" />
    <sodipodi:guide
       position="0,768"
       orientation="0,1"
       id="guide3371"
       inkscape:label=""
       inkscape:color="rgb(0,0,255)" />
    <sodipodi:guide
       position="0,896"
       orientation="0,1"
       id="guide3373"
       inkscape:label=""
       inkscape:color="rgb(0,0,255)" />
    <sodipodi:guide
       position="896,0"
       orientation="1,0"
       id="guide3375"
       inkscape:label=""
       inkscape:color="rgb(0,0,255)" />
    <sodipodi:guide
       position="128,0"
       orientation="1,0"
       id="guide3377"
       inkscape:label=""
       inkscape:color="rgb(0,0,255)" />
    <sodipodi:guide
       position="256,0"
       orientation="1,0"
       id="guide3379"
       inkscape:label=""
       inkscape:color="rgb(0,0,255)" />
    <sodipodi:guide
       position="384,0"
       orientation="1,0"
       id="guide3383"
       inkscape:label=""
       inkscape:color="rgb(0,0,255)" />
    <sodipodi:guide
       position="512,0"
       orientation="1,0"
       id="guide3385"
       inkscape:label=""
       inkscape:color="rgb(0,0,255)" />
    <sodipodi:guide
       position="640,0"
       orientation="1,0"
       id="guide3387"
       inkscape:label=""
       inkscape:color="rgb(0,0,255)" />
    <sodipodi:guide
       position="768,0"
       orientation="1,0"
       id="guide3389"
       inkscape:label=""
       inkscape:color="rgb(0,0,255)" />
  </sodipodi:namedview>
  <metadata
     id="metadata3358">
    <rdf:RDF>
      <cc:Work
         rdf:about="">
        <dc:format>image/svg+xml</dc:format>
        <dc:type
           rdf:resource="http://purl.org/dc/dcmitype/StillImage" />
        <dc:title></dc:title>
      </cc:Work>
    </rdf:RDF>
  </metadata>
  <g
     inkscape:label="Vrstva 1"
     inkscape:groupmode="layer"
     id="layer1"
     transform="translate(0,-28.362161)">
    <g
       transform="matrix(0.59375,0,0,-0.59259259,-20,938.58438)"
       id="g4">
      <path
         style="fill:currentColor"
         inkscape:connector-curvature="0"
         d="M 526,142 Q 526,89 488.5,51.5 451,14 398,14 q -52,0 -90,38 -38,38 -38,90 0,53 37.5,90.5 Q 345,270 398,270 451,270 488.5,232.5 526,195 526,142 Z m 498,-206 q 0,-53 -37.5,-90.5 Q 949,-192 896,-192 q -53,0 -90.5,37.5 Q 768,-117 768,-64 768,-11 805.5,26.5 843,64 896,64 949,64 986.5,26.5 1024,-11 1024,-64 Z M 320,640 Q 320,587 282.5,549.5 245,512 192,512 139,512 101.5,549.5 64,587 64,640 64,693 101.5,730.5 139,768 192,768 245,768 282.5,730.5 320,693 320,640 Z M 1522,142 q 0,-52 -38,-90 -38,-38 -90,-38 -53,0 -90.5,37.5 Q 1266,89 1266,142 q 0,53 37.5,90.5 37.5,37.5 90.5,37.5 53,0 90.5,-37.5 Q 1522,195 1522,142 Z m -964,996 q 0,-66 -47,-113 -47,-47 -113,-47 -66,0 -113,47 -47,47 -47,113 0,66 47,113 47,47 113,47 66,0 113,-47 47,-47 47,-113 z M 1728,640 q 0,-53 -37.5,-90.5 Q 1653,512 1600,512 q -53,0 -90.5,37.5 -37.5,37.5 -37.5,90.5 0,53 37.5,90.5 37.5,37.5 90.5,37.5 53,0 90.5,-37.5 Q 1728,693 1728,640 Z m -640,704 q 0,-80 -56,-136 -56,-56 -136,-56 -80,0 -136,56 -56,56 -56,136 0,80 56,136 56,56 136,56 80,0 136,-56 56,-56 56,-136 z m 530,-206 q 0,-93 -66,-158.5 -66,-65.5 -158,-65.5 -93,0 -158.5,65.5 -65.5,65.5 -65.5,158.5 0,92 65.5,158 65.5,66 158.5,66 92,0 158,-66 66,-66 66,-158 z"
         id="path6" />
    </g>
  </g>
</svg>
