<?xml version="1.0" encoding="UTF-8" standalone="no"?>
<!-- Created with Inkscape (http://www.inkscape.org/) -->

<svg
   xmlns:dc="http://purl.org/dc/elements/1.1/"
   xmlns:cc="http://creativecommons.org/ns#"
   xmlns:rdf="http://www.w3.org/1999/02/22-rdf-syntax-ns#"
   xmlns:svg="http://www.w3.org/2000/svg"
   xmlns="http://www.w3.org/2000/svg"
   xmlns:sodipodi="http://sodipodi.sourceforge.net/DTD/sodipodi-0.dtd"
   xmlns:inkscape="http://www.inkscape.org/namespaces/inkscape"
   width="1024"
   height="1024"
   viewBox="0 0 1024 1024"
   id="svg3353"
   version="1.1"
   inkscape:version="0.91 r13725"
   sodipodi:docname="ci-talk-to.svg">
  <defs
     id="defs3355" />
  <sodipodi:namedview
     id="base"
     pagecolor="#ffffff"
     bordercolor="#666666"
     borderopacity="1.0"
     inkscape:pageopacity="0.0"
     inkscape:pageshadow="2"
     inkscape:zoom="0.24748737"
     inkscape:cx="139.78587"
     inkscape:cy="936.52239"
     inkscape:document-units="px"
     inkscape:current-layer="layer1"
     showgrid="false"
     units="px"
     showguides="true"
     inkscape:guide-bbox="true"
     inkscape:window-width="1536"
     inkscape:window-height="801"
     inkscape:window-x="-8"
     inkscape:window-y="-8"
     inkscape:window-maximized="1">
    <sodipodi:guide
       position="0,512"
       orientation="0,1"
       id="guide3361"
       inkscape:label=""
       inkscape:color="rgb(0,0,255)" />
    <sodipodi:guide
       position="0,128"
       orientation="0,1"
       id="guide3363"
       inkscape:label=""
       inkscape:color="rgb(0,0,255)" />
    <sodipodi:guide
       position="0,256"
       orientation="0,1"
       id="guide3365"
       inkscape:label=""
       inkscape:color="rgb(0,0,255)" />
    <sodipodi:guide
       position="0,640"
       orientation="0,1"
       id="guide3367"
       inkscape:label=""
       inkscape:color="rgb(0,0,255)" />
    <sodipodi:guide
       position="0,384"
       orientation="0,1"
       id="guide3369"
       inkscape:label=""
       inkscape:color="rgb(0,0,255)" />
    <sodipodi:guide
       position="0,768"
       orientation="0,1"
       id="guide3371"
       inkscape:label=""
       inkscape:color="rgb(0,0,255)" />
    <sodipodi:guide
       position="0,896"
       orientation="0,1"
       id="guide3373"
       inkscape:label=""
       inkscape:color="rgb(0,0,255)" />
    <sodipodi:guide
       position="896,0"
       orientation="1,0"
       id="guide3375"
       inkscape:label=""
       inkscape:color="rgb(0,0,255)" />
    <sodipodi:guide
       position="128,0"
       orientation="1,0"
       id="guide3377"
       inkscape:label=""
       inkscape:color="rgb(0,0,255)" />
    <sodipodi:guide
       position="256,0"
       orientation="1,0"
       id="guide3379"
       inkscape:label=""
       inkscape:color="rgb(0,0,255)" />
    <sodipodi:guide
       position="384,0"
       orientation="1,0"
       id="guide3383"
       inkscape:label=""
       inkscape:color="rgb(0,0,255)" />
    <sodipodi:guide
       position="512,0"
       orientation="1,0"
       id="guide3385"
       inkscape:label=""
       inkscape:color="rgb(0,0,255)" />
    <sodipodi:guide
       position="640,0"
       orientation="1,0"
       id="guide3387"
       inkscape:label=""
       inkscape:color="rgb(0,0,255)" />
    <sodipodi:guide
       position="768,0"
       orientation="1,0"
       id="guide3389"
       inkscape:label=""
       inkscape:color="rgb(0,0,255)" />
  </sodipodi:namedview>
  <metadata
     id="metadata3358">
    <rdf:RDF>
      <cc:Work
         rdf:about="">
        <dc:format>image/svg+xml</dc:format>
        <dc:type
           rdf:resource="http://purl.org/dc/dcmitype/StillImage" />
        <dc:title></dc:title>
      </cc:Work>
    </rdf:RDF>
  </metadata>
  <g
     inkscape:label="Vrstva 1"
     inkscape:groupmode="layer"
     id="layer1"
     transform="translate(0,-28.362161)">
    <g
       transform="matrix(0.57142857,0,0,-0.56813698,0,867.5775)"
       id="g4">
      <path
         style="fill:currentColor"
         inkscape:connector-curvature="0"
         d="M 704,1152 Q 551,1152 418,1100 285,1048 206.5,959 128,870 128,768 q 0,-82 53,-158 53,-76 149,-132 l 97,-56 -35,-84 q 34,20 62,39 l 44,31 53,-10 q 78,-14 153,-14 153,0 286,52 133,52 211.5,141 78.5,89 78.5,191 0,102 -78.5,191 -78.5,89 -211.5,141 -133,52 -286,52 z m 0,128 q 191,0 353.5,-68.5 Q 1220,1143 1314,1025 1408,907 1408,768 1408,629 1314,511 1220,393 1057.5,324.5 895,256 704,256 618,256 528,272 404,184 250,144 214,135 164,128 l -3,0 q -11,0 -20.5,8 -9.5,8 -11.5,21 -1,3 -1,6.5 0,3.5 0.5,6.5 0.5,3 2,6 l 2.5,5 3.5,5.5 4,5 4.5,5 4,4.5 q 5,6 23,25 18,19 26,29.5 8,10.5 22.5,29 Q 235,303 245.5,323 256,343 266,367 142,439 71,544 0,649 0,768 0,907 94,1025 188,1143 350.5,1211.5 513,1280 704,1280 Z M 1526,111 q 10,-24 20.5,-44 10.5,-20 25,-38.5 14.5,-18.5 22.5,-29 8,-10.5 26,-29.5 18,-19 23,-25 1,-1 4,-4.5 3,-3.5 4.5,-5 1.5,-1.5 4,-5 2.5,-3.5 3.5,-5.5 l 2.5,-5 2,-6 0.5,-6.5 -1,-6.5 q -3,-14 -13,-22 -10,-8 -22,-7 -50,7 -86,16 Q 1388,-72 1264,16 1174,0 1088,0 817,0 616,132 q 58,-4 88,-4 161,0 309,45 148,45 264,129 125,92 192,212 67,120 67,254 0,77 -23,152 129,-71 204,-178 75,-107 75,-230 0,-120 -71,-224.5 Q 1650,183 1526,111 Z"
         id="path6" />
    </g>
  </g>
</svg>
