<?xml version="1.0" standalone="no"?>
<!DOCTYPE svg PUBLIC "-//W3C//DTD SVG 1.1//EN" "http://www.w3.org/Graphics/SVG/1.1/DTD/svg11.dtd" >
<svg xmlns="http://www.w3.org/2000/svg">
<metadata>Generated by IcoMoon</metadata>
<defs>
<font id="cleerio-icons" horiz-adv-x="1024">
<font-face units-per-em="1024" ascent="960" descent="-64" />
<missing-glyph horiz-adv-x="1024" />
<glyph unicode="&#x20;" horiz-adv-x="512" d="" />
<glyph unicode="&#xe900;" glyph-name="spinner" d="M292.313 133.926q0-31.407-22.266-53.63t-53.734-22.222q-30.875 0-53.438 22.519t-22.563 53.333q0 31.407 22.266 53.63t53.734 22.222 53.734-22.222 22.266-53.63zM588 11.852q0-31.407-22.266-53.63t-53.734-22.222-53.734 22.222-22.266 53.63 22.266 53.63 53.734 22.222 53.734-22.222 22.266-53.63zM170 429.037q0-31.407-22.266-53.63t-53.734-22.222-53.734 22.222-22.266 53.63 22.266 53.63 53.734 22.222 53.734-22.222 22.266-53.63zM883.688 133.926q0-30.815-22.563-53.333t-53.438-22.519q-31.469 0-53.734 22.222t-22.266 53.63 22.266 53.63 53.734 22.222 53.734-22.222 22.266-53.63zM311.313 724.148q0-39.111-27.906-66.963t-67.094-27.852-67.094 27.852-27.906 66.963 27.906 66.963 67.094 27.852 67.094-27.852 27.906-66.963zM1006 429.037q0-31.407-22.266-53.63t-53.734-22.222-53.734 22.222-22.266 53.63 22.266 53.63 53.734 22.222 53.734-22.222 22.266-53.63zM626 846.222q0-47.407-33.25-80.593t-80.75-33.185-80.75 33.185-33.25 80.593 33.25 80.593 80.75 33.185 80.75-33.185 33.25-80.593zM940.688 724.148q0-55.111-39.188-93.926t-93.813-38.815q-55.219 0-94.109 38.815t-38.891 93.926q0 54.519 38.891 93.63t94.109 39.111q54.625 0 93.813-39.111t39.188-93.63z" />
<glyph unicode="&#xe901;" glyph-name="edit-feature" d="M832.859 819.725l89.949 95.67q1.666 0.832 4.164 1.664t10.827 1.664 17.074-0.832 20.821-7.903 23.736-17.886q18.323-18.302 22.487-35.772t0-26.621l-4.997-8.319-89.949-95.67zM291.501 892.102h333.144q41.643 0 87.45-10.815l-155.745-155.567h-306.492q-34.147 0-58.717-24.541t-24.569-58.65v-415.955q0-34.108 24.569-58.65t58.717-24.541h416.429q34.147 0 58.717 24.541t24.569 58.65v151.408l166.572 166.382v-276.194q0-137.265-77.872-214.217t-213.628-76.952h-333.144q-137.422 0-214.461 76.952t-77.039 214.217v332.764q0 137.265 77.039 214.217t214.461 76.952zM840.355 645.024l-301.495-301.152-134.090-41.596 45.807 141.425 295.665 295.328z" />
<glyph unicode="&#xe902;" glyph-name="ko" d="M823.991 257.873q0-21.003-14.71-35.713l-71.431-71.431q-14.71-14.71-35.713-14.71t-35.713 14.71l-154.426 154.426-154.426-154.426q-14.71-14.71-35.713-14.71t-35.713 14.71l-71.431 71.431q-14.71 14.71-14.71 35.713t14.71 35.713l154.426 154.426-154.426 154.426q-14.71 14.71-14.71 35.713t14.71 35.713l71.431 71.431q14.71 14.71 35.713 14.71t35.713-14.71l154.426-154.426 154.426 154.426q14.71 14.71 35.713 14.71t35.713-14.71l71.431-71.431q14.71-14.71 14.71-35.713t-14.71-35.713l-154.426-154.426 154.426-154.426q14.71-14.71 14.71-35.713z" />
<glyph unicode="&#xe903;" glyph-name="ok" d="M940.625 661.279q0-22.153-15.481-37.662l-475.636-476.335q-15.481-15.509-37.607-15.509t-37.607 15.509l-275.425 275.83q-15.481 15.509-15.481 37.662t15.481 37.662l75.216 75.321q15.481 15.509 37.607 15.509t37.607-15.509l162.598-163.393 362.808 363.898q15.481 15.509 37.607 15.509t37.607-15.509l75.216-75.321q15.481-15.509 15.481-37.662z" />
<glyph unicode="&#xe904;" glyph-name="add-feature" d="M864 495.998v-95.996q0-19.996-14.004-33.995t-33.995-14.004h-208.005v-208.005q0-19.996-14.004-33.995t-33.995-14.004h-95.996q-19.996 0-33.995 14.004t-14.004 33.995v208.005h-208.005q-19.996 0-33.995 14.004t-14.004 33.995v95.996q0 19.996 14.004 33.995t33.995 14.004h208.005v208.005q0 19.996 14.004 33.995t33.995 14.004h95.996q19.996 0 33.995-14.004t14.004-33.995v-208.005h208.005q19.996 0 33.995-14.004t14.004-33.995z" />
<glyph unicode="&#xe905;" glyph-name="caret-down" d="M810.673 578.679q0-15.17-11.080-26.25l-261.34-261.34q-11.080-11.080-26.25-11.080t-26.25 11.080l-261.34 261.34q-11.080 11.080-11.080 26.25t11.080 26.25 26.25 11.080h522.679q15.17 0 26.25-11.080t11.080-26.25z" />
<glyph unicode="&#xe906;" glyph-name="caret-up" d="M810.673 317.339q0 15.17-11.080 26.25l-261.34 261.34q-11.080 11.080-26.25 11.080t-26.25-11.080l-261.34-261.34q-11.080-11.080-11.080-26.25t11.080-26.25 26.25-11.080h522.679q15.17 0 26.25 11.080t11.080 26.25z" />
<glyph unicode="&#xe907;" glyph-name="angle-double-left" d="M613.46 21.162q0-13.339-10.248-23.599l-51.242-51.303q-10.248-10.261-23.571-10.261t-23.571 10.261l-477.578 478.14q-10.248 10.261-10.248 23.599t10.248 23.599l477.578 478.14q10.248 10.261 23.571 10.261t23.571-10.261l51.242-51.303q10.248-10.261 10.248-23.599t-10.248-23.599l-402.764-403.238 402.764-403.238q10.248-10.261 10.248-23.599zM1007 21.162q0-13.339-10.248-23.599l-51.242-51.303q-10.248-10.261-23.571-10.261t-23.571 10.261l-477.578 478.14q-10.248 10.261-10.248 23.599t10.248 23.599l477.578 478.14q10.248 10.261 23.571 10.261t23.571-10.261l51.242-51.303q10.248-10.261 10.248-23.599t-10.248-23.599l-402.764-403.238 402.764-403.238q10.248-10.261 10.248-23.599z" />
<glyph unicode="&#xe908;" glyph-name="angle-double-right" d="M410.54 21.162q0-13.339 10.248-23.599l51.242-51.303q10.248-10.261 23.571-10.261t23.571 10.261l477.578 478.14q10.248 10.261 10.248 23.599t-10.248 23.599l-477.578 478.14q-10.248 10.261-23.571 10.261t-23.571-10.261l-51.242-51.303q-10.248-10.261-10.248-23.599t10.248-23.599l402.764-403.238-402.764-403.238q-10.248-10.261-10.248-23.599zM17 21.162q0-13.339 10.248-23.599l51.242-51.303q10.248-10.261 23.571-10.261t23.571 10.261l477.578 478.14q10.248 10.261 10.248 23.599t-10.248 23.599l-477.578 478.14q-10.248 10.261-23.571 10.261t-23.571-10.261l-51.242-51.303q-10.248-10.261-10.248-23.599t10.248-23.599l402.764-403.238-402.764-403.238q-10.248-10.261-10.248-23.599z" />
<glyph unicode="&#xe909;" glyph-name="angle-left" d="M812 874.838q0-13.339-10.309-23.599l-405.155-403.238 405.155-403.238q10.309-10.261 10.309-23.599t-10.309-23.599l-51.546-51.303q-10.309-10.261-23.711-10.261t-23.711 10.261l-480.412 478.14q-10.309 10.261-10.309 23.599t10.309 23.599l480.412 478.14q10.309 10.261 23.711 10.261t23.711-10.261l51.546-51.303q10.309-10.261 10.309-23.599z" />
<glyph unicode="&#xe90a;" glyph-name="angle-right" d="M212 874.838q0-13.339 10.309-23.599l405.155-403.238-405.155-403.238q-10.309-10.261-10.309-23.599t10.309-23.599l51.546-51.303q10.309-10.261 23.711-10.261t23.711 10.261l480.412 478.14q10.309 10.261 10.309 23.599t-10.309 23.599l-480.412 478.14q-10.309 10.261-23.711 10.261t-23.711-10.261l-51.546-51.303q-10.309-10.261-10.309-23.599z" />
<glyph unicode="&#xe90b;" glyph-name="close" d="M620.763 448l324.505 326.29c30.309 28.531 30.309 78.454 0 106.978-28.531 30.309-78.454 30.309-106.978 0l-326.29-324.505-326.29 324.505c-28.531 30.309-78.454 30.309-106.978 0-30.309-28.531-30.309-78.454 0-106.978l324.505-326.29-324.505-326.29c-30.309-28.531-30.309-78.454 0-106.978 28.531-30.309 78.454-30.309 106.978 0l326.29 324.505 326.29-324.505c28.531-30.309 78.454-30.309 106.978 0 30.309 28.531 30.309 78.454 0 106.978z" />
<glyph unicode="&#xe90c;" glyph-name="discard" d="M512 960q103.82 0 198.766-40.374t163.716-109.144 109.144-163.716 40.374-198.766-40.374-198.766-109.144-163.716-163.716-109.144-198.766-40.374-198.766 40.374-163.716 109.144-109.144 163.716-40.374 198.766 40.374 198.766 109.144 163.716 163.716 109.144 198.766 40.374zM512 826.898q-102.932 0-190.336-50.579t-137.983-137.983-50.579-190.336q0-106.482 57.678-199.653l520.873 520.873q-93.172 57.678-199.653 57.678zM835.882 642.329l-518.211-518.211q92.284-55.016 194.329-55.016 102.932 0 190.336 50.579t137.983 137.983 50.579 190.336q0 102.045-55.016 194.329z" />
<glyph unicode="&#xe90d;" glyph-name="delete-feature" d="M393.636 960h236.727q32.353 0 55.631-23.237t23.278-55.532v-78.769h217q7.891 0 13.809-5.908t5.918-13.785v-59.077h-868v59.077q0 7.877 5.918 13.785t13.809 5.908h217v78.769q0 32.295 23.278 55.532t55.631 23.237zM393.636 881.231v-78.769h236.727v78.769h-236.727zM867.091 644.923v-630.154q0-32.295-23.278-55.532t-55.631-23.237h-552.364q-32.353 0-55.631 23.237t-23.278 55.532v630.154h710.182zM235.818 566.154v-551.385h78.909v551.385h-78.909zM393.636 566.154v-551.385h78.909v551.385h-78.909zM551.455 566.154v-551.385h78.909v551.385h-78.909zM709.273 566.154v-551.385h78.909v551.385h-78.909z" />
<glyph unicode="&#xe90e;" glyph-name="export" d="M787.692 54.25c0 10.675-3.897 19.914-11.692 27.715s-17.026 11.702-27.692 11.702c-10.667 0-19.897-3.901-27.692-11.702s-11.692-17.039-11.692-27.715c0-10.675 3.897-19.914 11.692-27.715s17.026-11.702 27.692-11.702c10.667 0 19.897 3.901 27.692 11.702s11.692 17.039 11.692 27.715zM945.231 54.25c0 10.675-3.897 19.914-11.692 27.715s-17.026 11.702-27.692 11.702c-10.667 0-19.897-3.901-27.692-11.702s-11.692-17.039-11.692-27.715c0-10.675 3.897-19.914 11.692-27.715s17.026-11.702 27.692-11.702c10.667 0 19.897 3.901 27.692 11.702s11.692 17.039 11.692 27.715zM1024 192.208v-197.083c0-16.424-5.744-30.384-17.231-41.88s-25.436-17.245-41.846-17.245h-905.846c-16.41 0-30.359 5.748-41.846 17.245s-17.231 25.457-17.231 41.88v197.083c0 16.424 5.744 30.384 17.231 41.88s25.436 17.245 41.846 17.245h286.154l83.077-83.76c23.795-22.993 51.692-34.49 83.692-34.49s59.897 11.497 83.692 34.49l83.692 83.76h285.538c16.41 0 30.359-5.748 41.846-17.245s17.231-25.457 17.231-41.88zM824 542.647c6.974-16.834 4.103-31.205-8.615-43.112l-275.692-275.917c-7.385-7.801-16.615-11.702-27.692-11.702s-20.308 3.901-27.692 11.702l-275.692 275.917c-12.718 11.907-15.59 26.278-8.615 43.112 6.974 16.013 19.077 24.020 36.308 24.020h157.538v353.925c0 10.675 3.897 19.914 11.692 27.715s17.026 11.702 27.692 11.702h157.538c10.667 0 19.897-3.901 27.692-11.702s11.692-17.039 11.692-27.715v-353.925h157.538c17.231 0 29.333-8.007 36.308-24.020z" />
<glyph unicode="&#xe90f;" glyph-name="import" d="M787.692 54.355c0 10.685-3.897 19.931-11.692 27.74s-17.026 11.712-27.692 11.712c-10.667 0-19.897-3.904-27.692-11.712s-11.692-17.055-11.692-27.74c0-10.685 3.897-19.931 11.692-27.74s17.026-11.712 27.692-11.712c10.667 0 19.897 3.904 27.692 11.712s11.692 17.055 11.692 27.74zM945.231 54.355c0 10.685-3.897 19.931-11.692 27.74s-17.026 11.712-27.692 11.712c-10.667 0-19.897-3.904-27.692-11.712s-11.692-17.055-11.692-27.74c0-10.685 3.897-19.931 11.692-27.74s17.026-11.712 27.692-11.712c10.667 0 19.897 3.904 27.692 11.712s11.692 17.055 11.692 27.74zM1024 192.436v-197.259c0-16.438-5.744-30.411-17.231-41.918s-25.436-17.26-41.846-17.26h-905.846c-16.41 0-30.359 5.753-41.846 17.26s-17.231 25.479-17.231 41.918v197.259c0 16.438 5.744 30.411 17.231 41.918s25.436 17.26 41.846 17.26h262.769c8.615-23.014 23.077-41.918 43.385-56.712s42.974-22.192 68-22.192h157.538c25.026 0 47.692 7.397 68 22.192s34.769 33.698 43.385 56.712h262.769c16.41 0 30.359-5.753 41.846-17.26s17.231-25.479 17.231-41.918zM824 629.591c-6.974-16.438-19.077-24.625-36.308-24.657h-157.538v-313.868c0-10.685-3.897-19.931-11.692-27.74s-17.026-11.712-27.692-11.712h-157.538c-10.667 0-19.897 3.904-27.692 11.712s-11.692 17.055-11.692 27.74v313.868h-157.538c-17.231 0-29.333 8.219-36.308 24.657-6.974 16.027-4.103 30.205 8.615 42.534l275.692 276.162c7.385 7.808 16.615 11.712 27.692 11.712s20.308-3.904 27.692-11.712l275.692-276.162c12.718-12.329 15.59-26.507 8.615-42.534z" />
<glyph unicode="&#xe910;" glyph-name="file-doc" d="M910.168 656.004c-8.561 21.331-18.829 38.213-30.823 50.659l-200.366 208.009c-11.993 12.434-28.252 23.105-48.804 32-20.543 8.885-39.381 13.328-56.499 13.328h-411.029c-17.122 0-31.68-6.218-43.666-18.664-11.989-12.439-17.981-27.551-17.981-45.333v-896.004c0-17.786 5.992-32.899 17.981-45.34 11.989-12.434 26.544-18.659 43.669-18.659h698.716c17.12 0 31.668 6.225 43.653 18.659 11.984 12.451 17.981 27.554 17.981 45.34v597.337c0.007 17.779-4.274 37.337-12.832 58.668zM594.211 869.339c12.41-4.444 21.184-9.338 26.326-14.664l201.014-208.674c5.126-5.338 9.839-14.445 14.117-27.334h-241.457v250.673zM840.812 21.33h-657.614v853.336h328.803v-277.337c0-17.779 5.988-32.887 17.977-45.333 11.993-12.439 26.542-18.666 43.675-18.666h267.16v-512zM260.962 243.855h504.102v72.9h-504.102v-72.9zM597.030 462.556h-336.068v-72.9h336.068v72.9zM260.962 98.055h504.102v72.9h-504.102v-72.9z" />
<glyph unicode="&#xe911;" glyph-name="file-img" d="M910.168 656.004c-8.561 21.331-18.829 38.213-30.823 50.659l-200.366 208.009c-11.993 12.434-28.252 23.105-48.804 32-20.543 8.885-39.381 13.328-56.499 13.328h-411.029c-17.122 0-31.68-6.218-43.666-18.664-11.989-12.439-17.981-27.551-17.981-45.333v-896.004c0-17.786 5.992-32.899 17.981-45.34 11.989-12.434 26.544-18.659 43.669-18.659h698.716c17.12 0 31.668 6.225 43.653 18.659 11.984 12.451 17.981 27.554 17.981 45.34v597.337c0.007 17.779-4.274 37.337-12.832 58.668zM594.211 869.339c12.41-4.444 21.184-9.338 26.326-14.664l201.014-208.674c5.126-5.338 9.839-14.445 14.117-27.334h-241.457v250.673zM840.812 21.33h-657.614v853.336h328.803v-277.337c0-17.779 5.988-32.887 17.977-45.333 11.993-12.439 26.542-18.666 43.675-18.666h267.16v-512zM339.819 391.852c45.761 0 82.901 34.6 82.901 77.284 0 42.633-37.14 77.181-82.901 77.181s-82.901-34.549-82.901-77.181c0-42.684 37.14-77.284 82.901-77.284zM382.978 254.688l-126.059-156.437h504.237l-126.059 365.020-126.059-312.874-126.059 104.291z" />
<glyph unicode="&#xe912;" glyph-name="file-pdf" d="M910.168 656.004c-8.561 21.331-18.829 38.213-30.823 50.659l-200.366 208.009c-11.993 12.434-28.252 23.105-48.804 32-20.543 8.885-39.381 13.328-56.499 13.328h-411.029c-17.122 0-31.68-6.218-43.666-18.664-11.989-12.439-17.981-27.551-17.981-45.333v-896.004c0-17.786 5.992-32.899 17.981-45.34 11.989-12.434 26.544-18.659 43.669-18.659h698.716c17.12 0 31.668 6.225 43.653 18.659 11.984 12.451 17.981 27.554 17.981 45.34v597.337c0.007 17.779-4.274 37.337-12.832 58.668zM594.211 869.339c12.41-4.444 21.184-9.338 26.326-14.664l201.014-208.674c5.126-5.338 9.839-14.445 14.117-27.334h-241.457v250.673zM840.812 21.33h-657.614v853.336h328.803v-277.337c0-17.779 5.988-32.887 17.977-45.333 11.993-12.439 26.542-18.666 43.675-18.666h267.16v-512zM768.055 295.446c-12.527 11.36-37.857 17.376-75.296 17.888-25.338 0.308-55.489-2.029-86.92-6.698-15.444 8.615-31.422 17.992-44.47 29.282-35.094 30.345-53.991 52.575-76.15 98.892 0.506 4.328 6.054 63.922 6.398 67.802 0 0-0.604 46.234-9.76 81.386-1.256 4.82-12.848 31.933-14.571 35.68-13.775 15.591-14.272 15.308-27.324 22.224l-17.196 1.288c-16.392 0-28.635-8.729-30.473-21.776-5.426-40.921 13.41-102.137 43.479-181.424l-3.451-12.914c-9.639-36.226-22.859-72.709-34.522-104.896l-1.515-4.187c-12.275-33.829-23.667-62.546-34.211-86.874l-13.108-7.761c-0.954-0.553-23.417-13.872-28.628-17.441-44.261-29.891-71.783-63.825-73.625-90.753-0.588-8.592 2.102-19.588 11.282-24.68l14.552-7.146c6.31-3.086 12.748-4.648 19.139-4.648 34.247 0 76.099 23.834 118.14 123.353 60.495 21.436 130.214 39.252 192.057 49.078 51.692-28.191 105.564-27.187 142.892-27.187 6.628 0 12.257 0.658 16.736 1.936 6.906 1.98 12.397 6.226 15.337 11.994 5.79 11.347 5.26 26.978 1.247 42.982-1.195 4.752-5.586 10.621-10.043 14.63zM291.296 123.182c3.97 17.778 17.445 20.419 50.008 51.605 2.050 1.943-3.841-3.695 0.686 1.433-30.104-63.471-34.871-45.104-50.695-53.038zM433.834 616.038c11.009 0 18.031-20.158 22.016-47.243 3.983-27.086 0.333-46.096-5.416-60.162-8.914 20.826-16.134 53.65-18.879 75.112 0 0-6.225 30.837-1.169 30.837zM430.928 260.37c5.841 14.292 11.892 29.365 18 45.35 14.868 39.131 16.905 40.934 23.034 66.101 23.097-35.216 30.559-43.201 60.846-67.189 3.774-2.988 5.36-7.372 9.525-10.37-53.892-11.403-71.443-17.037-111.407-33.892zM749.095 261.040c-3.088-2.195-21.593-0.553-27.806-0.553-20.047 0-23.964 3.719-60.721 19.242 13.227 1.033 25.411 1.555 36.397 1.555 20.107 0 13.982 2.066 34.317-3.191 20.33-5.219 20.509-15.342 17.42-17.537z" />
<glyph unicode="&#xe913;" glyph-name="file-xls" d="M910.168 656.004c-8.561 21.331-18.829 38.213-30.823 50.659l-200.366 208.009c-11.993 12.434-28.252 23.105-48.804 32-20.543 8.885-39.381 13.328-56.499 13.328h-411.029c-17.122 0-31.68-6.218-43.666-18.664-11.989-12.439-17.981-27.551-17.981-45.333v-896.004c0-17.786 5.992-32.899 17.981-45.34 11.989-12.434 26.544-18.659 43.669-18.659h698.716c17.12 0 31.668 6.225 43.653 18.659 11.984 12.451 17.981 27.554 17.981 45.34v597.337c0.007 17.779-4.274 37.337-12.832 58.668zM594.211 869.339c12.41-4.444 21.184-9.338 26.326-14.664l201.014-208.674c5.126-5.338 9.839-14.445 14.117-27.334h-241.457v250.673zM840.812 21.33h-657.614v853.336h328.803v-277.337c0-17.779 5.988-32.887 17.977-45.333 11.993-12.439 26.542-18.666 43.675-18.666h267.16v-512zM255.81 100.669h110.927v521.72h-110.927v-521.72zM455.067 100.669h107.797v238.268h-107.797v-238.268zM758.992 441.51h-104.667v-340.84h104.667v340.84z" />
<glyph unicode="&#xe914;" glyph-name="files" d="M969.143 740.571q22.857 0 38.857-16t16-38.857v-694.857q0-22.857-16-38.857t-38.857-16h-548.571q-22.857 0-38.857 16t-16 38.857v164.571h-310.857q-22.857 0-38.857 16t-16 38.857v384q0 22.857 11.429 50.286t27.429 43.429l233.143 233.143q16 16 43.429 27.429t50.286 11.429h237.714q22.857 0 38.857-16t16-38.857v-187.429q38.857 22.857 73.143 22.857h237.714zM658.286 618.857l-170.857-170.857h170.857v170.857zM292.571 838.286l-170.857-170.857h170.857v170.857zM404.571 468.571l180.571 180.571v237.714h-219.429v-237.714q0-22.857-16-38.857t-38.857-16h-237.714v-365.714h292.571v146.286q0 22.857 11.429 50.286t27.429 43.429zM950.857 9.143v658.286h-219.429v-237.714q0-22.857-16-38.857t-38.857-16h-237.714v-365.714h512z" />
<glyph unicode="&#xe915;" glyph-name="wrench" d="M226.516 122.352q0 16.205-11.856 28.046t-28.080 11.842-28.080-11.842-11.856-28.046 11.856-28.046 28.080-11.842 28.080 11.842 11.856 28.046zM628.378 384.117l-425.575-425.057q-23.088-23.060-56.161-23.060-32.449 0-56.785 23.060l-66.145 67.311q-23.712 22.437-23.712 56.093 0 33.032 23.712 56.716l424.951 424.433q24.336-61.079 71.449-108.134t108.266-71.362zM1024 655.231q0-24.307-14.352-66.065-29.328-83.516-102.65-135.557t-161.307-52.041q-115.442 0-197.499 81.957t-82.057 197.259 82.057 197.259 197.499 81.957q36.193 0 75.817-10.284t67.081-28.981q9.984-6.856 9.984-17.451t-9.984-17.451l-182.835-105.329v-139.608l120.434-66.688q3.12 1.87 49.297 30.228t84.553 50.483 43.993 22.125q9.36 0 14.664-6.233t5.304-15.581z" />
<glyph unicode="&#xe916;" glyph-name="copyright-mark" d="M512 960q103.959 0 198.822-40.717t163.303-109.157 109.157-163.303 40.717-198.822-40.717-198.822-109.157-163.303-163.303-109.157-198.822-40.717-198.822 40.717-163.303 109.157-109.157 163.303-40.717 198.822 40.717 198.822 109.157 163.303 163.303 109.157 198.822 40.717zM512 812.724q-98.761 0-182.795-48.948t-132.981-132.981-48.948-182.795 48.948-182.795 132.981-132.981 182.795-48.948 182.795 48.948 132.981 132.981 48.948 182.795-48.948 182.795-132.981 132.981-182.795 48.948zM685.266 534.633h-259.898v-173.266h259.898v-86.633h-259.898l-86.633 86.633v173.266l86.633 86.633h259.898v-86.633z" />
<glyph unicode="&#xe917;" glyph-name="pkn" d="M87.965 603.25h67.665c18.044 0 33.833-6.75 42.855-22.5 9.022-13.5 15.788-31.5 15.788-54s-4.511-38.25-15.788-54c-9.022-13.5-24.811-20.25-42.855-20.25h-67.665v150.75zM155.63 385c45.11 0 81.198 13.5 106.009 40.5 27.066 27 38.344 60.75 38.344 103.5s-13.533 76.5-38.344 103.5c-27.066 27-60.899 40.5-106.009 40.5h-155.63v-450h87.965v159.75h67.665zM444.335 418.75h38.344l90.22-195.75h106.009l-133.075 243 124.053 204.75h-108.264l-87.965-182.25h-29.322v182.25h-87.965v-447.75h87.965zM1024 223v447.75h-87.965v-283.5l-2.256-2.25-137.586 285.75h-87.965v-447.75h87.965v285.75h2.256l137.586-285.75z" />
<glyph unicode="&#xe918;" glyph-name="print-map" d="M701.429 959.97h-378.858q-9.382 0-16.217-6.4t-7.68-14.937l-66.556-256.843q-5.978-20.479 5.978-38.398l48.637-92.155q5.12-7.68 14.937-12.799t18.341-5.12h383.978q8.537 0 18.341 5.12t14.937 12.799l52.899 92.155q11.941 17.919 5.978 38.398l-70.818 256.843q-0.858 8.537-7.68 14.937t-16.217 6.4zM1002.639 618.652h-127.993q-8.537 0-17.919-5.542t-12.799-13.221l-66.556-133.112q-3.418-7.68-12.799-13.221t-17.919-5.542h-469.311q-8.537 0-17.919 5.542t-12.799 13.221l-66.556 133.112q-3.418 7.68-12.799 13.221t-17.919 5.542h-127.993q-8.537 0-14.937-6.4t-6.4-14.937v-554.636q0-8.537 6.4-14.937t14.937-6.4h127.993q8.537 0 14.937 6.4t6.4 14.937v127.993q0 8.537 6.4 14.937t14.937 6.4h639.963q8.537 0 14.937-6.4t6.4-14.937v-127.993q0-8.537 6.4-14.937t14.937-6.4h127.993q8.537 0 14.937 6.4t6.4 14.937v554.636q0 8.537-6.4 14.937t-14.937 6.4zM725.326 106.682h-426.642q-8.537 0-16.639-5.978t-9.817-14.501l-32.42-129.695q-1.702-8.537 2.982-14.501t13.221-5.978h511.97q8.537 0 13.221 5.978t2.982 14.501l-32.42 129.695q-1.702 8.537-9.817 14.501t-16.639 5.978z" />
<glyph unicode="&#xe919;" glyph-name="measure" d="M938 150h-724v724h128v-42h-86v-42h86v-86h-86v-42h86v-86h-86v-42h86v-86h-86v-42h86v-86h-86v-42h86v-86h42v86h86v-86h42v86h86v-86h42v86h86v-86h42v86h86v-86h42v86h42v-128zM426 746h384v-384h-384v384zM896 362v470h-470v128h-298v-128h-128v-86h128v-682h682v-128h86v128h128v298h-128z" />
<glyph unicode="&#xe91a;" glyph-name="legend" d="M256 384h64v-64h-64zM192 512v-64h64v64zM64 512v-64h-64v64zM128 384h-64v-64h64zM0 896h384v-192h-384zM512 832v-64h512v64zM512 512v-64h512v64zM512 128v-64h512v64zM384 192v-192h-384v192zM64 832v-64h256v64zM128 576h-64v-64h64zM256 576h64v-64h-64zM192 448v-64h-64v64zM320 448h64v-64h-64z" />
<glyph unicode="&#xe91b;" glyph-name="filter" d="M129.5 960h765q17.85 0 30.175-12.373t12.325-30.293-12.325-30.293-30.175-12.373h-765q-17.85 0-30.175 12.373t-12.325 30.293 12.325 30.293 30.175 12.373zM597 362.667v-256l-170-170.667v426.667l-297.5 426.667h765z" />
<glyph unicode="&#xe91c;" glyph-name="help" d="M629.727 159.825v-190.251c0-8.393-2.803-16.787-11.212-22.383-5.606-8.393-14.015-11.191-22.424-11.191h-190.606c-8.409 0-16.818 2.798-22.424 11.191-5.606 5.596-11.212 13.989-11.212 22.383v190.251c0 8.393 5.606 16.787 11.212 22.383s14.015 11.191 22.424 11.191h190.606c8.409 0 16.818-5.596 22.424-11.191 8.409-5.596 11.212-13.989 11.212-22.383zM882 641.049c0-30.776-2.803-55.956-11.212-81.137s-19.621-47.563-28.030-61.552c-11.212-16.787-25.227-30.776-44.848-47.563s-33.636-27.978-44.848-36.372c-14.015-5.596-28.030-16.787-50.455-27.978s-39.242-27.978-53.258-50.361c-16.818-22.383-22.424-41.967-22.424-53.158s-2.803-19.585-11.212-27.978c-5.606-8.393-14.015-11.191-22.424-11.191h-190.606c-8.409 0-16.818 5.596-22.424 13.989-5.606 11.191-8.409 19.585-8.409 30.776v36.372c0 44.765 19.621 83.934 53.258 123.104s72.879 69.945 114.924 86.732c30.833 16.787 53.258 30.776 67.273 44.765 14.015 16.787 19.621 36.372 19.621 61.552 0 22.383-11.212 41.967-36.439 58.754s-53.258 25.18-86.894 25.18c-33.636 0-64.47-5.596-86.894-22.383-19.621-13.989-47.652-44.765-84.091-92.328-8.409-8.393-16.818-11.191-25.227-11.191s-14.015 0-19.621 5.596l-131.742 100.721c-8.409 5.596-11.212 11.191-14.015 19.585 0 8.393 0 13.989 5.606 22.383 84.091 142.689 210.227 212.634 370 212.634 44.848 0 86.894-8.393 128.939-25.18 44.848-16.787 84.091-39.169 117.727-67.148 36.439-27.978 64.47-61.552 84.091-100.721 22.424-41.967 33.636-83.934 33.636-125.902z" />
<glyph unicode="&#xe91d;" glyph-name="iskn" d="M241.176 960c-99.696 0-173.156-78.538-173.156-172.783 0-130.896 171.742-333.072 171.742-333.072s174.57 202.176 174.57 333.072c-5.247 94.245-78.707 172.783-173.156 172.783zM241.176 729.623c-31.483 0-62.966 26.179-62.966 62.83s26.236 62.83 62.966 62.83c36.73 0 62.966-26.179 62.966-62.83s-31.483-62.83-62.966-62.83zM435.199 896c19.2-33.6 28.801-67.2 28.801-110.4 0-168-225.6-417.6-225.6-417.6s-52.8 62.4-110.4 144v-480c0-52.8 43.2-96 96-96h576c52.8 0 96 43.2 96 96v576l-288 288h-172.801zM608 809l192-201h-192v201zM256 320h62.727v-104.201h20.91l62.727 104.201h77.203l-88.461-117.064 94.895-138.936h-75.594l-64.336 111.92h-27.344v-111.92h-62.727v256zM538 320h64.072l100.213-163.377 1.643 1.287v162.090h64.072v-256h-64.072l-100.213 163.377h-1.643v-163.377h-64.072v256z" />
<glyph unicode="&#xe91e;" glyph-name="islh" d="M362.4 896l100.799-159.199h-61.199l144-196.799h-88l130-172.002h-460v-336c0-52.8 43.2-96 96-96h576c52.8 0 96 43.2 96 96v576l-288 288h-245.6zM608 809.6l192-201.6h-192v201.6zM295 320h62v-208h103v-48h-165v256zM511.986 320h64.014l1-101h100v101h65v-256h-65v112h-101v-112h-64.014v256zM256.215 960l-131.72-183.193h75.269l-141.129-183.193h94.086l-131.72-183.193h470.43l-131.72 183.193h89.382l-136.425 183.193h70.565z" />
<glyph unicode="&#xe91f;" glyph-name="help-tooltip" d="M526.913 258.995c-29.825 0-52.194 22.382-52.194 49.738s22.369 49.738 52.194 49.738c27.34 0 49.709-22.382 49.709-49.738s-22.369-49.738-49.709-49.738zM566.68 408.209v-9.948h-84.505v9.948c0 24.869 4.971 59.686 34.796 87.042 29.825 29.843 67.107 52.225 67.107 89.529 0 39.791-27.34 59.686-62.136 59.686-59.65 0-62.136-59.686-64.621-72.12h-79.534c0 62.173 27.34 149.215 144.155 149.215 99.417 0 144.155-67.147 144.155-129.319 0-101.963-99.417-119.372-99.417-184.031zM2.485-27c42.252 82.068 86.99 196.466 84.505 276.047-54.68 67.147-86.99 154.188-86.99 241.23 0 248.691 241.087 432.723 512 432.723 268.427 0 512-181.545 512-432.723 0-261.126-288.311-504.843-681.010-407.853-72.078-44.764-228.66-89.529-340.505-109.424zM512 823.524c-226.175 0-412.583-149.215-412.583-333.246 0-94.503 42.252-156.675 99.417-216.361-9.942-89.529-39.767-166.623-39.767-166.623s84.505 22.382 181.437 79.581c367.845-96.99 584.078 114.398 584.078 303.403 0 184.031-186.408 333.246-412.583 333.246z" />
<glyph unicode="&#xe920;" glyph-name="datagrid" d="M315.077 112.636v118.364q0 8.631-5.538 14.179t-14.154 5.548h-196.923q-8.615 0-14.154-5.548t-5.538-14.179v-118.364q0-8.631 5.538-14.179t14.154-5.548h196.923q8.615 0 14.154 5.548t5.538 14.179zM315.077 349.364v118.364q0 8.631-5.538 14.179t-14.154 5.548h-196.923q-8.615 0-14.154-5.548t-5.538-14.179v-118.364q0-8.631 5.538-14.179t14.154-5.548h196.923q8.615 0 14.154 5.548t5.538 14.179zM630.154 112.636v118.364q0 8.631-5.538 14.179t-14.154 5.548h-196.923q-8.615 0-14.154-5.548t-5.538-14.179v-118.364q0-8.631 5.538-14.179t14.154-5.548h196.923q8.615 0 14.154 5.548t5.538 14.179zM315.077 586.091v118.364q0 8.631-5.538 14.179t-14.154 5.548h-196.923q-8.615 0-14.154-5.548t-5.538-14.179v-118.364q0-8.631 5.538-14.179t14.154-5.548h196.923q8.615 0 14.154 5.548t5.538 14.179zM630.154 349.364v118.364q0 8.631-5.538 14.179t-14.154 5.548h-196.923q-8.615 0-14.154-5.548t-5.538-14.179v-118.364q0-8.631 5.538-14.179t14.154-5.548h196.923q8.615 0 14.154 5.548t5.538 14.179zM945.231 112.636v118.364q0 8.631-5.538 14.179t-14.154 5.548h-196.923q-8.615 0-14.154-5.548t-5.538-14.179v-118.364q0-8.631 5.538-14.179t14.154-5.548h196.923q8.615 0 14.154 5.548t5.538 14.179zM630.154 586.091v118.364q0 8.631-5.538 14.179t-14.154 5.548h-196.923q-8.615 0-14.154-5.548t-5.538-14.179v-118.364q0-8.631 5.538-14.179t14.154-5.548h196.923q8.615 0 14.154 5.548t5.538 14.179zM945.231 349.364v118.364q0 8.631-5.538 14.179t-14.154 5.548h-196.923q-8.615 0-14.154-5.548t-5.538-14.179v-118.364q0-8.631 5.538-14.179t14.154-5.548h196.923q8.615 0 14.154 5.548t5.538 14.179zM945.231 586.091v118.364q0 8.631-5.538 14.179t-14.154 5.548h-196.923q-8.615 0-14.154-5.548t-5.538-14.179v-118.364q0-8.631 5.538-14.179t14.154-5.548h196.923q8.615 0 14.154 5.548t5.538 14.179zM1024 783.364v-670.727q0-40.687-28.923-69.662t-69.538-28.974h-827.077q-40.615 0-69.538 28.974t-28.923 69.662v670.727q0 40.687 28.923 69.662t69.538 28.974h827.077q40.615 0 69.538-28.974t28.923-69.662z" />
<glyph unicode="&#xe921;" glyph-name="date-range" d="M358.333 499.2h-102.444v-102.4h102.444v102.4zM563.222 499.2h-102.445v-102.4h102.445v102.4zM768.111 499.2h-102.445v-102.4h102.445v102.4zM870.555 857.6h-51.222v102.4h-102.445v-102.4h-409.778v102.4h-102.444v-102.4h-51.222c-56.857 0-101.932-46.080-101.932-102.4l-0.512-716.8c0-56.32 45.588-102.4 102.444-102.4h717.111c56.344 0 102.444 46.080 102.444 102.4v716.8c0 56.32-46.1 102.4-102.444 102.4zM870.555 38.4h-717.111v563.2h717.111v-563.2z" />
<glyph unicode="&#xe922;" glyph-name="visible-layers" d="M950.857 448q-86.857 135.208-217.714 202.24 34.857-59.583 34.857-128.906 0-105.99-75.143-181.328t-180.857-75.339-180.857 75.339-75.143 181.328q0 69.323 34.857 128.906-130.857-67.031-217.714-202.24 76-117.448 190.571-187.057t248.286-69.609 248.286 69.609 190.571 187.057zM539.429 668q0 11.458-8 19.479t-19.429 8.021q-71.429 0-122.571-51.276t-51.143-122.891q0-11.458 8-19.479t19.429-8.021 19.429 8.021 8 19.479q0 49.271 34.857 84.219t84 34.948q11.429 0 19.429 8.021t8 19.479zM1024 448q0-19.479-11.429-39.531-80-131.771-215.143-211.12t-285.429-79.349-285.429 79.635-215.143 210.833q-11.429 20.052-11.429 39.531t11.429 39.531q80 131.198 215.143 210.833t285.429 79.635 285.429-79.635 215.143-210.833q11.429-20.052 11.429-39.531z" />
<glyph unicode="&#xe923;" glyph-name="home" d="M877.845 386.141v-304.536q0-16.496-12.068-28.55t-28.582-12.055h-243.897v243.629h-162.598v-243.629h-243.897q-16.514 0-28.582 12.055t-12.068 28.55v304.536q0 0.634 0.318 1.903t0.318 1.903l365.21 300.73 365.21-300.73q0.635-1.269 0.635-3.807zM1019.483 429.918l-39.379-46.949q-5.081-5.71-13.338-6.979h-1.905q-8.257 0-13.338 4.441l-439.523 366.078-439.523-366.078q-7.622-5.076-15.244-4.441-8.257 1.269-13.338 6.979l-39.379 46.949q-5.081 6.345-4.446 14.91t6.987 13.641l456.672 380.036q20.325 16.496 48.271 16.496t48.271-16.496l154.976-129.428v123.718q0 8.882 5.716 14.592t14.608 5.71h121.948q8.892 0 14.608-5.71t5.716-14.592v-258.856l139.097-115.47q6.351-5.076 6.987-13.641t-4.446-14.91z" />
<glyph unicode="&#xe924;" glyph-name="layers" d="M925.79 505.269l98.21-57.269-512.085-298.665-511.915 298.665 98.167 57.269 413.751-241.398 413.873 241.398zM511.915 50.541l-413.751 241.376-98.165-57.252 511.915-298.665 512.085 298.665-98.21 57.252-413.875-241.376zM511.915 861.209l342.709-199.874-342.709-199.874-342.583 199.871 342.583 199.876zM511.915 960l-511.915-298.667 511.915-298.667 512.085 298.667-512.085 298.667z" />
<glyph unicode="&#xe925;" glyph-name="layer-search" d="M512 480l352 192-352 192-352-192zM0 671.114l512 288.886 512-288.886-512-287.114zM96 512l416-240 6.606 5.166c-4.231-17.017-6.516-34.803-6.606-53.17 0.009-21.162 2.952-41.638 8.063-59.464l-8.063-4.531-512 288 96 64zM928 512l96-64-125.258-70.297c-26.163 27.72-59.322 48.765-98.242 60.735l127.5 73.563zM96 288l416-240 53.881 30.631c23.231-27.159 52.847-48.695 88.025-62.818l-141.906-79.813-512 288 96 64zM954.969 270.031l69.031-46.031-67.678-39.343c2.337 12.746 3.596 25.869 3.678 39.408-0.089 16.289-1.918 32.166-5.031 45.967zM736 400c-97.202 0-176-78.798-176-176s78.798-176 176-176c32.469 0.090 62.849 8.958 88.913 24.354l135.087-136.354 64 64-135.844 135.844c14.938 25.268 23.787 55.673 23.844 88.14 0 97.219-78.798 176.016-176 176.016zM736 336c61.856 0 112-50.144 112-112s-50.144-112-112-112c-61.856 0-112 50.144-112 112s50.144 112 112 112z" />
<glyph unicode="&#xe926;" glyph-name="search" d="M418.46 960q85.226 0 162.782-33.308t133.379-89.248 89.061-133.658 33.238-163.123l-0.852-1.708 0.852-4.27q0-120.42-66.476-223.76l234.372-234.008q19.602-22.205 19.176-38.005t-19.176-36.297l-50.283-49.535q-22.159-17.081-39.63-17.081t-33.664 17.081l-234.372 234.008q-101.419-65.761-222.44-65.761l-4.261 0.854-1.705-0.854q-85.226 0-162.782 33.308t-133.379 89.248-89.061 133.658-33.238 163.123 33.238 163.123 89.061 133.658 133.379 89.248 162.782 33.308zM418.46 815.666q-74.999 0-138.066-36.724t-99.714-99.923-36.647-138.355 36.647-138.355 99.714-99.923 138.066-36.724 138.066 36.724 99.714 99.923 36.647 138.355-36.647 138.355-99.714 99.923-138.066 36.724z" />
<glyph unicode="&#xe927;" glyph-name="locate" d="M927.932 493.753h96.068v-91.506h-96.068c-10.917-98.043-50.217-180.834-120.085-250.553-69.868-67.54-152.836-108.936-248.904-119.83v-95.864h-93.885v95.864c-96.068 10.894-179.036 52.289-248.904 119.83-69.868 69.719-111.352 152.511-120.085 250.553h-96.068v91.506h96.068c8.733 98.043 50.217 180.834 120.085 248.375 69.868 69.719 152.836 111.115 248.904 122.008v95.864h93.885v-95.864c96.068-10.894 179.036-52.289 248.904-122.008 69.868-67.54 109.168-150.332 120.085-248.375zM513.092 123.37c89.518 0 165.936 30.502 229.254 93.685s96.068 141.617 96.068 230.945c0 89.328-32.751 165.583-96.068 228.766s-139.736 95.864-229.254 95.864c-91.701 0-168.119-32.681-231.437-95.864-65.501-63.183-96.068-139.438-96.068-228.766s30.567-167.762 96.068-230.945c63.318-63.183 139.736-93.685 231.437-93.685z" />
<glyph unicode="&#xe928;" glyph-name="locate-disabled" d="M927.932 493.753h96.068v-91.506h-93.885c-6.55-52.289-21.834-102.4-45.851-148.153l-69.868 69.719c15.284 41.396 24.017 82.791 24.017 124.187 0 89.328-32.751 165.583-96.068 228.766s-139.736 95.864-229.254 95.864c-43.667 0-85.151-8.715-124.452-23.966l-69.868 69.719c45.851 23.966 93.885 39.217 146.286 45.753v95.864h93.885v-95.864c96.068-10.894 179.036-52.289 248.904-122.009 69.868-67.54 109.168-150.332 120.085-248.374zM93.885 807.489l58.951 58.826 779.463-777.804-58.951-58.826-96.068 95.864c-65.501-52.289-137.552-82.791-218.337-93.685v-95.864h-93.885v95.864c-96.068 10.894-179.036 52.289-248.904 119.83-69.868 69.719-111.352 152.511-120.085 250.553h-96.068v91.506h96.068c8.733 80.613 39.301 154.689 91.701 217.872zM711.778 190.911l-458.507 455.353c-45.851-58.826-67.684-124.187-67.684-198.264 0-89.328 30.567-167.762 96.068-230.945 63.318-63.183 139.736-93.685 231.437-93.685 72.051 0 137.552 21.787 198.687 67.54z" />
<glyph unicode="&#xe929;" glyph-name="locate-success" d="M510.908 633.191c52.401 0 96.068-17.43 133.186-54.468 34.934-37.038 54.584-80.613 54.584-130.723s-19.65-93.685-54.584-130.723c-37.117-37.038-80.785-54.468-133.186-54.468s-96.068 17.43-131.002 54.468c-37.117 37.038-54.584 80.613-54.584 130.723s17.467 93.685 54.584 130.723c34.934 37.038 78.601 54.468 131.002 54.468zM927.932 493.753h96.068v-91.506h-96.068c-10.917-98.043-50.217-180.834-120.085-250.553-69.868-67.54-152.836-108.936-248.904-119.83v-95.864h-93.885v95.864c-96.068 10.894-179.036 52.289-248.904 119.83-69.868 69.719-111.352 152.511-120.085 250.553h-96.068v91.506h96.068c8.733 98.043 50.217 180.834 120.085 248.374 69.868 69.719 152.836 111.115 248.904 122.009v95.864h93.885v-95.864c96.068-10.894 179.036-52.289 248.904-122.009 69.868-67.54 109.168-150.332 120.085-248.374zM513.092 123.37c89.518 0 165.936 30.502 229.254 93.685s96.068 141.617 96.068 230.945c0 89.328-32.751 165.583-96.068 228.766s-139.736 95.864-229.254 95.864c-91.701 0-168.119-32.681-231.437-95.864-65.501-63.183-96.068-139.438-96.068-228.766s30.567-167.762 96.068-230.945c63.318-63.183 139.736-93.685 231.437-93.685z" />
<glyph unicode="&#xe92a;" glyph-name="user-circle" d="M512 960q104 0 198.857-40.571t163.429-109.143 109.143-163.429 40.571-198.857q0-103.429-40.286-198.286t-108.857-163.429-163.429-109.429-199.429-40.857-199.429 40.571-163.143 109.429-108.857 163.429-40.571 198.571 40.571 198.857 109.143 163.429 163.429 109.143 198.857 40.571zM865.714 188q85.143 117.143 85.143 260 0 89.143-34.857 170.286t-93.714 140-140 93.714-170.286 34.857-170.286-34.857-140-93.714-93.714-140-34.857-170.286q0-142.857 85.143-260 37.714 186.857 174.857 186.857 74.857-73.143 178.857-73.143t178.857 73.143q137.143 0 174.857-186.857zM731.429 557.714q0 90.857-64.286 155.143t-155.143 64.286-155.143-64.286-64.286-155.143 64.286-155.143 155.143-64.286 155.143 64.286 64.286 155.143z" />
<glyph unicode="&#xe92b;" glyph-name="login" d="M433.231 880h315.077q129.969 0 202.831-72.655t72.862-202.255v-314.182q0-129.6-72.862-202.255t-202.831-72.655h-315.077q-16.542 0-27.963 11.389t-11.422 27.884v78.545q0 16.495 11.422 27.884t27.963 11.389h354.462q32.295 0 55.532 23.171t23.237 55.375v392.727q0 32.204-23.237 55.375t-55.532 23.171h-354.462q-16.542 0-27.963 11.389t-11.422 27.884v78.545q0 16.495 11.422 27.884t27.963 11.389zM266.24 696.989l255.212-223.069q12.603-10.996 12.603-25.92t-12.603-25.92l-255.212-223.069q-12.603-10.996-21.268-7.069t-8.665 20.422v117.818h-196.923q-16.542 0-27.963 11.389t-11.422 27.884v157.091q0 16.495 11.422 27.884t27.963 11.389h196.923v117.818q0 16.495 8.665 20.422t21.268-7.069z" />
<glyph unicode="&#xe92c;" glyph-name="logout" d="M280.438 880h320.501q16.826 0 28.444-11.389t11.618-27.884v-78.545q0-16.495-11.618-27.884t-28.444-11.389h-360.563q-32.851 0-56.488-23.171t-23.637-55.375v-392.727q0-32.204 23.637-55.375t56.488-23.171h360.563q16.826 0 28.444-11.389t11.618-27.884v-78.545q0-16.495-11.618-27.884t-28.444-11.389h-320.501q-132.207 0-206.322 72.655t-74.116 202.255v314.182q0 129.6 74.116 202.255t206.322 72.655zM751.574 696.989l259.606-223.069q12.82-10.996 12.82-25.92t-12.82-25.92l-259.606-223.069q-12.82-10.996-21.634-7.069t-8.814 20.422v117.818h-200.313q-16.826 0-28.444 11.389t-11.618 27.884v157.091q0 16.495 11.618 27.884t28.444 11.389h200.313v117.818q0 16.495 8.814 20.422t21.634-7.069z" />
<glyph unicode="&#xe92d;" glyph-name="options" d="M512 960c-282.771 0-512-229.229-512-512s229.229-512 512-512c282.634 0 512 229.177 512 512 0 282.771-229.229 512-512 512zM876.442 254.178l-71.988 71.988c-27.959 27.959-42.426 66.654-39.715 106.098 4.869 70.775-19.734 143.186-73.837 197.289-71.141 71.141-173.941 91.288-263.039 60.478l161.757-161.76c3.713-63.105-93.86-160.674-156.963-156.96l-161.755 161.757c-30.809-89.098-10.665-191.901 60.476-263.041 54.101-54.103 126.514-78.704 197.289-73.835 39.407 2.712 78.167-11.781 106.098-39.715l72.267-72.264c-59.263-31.873-125.845-48.797-195.032-48.797-110.207 0-213.815 42.916-291.741 120.842s-120.842 181.534-120.842 291.741c0 110.207 42.916 213.815 120.842 291.741s181.534 120.842 291.741 120.842c110.207 0 213.815-42.916 291.741-120.842s120.842-181.534 120.842-291.741c0-68.715-16.69-134.862-48.14-193.822z" />
<glyph unicode="&#xe92e;" glyph-name="vita" horiz-adv-x="1296" d="M1292.004 489.213c11.417-57.956-2.446-112.647-32.62-163.257-124.771-206.519-433.841-247.333-652.394-244.884-154.944 2.721-366.974 49.793-488.483 151.012-210.397 174.684-118.246 390.183 101.121 495.483 87.258 41.63 170.438 61.222 265.037 79.179 243.832 31.019 746.991-14.693 807.337-317.534zM158.467 570.842l81.549-244.884h81.549l81.549 244.884h-81.549l-40.774-163.257-40.774 163.257zM484.666 570.842v-244.884h81.549v244.884zM647.765 570.842v-81.628h81.55v-163.257h81.549v163.257h81.549v81.628zM973.962 325.958l10.601 40.814h61.162l9.786-40.814h81.549l-81.549 244.884h-81.549l-81.549-244.884zM1035.124 407.585h-40.774l20.388 81.628z" />
<glyph unicode="&#xe92f;" glyph-name="neighbours" d="M201.443-64v130.032h167.869v-128l134.295-2.032v195.048l-218.229 211.302-218.23-211.302v-195.048h134.295zM0 228.572l50.361-48.762 235.016 227.556 235.016-227.556 50.361 48.762-285.377 260.063zM698.754 309.841v109.714h146.885v-109.714h119.607v164.571l-193.049 176.762-193.049-176.762v-164.571h119.607zM520.393 567.873l44.066-42.667 207.738 201.143 207.738-201.143 44.066 42.667-251.803 229.587zM199.344 504.889v103.619h138.492v-103.619h111.213v156.444l-180.459 168.635-180.459-168.635v-156.444h111.213zM33.574 746.667l41.967-40.635 193.049 186.921 193.049-186.921 41.967 40.635-235.016 213.333z" />
<glyph unicode="&#xe930;" glyph-name="talk-to" d="M402.286 775.278q-87.429 0-163.429-29.543t-120.857-80.107-44.857-108.514q0-46.587 30.286-89.766t85.143-74.994l55.429-31.816-20-47.724q19.429 11.363 35.429 22.157l25.143 17.612 30.286-5.681q44.571-7.954 87.429-7.954 87.429 0 163.429 29.543t120.857 80.107 44.857 108.514-44.857 108.514-120.857 80.107-163.429 29.543zM402.286 848q109.143 0 202-38.917t146.571-105.958 53.714-146.011-53.714-146.011-146.571-105.958-202-38.917q-49.143 0-100.571 9.090-70.857-49.996-158.857-72.722-20.571-5.113-49.143-9.090h-1.714q-6.286 0-11.714 4.545t-6.571 11.931q-0.571 1.704-0.571 3.693t0.286 3.693 1.143 3.409l1.429 2.841 2 3.125 2.286 2.841 2.571 2.841 2.286 2.557q2.857 3.409 13.143 14.203t14.857 16.76 12.857 16.476 14.286 21.873 11.714 24.998q-70.857 40.906-111.429 100.56t-40.571 127.263q0 78.971 53.714 146.011t146.571 105.958 202 38.917zM872 183.848q5.714-13.635 11.714-24.998t14.286-21.873 12.857-16.476 14.857-16.76 13.143-14.203q0.571-0.568 2.286-2.557t2.571-2.841 2.286-2.841 2-3.125l1.429-2.841 1.143-3.409 0.286-3.693-0.571-3.693q-1.714-7.954-7.429-12.499t-12.571-3.977q-28.571 3.977-49.143 9.090-88 22.725-158.857 72.722-51.429-9.090-100.571-9.090-154.857 0-269.714 74.994 33.143-2.273 50.286-2.273 92 0 176.571 25.566t150.857 73.29q71.429 52.269 109.714 120.445t38.286 144.307q0 43.747-13.143 86.357 73.714-40.338 116.571-101.128t42.857-130.672q0-68.176-40.571-127.547t-111.429-100.276z" />
</font>
</defs>
</svg>
