<?xml version="1.0" standalone="no"?>
<!DOCTYPE svg PUBLIC "-//W3C//DTD SVG 1.1//EN" "http://www.w3.org/Graphics/SVG/1.1/DTD/svg11.dtd" >
<svg xmlns="http://www.w3.org/2000/svg">
<metadata>Generated by IcoMoon</metadata>
<defs>
<font id="icomoon" horiz-adv-x="1024">
<font-face units-per-em="1024" ascent="960" descent="-64" />
<missing-glyph horiz-adv-x="1024" />
<glyph unicode="&#x20;" horiz-adv-x="512" d="" />
<glyph unicode="&#xe900;" glyph-name="add-feature" d="M1024 517.818v-139.636q0-29.091-20.364-49.455t-49.455-20.364h-302.545v-302.545q0-29.091-20.364-49.455t-49.455-20.364h-139.636q-29.091 0-49.455 20.364t-20.364 49.455v302.545h-302.545q-29.091 0-49.455 20.364t-20.364 49.455v139.636q0 29.091 20.364 49.455t49.455 20.364h302.545v302.545q0 29.091 20.364 49.455t49.455 20.364h139.636q29.091 0 49.455-20.364t20.364-49.455v-302.545h302.545q29.091 0 49.455-20.364t20.364-49.455z" />
<glyph unicode="&#xe901;" glyph-name="angle-bottom" d="M120 764l392-392 392 392 120-120-512-512-512 512z" />
<glyph unicode="&#xe902;" glyph-name="angle-left" d="M828 840l-392-392 392-392-120-120-512 512 512 512z" />
<glyph unicode="&#xe903;" glyph-name="angle-right" d="M196 840l392-392-392-392 120-120 512 512-512 512z" />
<glyph unicode="&#xe904;" glyph-name="angle-top" d="M120 132l392 392 392-392 120 120-512 512-512-512z" />
<glyph unicode="&#xe905;" glyph-name="cancel" d="M1024 856.913l-410.97-408.913 410.97-408.913-102.742-103.087-410.97 408.913-407.545-408.913-102.742 103.087 407.545 408.913-407.545 408.913 102.742 103.087 407.545-408.913 410.97 408.913z" />
<glyph unicode="&#xe906;" glyph-name="circle" d="M510.801 960c141.489 0 261.396-50.479 362.117-151.437 100.721-98.554 151.082-218.742 151.082-360.563s-50.361-262.009-151.082-362.967c-100.721-98.554-220.628-149.033-362.117-149.033s-261.396 50.479-362.117 149.033c-100.721 100.958-148.684 221.146-148.684 362.967s47.963 262.009 148.684 360.563c100.721 100.958 220.628 151.437 362.117 151.437zM510.801 36.958c112.712 0 208.637 40.864 290.173 120.188 79.138 79.324 119.906 177.878 119.906 290.854s-40.768 211.531-119.906 290.854c-81.536 79.324-177.461 120.188-290.173 120.188s-208.637-40.864-287.775-120.188c-81.536-79.324-119.906-177.878-119.906-290.854s38.37-211.531 119.906-290.854c79.138-79.324 175.063-120.188 287.775-120.188z" />
<glyph unicode="&#xe907;" glyph-name="circle-dot" d="M510.801 705.202c69.546 0 129.499-26.441 179.859-76.92s76.74-110.573 76.74-180.282c0-69.709-26.379-132.207-76.74-182.685s-110.314-74.516-179.859-74.516c-71.944 0-131.897 24.038-179.859 74.516-50.361 50.479-74.342 112.977-74.342 182.685s23.981 129.803 74.342 180.282c47.963 50.479 107.916 76.92 179.859 76.92zM510.801 960c141.489 0 261.396-50.479 362.117-151.437 100.721-98.554 151.082-218.742 151.082-360.563s-50.361-262.009-151.082-362.967c-100.721-98.554-220.628-149.033-362.117-149.033s-261.396 50.479-362.117 149.033c-100.721 100.958-148.684 221.146-148.684 362.967s47.963 262.009 148.684 360.563c100.721 100.958 220.628 151.437 362.117 151.437zM510.801 36.958c112.712 0 208.637 40.864 290.173 120.188 79.138 79.324 119.906 177.878 119.906 290.854s-40.768 211.531-119.906 290.854c-81.536 79.324-177.461 120.188-290.173 120.188s-208.637-40.864-287.775-120.188c-81.536-79.324-119.906-177.878-119.906-290.854s38.37-211.531 119.906-290.854c79.138-79.324 175.063-120.188 287.775-120.188z" />
<glyph unicode="&#xe908;" glyph-name="circle-exclamation" d="M460.44 294.16h103.119v-103.362h-103.119v103.362zM460.44 705.202h103.119v-307.681h-103.119v307.681zM510.801 960c141.489 0 261.396-50.479 362.117-151.437 100.721-98.554 151.082-218.742 151.082-360.563s-50.361-262.009-151.082-362.967c-100.721-98.554-220.628-149.033-362.117-149.033s-261.396 50.479-362.117 149.033c-100.721 100.958-148.684 221.146-148.684 362.967s47.963 262.009 148.684 360.563c100.721 100.958 220.628 151.437 362.117 151.437zM510.801 36.958c112.712 0 208.637 40.864 290.173 120.188 79.138 79.324 119.906 177.878 119.906 290.854s-40.768 211.531-119.906 290.854c-81.536 79.324-177.461 120.188-290.173 120.188s-208.637-40.864-287.775-120.188c-81.536-79.324-119.906-177.878-119.906-290.854s38.37-211.531 119.906-290.854c79.138-79.324 175.063-120.188 287.775-120.188z" />
<glyph unicode="&#xe909;" glyph-name="circle-help" d="M460.44 140.319v103.362h103.119v-103.362h-103.119zM510.801 960c141.489 0 261.396-50.479 362.117-151.437 100.721-98.554 151.082-218.742 151.082-360.563s-50.361-262.009-151.082-362.967c-100.721-98.554-220.628-149.033-362.117-149.033s-261.396 50.479-362.117 149.033c-100.721 100.958-148.684 221.146-148.684 362.967s47.963 262.009 148.684 360.563c100.721 100.958 220.628 151.437 362.117 151.437zM510.801 36.958c112.712 0 208.637 40.864 290.173 120.188 79.138 79.324 119.906 177.878 119.906 290.854s-40.768 211.531-119.906 290.854c-81.536 79.324-177.461 120.188-290.173 120.188s-208.637-40.864-287.775-120.188c-81.536-79.324-119.906-177.878-119.906-290.854s38.37-211.531 119.906-290.854c79.138-79.324 175.063-120.188 287.775-120.188zM510.801 755.681c57.555 0 105.518-19.23 146.286-60.094 38.37-40.864 59.953-88.939 59.953-144.225 0-28.845-9.593-55.286-23.981-79.324-16.787-21.634-33.574-40.864-52.759-55.286-19.185-12.019-38.37-31.249-52.759-52.883-16.787-21.634-23.981-43.268-23.981-69.709h-103.119c0 36.056 7.194 67.305 23.981 93.746 14.389 26.441 33.574 45.671 52.759 57.69s35.972 28.845 52.759 45.671c14.389 16.826 23.981 38.46 23.981 60.094 0 26.441-11.991 50.479-31.176 69.709-19.185 21.634-43.166 31.249-71.944 31.249s-52.759-9.615-71.944-31.249c-19.185-19.23-28.778-43.268-28.778-69.709h-103.119c0 55.286 19.185 103.362 59.953 144.225 38.37 40.864 86.333 60.094 143.888 60.094z" />
<glyph unicode="&#xe90a;" glyph-name="circle-info" d="M460.44 190.798v307.681h103.119v-307.681h-103.119zM510.801 960c141.489 0 261.396-50.479 362.117-151.437 100.721-98.554 151.082-218.742 151.082-360.563s-50.361-262.009-151.082-362.967c-100.721-98.554-220.628-149.033-362.117-149.033s-261.396 50.479-362.117 149.033c-100.721 100.958-148.684 221.146-148.684 362.967s47.963 262.009 148.684 360.563c100.721 100.958 220.628 151.437 362.117 151.437zM510.801 36.958c112.712 0 208.637 40.864 290.173 120.188 79.138 79.324 119.906 177.878 119.906 290.854s-40.768 211.531-119.906 290.854c-81.536 79.324-177.461 120.188-290.173 120.188s-208.637-40.864-287.775-120.188c-81.536-79.324-119.906-177.878-119.906-290.854s38.37-211.531 119.906-290.854c79.138-79.324 175.063-120.188 287.775-120.188zM460.44 601.84v103.362h103.119v-103.362h-103.119z" />
<glyph unicode="&#xe90b;" glyph-name="circle-minus" d="M256.6 498.479h510.801v-100.958h-510.801v100.958zM510.801 960c141.489 0 261.396-50.479 362.117-151.437 100.721-98.554 151.082-218.742 151.082-360.563s-50.361-262.009-151.082-362.967c-100.721-98.554-220.628-149.033-362.117-149.033s-261.396 50.479-362.117 149.033c-100.721 100.958-148.684 221.146-148.684 362.967s47.963 262.009 148.684 360.563c100.721 100.958 220.628 151.437 362.117 151.437zM510.801 36.958c112.712 0 208.637 40.864 290.173 120.188 79.138 79.324 119.906 177.878 119.906 290.854s-40.768 211.531-119.906 290.854c-81.536 79.324-177.461 120.188-290.173 120.188s-208.637-40.864-287.775-120.188c-81.536-79.324-119.906-177.878-119.906-290.854s38.37-211.531 119.906-290.854c79.138-79.324 175.063-120.188 287.775-120.188z" />
<glyph unicode="&#xe90c;" glyph-name="circle-plus" d="M563.56 705.202v-206.723h203.841v-100.958h-203.841v-206.723h-103.119v206.723h-203.841v100.958h203.841v206.723h103.119zM510.801 960c139.091 0 261.396-50.479 362.117-151.437 100.721-98.554 151.082-218.742 151.082-360.563s-50.361-262.009-151.082-362.967c-100.721-98.554-223.026-149.033-362.117-149.033-141.489 0-261.396 50.479-362.117 149.033-100.721 100.958-148.684 221.146-148.684 362.967s47.963 262.009 148.684 360.563c100.721 100.958 220.628 151.437 362.117 151.437zM510.801 36.958c112.712 0 208.637 40.864 290.173 120.188 79.138 79.324 119.906 177.878 119.906 290.854s-40.768 211.531-119.906 290.854c-81.536 79.324-177.461 120.188-290.173 120.188s-208.637-40.864-287.775-120.188c-81.536-79.324-119.906-177.878-119.906-290.854s38.37-211.531 119.906-290.854c79.138-79.324 175.063-120.188 287.775-120.188z" />
<glyph unicode="&#xe90d;" glyph-name="circle-times" d="M645.096 652.319l71.944-72.113-134.295-132.207 134.295-132.207-71.944-72.113-134.295 132.207-131.897-132.207-71.944 72.113 131.897 132.207-131.897 132.207 71.944 72.113 131.897-132.207zM510.801 960c141.489 0 261.396-50.479 362.117-151.437 100.721-98.554 151.082-218.742 151.082-360.563s-50.361-262.009-151.082-362.967c-100.721-98.554-220.628-149.033-362.117-149.033s-261.396 50.479-362.117 149.033c-100.721 100.958-148.684 221.146-148.684 362.967s47.963 262.009 148.684 360.563c100.721 100.958 220.628 151.437 362.117 151.437zM510.801 36.958c112.712 0 208.637 40.864 290.173 120.188 79.138 79.324 119.906 177.878 119.906 290.854s-40.768 211.531-119.906 290.854c-81.536 79.324-177.461 120.188-290.173 120.188s-208.637-40.864-287.775-120.188c-81.536-79.324-119.906-177.878-119.906-290.854s38.37-211.531 119.906-290.854c79.138-79.324 175.063-120.188 287.775-120.188z" />
<glyph unicode="&#xe90e;" glyph-name="cog" d="M903.294 397.521l110.853-84.131c9.854-9.615 12.317-21.634 7.39-33.653l-105.926-177.878c-7.39-12.019-17.244-16.826-32.024-9.615l-130.56 50.479c-29.561-21.634-59.121-38.46-88.682-50.479l-19.707-134.61c-2.463-14.423-12.317-21.634-27.097-21.634h-209.388c-14.78 0-24.634 7.211-27.097 21.634l-19.707 134.61c-32.024 12.019-61.585 28.845-88.682 50.479l-130.56-50.479c-14.78-4.808-27.097-2.404-32.024 9.615l-105.926 177.878c-7.39 12.019-4.927 24.038 7.39 33.653l110.853 84.131c-2.463 19.23-2.463 36.056-2.463 50.479s0 31.249 2.463 50.479l-110.853 84.131c-12.317 9.615-14.78 21.634-7.39 33.653l105.926 177.878c7.39 12.019 17.244 16.826 32.024 9.615l130.56-50.479c29.561 21.634 59.121 38.46 88.682 50.479l19.707 134.61c2.463 14.423 12.317 21.634 27.097 21.634h209.388c14.78 0 24.634-7.211 27.097-21.634l19.707-134.61c29.561-12.019 59.121-28.845 88.682-50.479l130.56 50.479c14.78 4.808 24.634 2.404 32.024-9.615l105.926-177.878c4.927-12.019 2.463-24.038-7.39-33.653l-110.853-84.131c2.463-19.23 4.927-36.056 4.927-50.479s-2.463-31.249-4.927-50.479zM511.615 267.718c49.268 0 93.609 16.826 130.56 52.883 34.487 36.056 54.195 76.92 54.195 127.399s-19.707 91.343-54.195 127.399c-36.951 36.056-81.292 52.883-130.56 52.883s-93.609-16.826-128.096-52.883c-36.951-36.056-54.195-76.92-54.195-127.399s17.244-91.343 54.195-127.399c34.487-36.056 78.828-52.883 128.096-52.883z" />
<glyph unicode="&#xe90f;" glyph-name="date" d="M358.333 499.2h-102.444v-102.4h102.444v102.4zM563.222 499.2h-102.445v-102.4h102.445v102.4zM768.111 499.2h-102.445v-102.4h102.445v102.4zM870.555 857.6h-51.222v102.4h-102.445v-102.4h-409.778v102.4h-102.444v-102.4h-51.222c-56.857 0-101.932-46.080-101.932-102.4l-0.512-716.8c0-56.32 45.588-102.4 102.444-102.4h717.111c56.344 0 102.444 46.080 102.444 102.4v716.8c0 56.32-46.1 102.4-102.444 102.4zM870.555 38.4h-717.111v563.2h717.111v-563.2z" />
<glyph unicode="&#xe910;" glyph-name="datetime" d="M648.331 550.803h-92.907v-90.709h92.907v90.709zM464.536 550.803h-92.907v-90.709h92.907v90.709zM276.702 550.803h-92.907v-90.709h92.907v90.709zM494.832 143.622h-401.925v499.906h648.331v-181.417c16.158 4.032 36.355 8.063 54.533 8.063 12.118 0 26.256 0 36.355-4.031v314.457c0 50.394-40.394 90.709-90.888 90.709h-48.473v88.693h-92.907v-90.709h-367.59v90.709h-92.907v-90.709h-46.454c-52.513 0-92.907-42.331-92.907-88.693v-636.976c0-52.409 40.394-92.724 92.907-92.724h422.122c-10.099 30.236-20.197 60.472-20.197 92.724zM797 390q46.029 0 88.125-17.9t72.585-48.39 48.39-72.585 17.9-88.125-17.9-88.125-48.39-72.585-72.585-48.39-88.125-17.9-88.125 17.9-72.585 48.39-48.39 72.585-17.9 88.125 17.9 88.125 48.39 72.585 72.585 48.39 88.125 17.9zM797 330.988q-45.636 0-84.387-22.425t-61.176-61.176-22.425-84.387 22.425-84.387 61.176-61.176 84.387-22.425 84.387 22.425 61.176 61.176 22.425 84.387-22.425 84.387-61.176 61.176-84.387 22.425zM767.494 281.024h19.671q3.934 0 6.885-2.951t2.951-6.885v-108.189h68.847q3.934 0 6.885-2.951t2.951-6.885v-19.671q0-3.934-2.951-6.885t-6.885-2.951h-98.354q-3.934 0-6.885 2.951t-2.951 6.885v137.695q0 3.934 2.951 6.885t6.885 2.951z" />
<glyph unicode="&#xe911;" glyph-name="delete" d="M169.047 50.667v682.667h683.237v-682.667c0-32-13.344-58.667-34.696-82.667-21.351-21.333-48.040-32-77.398-32h-456.381c-32.027 0-61.385 10.667-82.736 32-21.351 24-32.027 50.667-32.027 82.667zM911 904v-114.667h-798v114.667h200.167l56.047 56h285.572l56.047-56h200.167z" />
<glyph unicode="&#xe912;" glyph-name="dots-horizontal" d="M896 320c70.4 0 128 57.6 128 128s-57.6 128-128 128c-70.4 0-128-57.6-128-128s57.6-128 128-128zM128 320c70.4 0 128 57.6 128 128s-57.6 128-128 128c-70.4 0-128-57.6-128-128s57.6-128 128-128zM512 320c70.4 0 128 57.6 128 128s-57.6 128-128 128c-70.4 0-128-57.6-128-128s57.6-128 128-128z" />
<glyph unicode="&#xe913;" glyph-name="dots-vertical" d="M640 832c0 70.4-57.6 128-128 128s-128-57.6-128-128c0-70.4 57.6-128 128-128s128 57.6 128 128zM640 64c0 70.4-57.6 128-128 128s-128-57.6-128-128c0-70.4 57.6-128 128-128s128 57.6 128 128zM640 448c0 70.4-57.6 128-128 128s-128-57.6-128-128c0-70.4 57.6-128 128-128s128 57.6 128 128z" />
<glyph unicode="&#xe914;" glyph-name="earth" d="M510.801 960c141.489 0 261.396-50.479 362.117-151.437 100.721-98.554 151.082-218.742 151.082-360.563s-50.361-262.009-151.082-362.967c-100.721-98.554-220.628-149.033-362.117-149.033s-261.396 50.479-362.117 149.033c-100.721 100.958-148.684 221.146-148.684 362.967s47.963 262.009 148.684 360.563c100.721 100.958 220.628 151.437 362.117 151.437zM460.44 41.765v98.554c-28.778 0-55.157 9.615-74.342 28.845-19.185 21.634-28.778 45.671-28.778 74.516v50.479l-244.609 245.183c-7.194-31.249-9.593-62.498-9.593-91.343 0-103.362 33.574-194.704 100.721-271.624s153.48-122.592 256.6-134.61zM812.965 171.568c71.944 79.324 107.916 170.667 107.916 276.432 0 84.131-23.981 161.052-71.944 230.761s-107.916 117.784-184.656 149.033v-21.634c0-26.441-11.991-50.479-31.176-72.113-19.185-19.23-43.166-28.845-69.546-28.845h-103.119v-103.362c0-14.423-7.194-26.441-16.787-36.056s-21.583-14.423-33.574-14.423h-103.119v-103.362h306.96c14.389 0 26.379-4.808 35.972-16.826 9.593-9.615 14.389-21.634 14.389-33.653v-153.84h52.759c21.583 0 40.768-7.211 59.953-21.634 16.787-12.019 28.778-28.845 35.972-50.479z" />
<glyph unicode="&#xe915;" glyph-name="edit" d="M0 149.333l629.333 629.333 213.333-213.333-629.333-629.333h-213.333v213.333zM1008 730.667l-104-104-213.333 213.333 104 104c10.667 10.667 24 16 40 16s29.333-5.333 40-16l133.333-133.333c10.667-10.667 16-24 16-40s-5.333-29.333-16-40z" />
<glyph unicode="&#xe916;" glyph-name="export" d="M787.692 54.25c0 10.675-3.897 19.914-11.692 27.715s-17.026 11.702-27.692 11.702c-10.667 0-19.897-3.901-27.692-11.702s-11.692-17.039-11.692-27.715c0-10.675 3.897-19.914 11.692-27.715s17.026-11.702 27.692-11.702c10.667 0 19.897 3.901 27.692 11.702s11.692 17.039 11.692 27.715zM945.231 54.25c0 10.675-3.897 19.914-11.692 27.715s-17.026 11.702-27.692 11.702c-10.667 0-19.897-3.901-27.692-11.702s-11.692-17.039-11.692-27.715c0-10.675 3.897-19.914 11.692-27.715s17.026-11.702 27.692-11.702c10.667 0 19.897 3.901 27.692 11.702s11.692 17.039 11.692 27.715zM1024 192.208v-197.083c0-16.424-5.744-30.384-17.231-41.88s-25.436-17.245-41.846-17.245h-905.846c-16.41 0-30.359 5.748-41.846 17.245s-17.231 25.457-17.231 41.88v197.083c0 16.424 5.744 30.384 17.231 41.88s25.436 17.245 41.846 17.245h286.154l83.077-83.76c23.795-22.993 51.692-34.49 83.692-34.49s59.897 11.497 83.692 34.49l83.692 83.76h285.538c16.41 0 30.359-5.748 41.846-17.245s17.231-25.457 17.231-41.88zM824 542.647c6.974-16.834 4.103-31.205-8.615-43.112l-275.692-275.917c-7.385-7.801-16.615-11.702-27.692-11.702s-20.308 3.901-27.692 11.702l-275.692 275.917c-12.718 11.907-15.59 26.278-8.615 43.112 6.974 16.013 19.077 24.020 36.308 24.020h157.538v353.925c0 10.675 3.897 19.914 11.692 27.715s17.026 11.702 27.692 11.702h157.538c10.667 0 19.897-3.901 27.692-11.702s11.692-17.039 11.692-27.715v-353.925h157.538c17.231 0 29.333-8.007 36.308-24.020z" />
<glyph unicode="&#xe917;" glyph-name="file" d="M910.168 656.004c-8.561 21.331-18.829 38.213-30.823 50.659l-200.366 208.009c-11.993 12.434-28.252 23.105-48.804 32-20.543 8.885-39.381 13.328-56.499 13.328h-411.029c-17.122 0-31.68-6.218-43.666-18.664-11.989-12.439-17.981-27.551-17.981-45.333v-896.004c0-17.786 5.992-32.899 17.981-45.34 11.989-12.434 26.544-18.659 43.669-18.659h698.716c17.12 0 31.668 6.225 43.653 18.659 11.984 12.451 17.981 27.554 17.981 45.34v597.337c0.007 17.779-4.274 37.337-12.832 58.668zM594.211 869.339c12.41-4.444 21.184-9.338 26.326-14.664l201.014-208.674c5.126-5.338 9.839-14.445 14.117-27.334h-241.457v250.673zM840.812 21.33h-657.614v853.336h328.803v-277.337c0-17.779 5.988-32.887 17.977-45.333 11.993-12.439 26.542-18.666 43.675-18.666h267.16v-512z" />
<glyph unicode="&#xe918;" glyph-name="file-code" d="M910.168 656.004c-8.561 21.331-18.829 38.213-30.823 50.659l-200.366 208.009c-11.993 12.434-28.252 23.105-48.804 32-20.543 8.885-39.381 13.328-56.499 13.328h-411.029c-17.122 0-31.68-6.218-43.666-18.664-11.989-12.439-17.981-27.551-17.981-45.333v-896.004c0-17.786 5.992-32.899 17.981-45.34 11.989-12.434 26.544-18.659 43.669-18.659h698.716c17.12 0 31.668 6.225 43.653 18.659 11.984 12.451 17.981 27.554 17.981 45.34v597.337c0.007 17.779-4.274 37.337-12.832 58.668zM594.211 869.339c12.41-4.444 21.184-9.338 26.326-14.664l201.014-208.674c5.126-5.338 9.839-14.445 14.117-27.334h-241.457v250.673zM840.812 21.33h-657.614v853.336h328.803v-277.337c0-17.779 5.988-32.887 17.977-45.333 11.993-12.439 26.542-18.666 43.675-18.666h267.16v-512zM360.835 430.776q4.183 5.026 10.981 5.711t12.549-2.97l26.668-17.362q5.752-3.655 6.536-9.595t-3.399-10.965l-95.167-111.024 95.167-111.024q4.183-5.026 3.399-10.965t-6.536-9.595l-26.668-17.362q-5.752-3.655-12.549-2.97t-10.981 5.711l-118.174 137.524q-7.321 8.681 0 17.362zM780.197 293.252q7.321-8.681 0-17.362l-118.174-137.524q-4.183-5.026-10.981-5.711t-12.549 2.97l-26.668 17.362q-5.752 3.655-6.536 9.595t3.399 10.965l95.167 111.024-95.167 111.024q-4.183 5.026-3.399 10.965t6.536 9.595l26.668 17.362q5.752 3.655 12.549 2.97t10.981-5.711zM456.002 82.626q-6.798 0.914-10.719 5.94t-2.876 10.965l72.16 379.676q1.046 5.94 6.798 9.366t12.549 2.513l32.942-4.569q6.798-0.914 10.719-5.94t2.876-10.965l-72.16-379.676q-1.046-5.94-6.798-9.366t-12.549-2.513z" />
<glyph unicode="&#xe919;" glyph-name="file-doc" d="M910.168 656.004c-8.561 21.331-18.829 38.213-30.823 50.659l-200.366 208.009c-11.993 12.434-28.252 23.105-48.804 32-20.543 8.885-39.381 13.328-56.499 13.328h-411.029c-17.122 0-31.68-6.218-43.666-18.664-11.989-12.439-17.981-27.551-17.981-45.333v-896.004c0-17.786 5.992-32.899 17.981-45.34 11.989-12.434 26.544-18.659 43.669-18.659h698.716c17.12 0 31.668 6.225 43.653 18.659 11.984 12.451 17.981 27.554 17.981 45.34v597.337c0.007 17.779-4.274 37.337-12.832 58.668zM594.211 869.339c12.41-4.444 21.184-9.338 26.326-14.664l201.014-208.674c5.126-5.338 9.839-14.445 14.117-27.334h-241.457v250.673zM840.812 21.33h-657.614v853.336h328.803v-277.337c0-17.779 5.988-32.887 17.977-45.333 11.993-12.439 26.542-18.666 43.675-18.666h267.16v-512zM260.962 243.855h504.102v72.9h-504.102v-72.9zM597.030 462.556h-336.068v-72.9h336.068v72.9zM260.962 98.055h504.102v72.9h-504.102v-72.9z" />
<glyph unicode="&#xe91a;" glyph-name="file-img" d="M910.168 656.004c-8.561 21.331-18.829 38.213-30.823 50.659l-200.366 208.009c-11.993 12.434-28.252 23.105-48.804 32-20.543 8.885-39.381 13.328-56.499 13.328h-411.029c-17.122 0-31.68-6.218-43.666-18.664-11.989-12.439-17.981-27.551-17.981-45.333v-896.004c0-17.786 5.992-32.899 17.981-45.34 11.989-12.434 26.544-18.659 43.669-18.659h698.716c17.12 0 31.668 6.225 43.653 18.659 11.984 12.451 17.981 27.554 17.981 45.34v597.337c0.007 17.779-4.274 37.337-12.832 58.668zM594.211 869.339c12.41-4.444 21.184-9.338 26.326-14.664l201.014-208.674c5.126-5.338 9.839-14.445 14.117-27.334h-241.457v250.673zM840.812 21.33h-657.614v853.336h328.803v-277.337c0-17.779 5.988-32.887 17.977-45.333 11.993-12.439 26.542-18.666 43.675-18.666h267.16v-512zM339.819 391.852c45.761 0 82.901 34.6 82.901 77.284 0 42.633-37.14 77.181-82.901 77.181s-82.901-34.549-82.901-77.181c0-42.684 37.14-77.284 82.901-77.284zM382.978 254.688l-126.059-156.437h504.237l-126.059 365.020-126.059-312.874-126.059 104.291z" />
<glyph unicode="&#xe91b;" glyph-name="file-pdf" d="M910.168 656.004c-8.561 21.331-18.829 38.213-30.823 50.659l-200.366 208.009c-11.993 12.434-28.252 23.105-48.804 32-20.543 8.885-39.381 13.328-56.499 13.328h-411.029c-17.122 0-31.68-6.218-43.666-18.664-11.989-12.439-17.981-27.551-17.981-45.333v-896.004c0-17.786 5.992-32.899 17.981-45.34 11.989-12.434 26.544-18.659 43.669-18.659h698.716c17.12 0 31.668 6.225 43.653 18.659 11.984 12.451 17.981 27.554 17.981 45.34v597.337c0.007 17.779-4.274 37.337-12.832 58.668zM594.211 869.339c12.41-4.444 21.184-9.338 26.326-14.664l201.014-208.674c5.126-5.338 9.839-14.445 14.117-27.334h-241.457v250.673zM840.812 21.33h-657.614v853.336h328.803v-277.337c0-17.779 5.988-32.887 17.977-45.333 11.993-12.439 26.542-18.666 43.675-18.666h267.16v-512zM768.055 295.446c-12.527 11.36-37.857 17.376-75.296 17.888-25.338 0.308-55.489-2.029-86.92-6.698-15.444 8.615-31.422 17.992-44.47 29.282-35.094 30.345-53.991 52.575-76.15 98.892 0.506 4.328 6.054 63.922 6.398 67.802 0 0-0.604 46.234-9.76 81.386-1.256 4.82-12.848 31.933-14.571 35.68-13.775 15.591-14.272 15.308-27.324 22.224l-17.196 1.288c-16.392 0-28.635-8.729-30.473-21.776-5.426-40.921 13.41-102.137 43.479-181.424l-3.451-12.914c-9.639-36.226-22.859-72.709-34.522-104.896l-1.515-4.187c-12.275-33.829-23.667-62.546-34.211-86.874l-13.108-7.761c-0.954-0.553-23.417-13.872-28.628-17.441-44.261-29.891-71.783-63.825-73.625-90.753-0.588-8.592 2.102-19.588 11.282-24.68l14.552-7.146c6.31-3.086 12.748-4.648 19.139-4.648 34.247 0 76.099 23.834 118.14 123.353 60.495 21.436 130.214 39.252 192.057 49.078 51.692-28.191 105.564-27.187 142.892-27.187 6.628 0 12.257 0.658 16.736 1.936 6.906 1.98 12.397 6.226 15.337 11.994 5.79 11.347 5.26 26.978 1.247 42.982-1.195 4.752-5.586 10.621-10.043 14.63zM291.296 123.182c3.97 17.778 17.445 20.419 50.008 51.605 2.050 1.943-3.841-3.695 0.686 1.433-30.104-63.471-34.871-45.104-50.695-53.038zM433.834 616.038c11.009 0 18.031-20.158 22.016-47.243 3.983-27.086 0.333-46.096-5.416-60.162-8.914 20.826-16.134 53.65-18.879 75.112 0 0-6.225 30.837-1.169 30.837zM430.928 260.37c5.841 14.292 11.892 29.365 18 45.35 14.868 39.131 16.905 40.934 23.034 66.101 23.097-35.216 30.559-43.201 60.846-67.189 3.774-2.988 5.36-7.372 9.525-10.37-53.892-11.403-71.443-17.037-111.407-33.892zM749.095 261.040c-3.088-2.195-21.593-0.553-27.806-0.553-20.047 0-23.964 3.719-60.721 19.242 13.227 1.033 25.411 1.555 36.397 1.555 20.107 0 13.982 2.066 34.317-3.191 20.33-5.219 20.509-15.342 17.42-17.537z" />
<glyph unicode="&#xe91c;" glyph-name="files" d="M969.143 740.571q22.857 0 38.857-16t16-38.857v-694.857q0-22.857-16-38.857t-38.857-16h-548.571q-22.857 0-38.857 16t-16 38.857v164.571h-310.857q-22.857 0-38.857 16t-16 38.857v384q0 22.857 11.429 50.286t27.429 43.429l233.143 233.143q16 16 43.429 27.429t50.286 11.429h237.714q22.857 0 38.857-16t16-38.857v-187.429q38.857 22.857 73.143 22.857h237.714zM658.286 618.857l-170.857-170.857h170.857v170.857zM292.571 838.286l-170.857-170.857h170.857v170.857zM404.571 468.571l180.571 180.571v237.714h-219.429v-237.714q0-22.857-16-38.857t-38.857-16h-237.714v-365.714h292.571v146.286q0 22.857 11.429 50.286t27.429 43.429zM950.857 9.143v658.286h-219.429v-237.714q0-22.857-16-38.857t-38.857-16h-237.714v-365.714h512z" />
<glyph unicode="&#xe91d;" glyph-name="file-xls" d="M910.168 656.004c-8.561 21.331-18.829 38.213-30.823 50.659l-200.366 208.009c-11.993 12.434-28.252 23.105-48.804 32-20.543 8.885-39.381 13.328-56.499 13.328h-411.029c-17.122 0-31.68-6.218-43.666-18.664-11.989-12.439-17.981-27.551-17.981-45.333v-896.004c0-17.786 5.992-32.899 17.981-45.34 11.989-12.434 26.544-18.659 43.669-18.659h698.716c17.12 0 31.668 6.225 43.653 18.659 11.984 12.451 17.981 27.554 17.981 45.34v597.337c0.007 17.779-4.274 37.337-12.832 58.668zM594.211 869.339c12.41-4.444 21.184-9.338 26.326-14.664l201.014-208.674c5.126-5.338 9.839-14.445 14.117-27.334h-241.457v250.673zM840.812 21.33h-657.614v853.336h328.803v-277.337c0-17.779 5.988-32.887 17.977-45.333 11.993-12.439 26.542-18.666 43.675-18.666h267.16v-512zM255.81 100.669h110.927v521.72h-110.927v-521.72zM455.067 100.669h107.797v238.268h-107.797v-238.268zM758.992 441.51h-104.667v-340.84h104.667v340.84z" />
<glyph unicode="&#xe91e;" glyph-name="folder" d="M823.385 190.114v377.5q0 21.449-15.010 36.463t-36.452 15.014h-377.385q-21.442 0-36.452 15.014t-15.010 36.463v34.318q0 21.449-15.010 36.463t-36.452 15.014h-171.538q-21.442 0-36.452-15.014t-15.010-36.463v-514.773q0-21.449 15.010-36.463t36.452-15.014h651.846q21.442 0 36.452 15.014t15.010 36.463zM892 567.614v-377.5q0-49.332-35.38-84.723t-84.697-35.391h-651.846q-49.317 0-84.697 35.391t-35.38 84.723v514.773q0 49.332 35.38 84.723t84.697 35.391h171.538q49.317 0 84.697-35.391t35.38-84.723v-17.159h360.231q49.317 0 84.697-35.391t35.38-84.723z" />
<glyph unicode="&#xe91f;" glyph-name="folder-opened" d="M955.34 394.414q0 18.768-28.43 18.768h-583.61q-21.456 0-45.863-11.529t-38.353-28.152l-157.704-194.648q-9.655-12.869-9.655-21.449 0-18.768 28.43-18.768h583.61q21.456 0 46.131 11.797t38.085 28.42l157.704 194.648q9.655 11.797 9.655 20.913zM343.3 481.818h411.96v85.795q0 21.449-15.019 36.463t-36.476 15.014h-308.97q-21.456 0-36.476 15.014t-15.019 36.463v34.318q0 21.449-15.019 36.463t-36.476 15.014h-171.65q-21.456 0-36.476-15.014t-15.019-36.463v-457.397l137.32 168.91q23.602 28.42 62.223 46.919t75.097 18.5zM1024 394.414q0-33.246-24.675-64.347l-158.24-194.648q-23.065-28.42-62.223-46.919t-75.097-18.5h-583.61q-49.349 0-84.752 35.391t-35.403 84.723v514.773q0 49.332 35.403 84.723t84.752 35.391h171.65q49.349 0 84.752-35.391t35.403-84.723v-17.159h291.805q49.349 0 84.752-35.391t35.403-84.723v-85.795h102.99q28.966 0 53.104-13.137t35.939-37.804q8.046-17.159 8.046-36.463z" />
<glyph unicode="&#xe920;" glyph-name="hidden" d="M513.092 634.678c-30.567 0-58.951-6.55-85.151-17.467l-100.435 100.435c58.951 21.834 120.085 32.751 183.403 32.751 113.535 0 218.337-32.751 312.222-98.252 91.701-63.318 159.386-148.469 200.87-251.087-34.934-87.335-87.335-161.569-159.386-220.52l-135.369 135.369c8.733 28.384 15.284 56.768 15.284 85.151 0 63.318-24.017 117.902-67.684 163.753-45.851 45.851-100.435 69.868-163.753 69.868zM45.851 761.313l58.951 58.951 827.497-825.313-58.951-58.951-137.552 135.369-19.65 19.65c-65.501-26.2-133.186-39.301-203.053-39.301-115.719 0-220.52 32.751-312.222 96.068-93.885 65.501-161.569 150.652-200.87 253.271 34.934 93.885 93.885 170.303 174.67 231.437zM303.488 503.676c-17.467-32.751-24.017-67.684-24.017-102.618 0-63.318 21.834-120.085 67.684-165.936s100.435-67.684 165.936-67.684c34.934 0 67.684 8.733 102.618 26.2l-72.051 72.051c-13.1-2.183-21.834-4.367-30.567-4.367-39.301 0-74.235 13.1-100.435 39.301-26.2 28.384-39.301 61.134-39.301 100.435 0 10.917 0 19.65 2.183 30.567zM504.358 540.793h8.733c37.117 0 69.868-13.1 98.252-41.484 26.2-28.384 41.484-61.134 41.484-98.252l-2.183-8.733z" />
<glyph unicode="&#xe921;" glyph-name="home" d="M393.846-25v315.333h236.308v-315.333h241.231v473h152.615l-512 473-512-473h152.615v-473h241.231z" />
<glyph unicode="&#xe922;" glyph-name="chevron-down" d="M510.801 960c141.489 0 261.396-50.479 362.117-151.437 100.721-98.554 151.082-218.742 151.082-360.563s-50.361-262.009-151.082-362.967c-100.721-98.554-220.628-149.033-362.117-149.033s-261.396 50.479-362.117 149.033c-100.721 100.958-148.684 221.146-148.684 362.967s47.963 262.009 148.684 360.563c100.721 100.958 220.628 151.437 362.117 151.437zM256.6 551.361l254.201-257.202 256.6 257.202h-510.801z" />
<glyph unicode="&#xe923;" glyph-name="chevron-left" d="M1024 449.199c0-141.489-50.479-261.396-151.437-362.117-98.554-100.721-218.742-151.082-360.563-151.082s-262.009 50.361-362.967 151.082c-98.554 100.721-149.033 220.628-149.033 362.117s50.479 261.396 149.033 362.117c100.958 100.721 221.146 148.684 362.967 148.684s262.009-47.963 360.563-148.684c100.958-100.721 151.437-220.628 151.437-362.117zM615.362 703.4l-257.202-254.201 257.202-256.6v510.801z" />
<glyph unicode="&#xe924;" glyph-name="chevron-right" d="M0 446.801c0 141.489 50.479 261.396 151.437 362.117 98.554 100.721 218.742 151.082 360.563 151.082s262.009-50.361 362.967-151.082c98.554-100.721 149.033-220.628 149.033-362.117s-50.479-261.396-149.033-362.117c-100.958-100.721-221.146-148.684-362.967-148.684s-262.009 47.963-360.563 148.684c-100.958 100.721-151.437 220.628-151.437 362.117zM408.639 192.6l257.202 254.201-257.202 256.6v-510.801z" />
<glyph unicode="&#xe925;" glyph-name="chevron-up" d="M513.199-64c-141.489 0-261.396 50.479-362.117 151.437-100.721 98.554-151.082 218.742-151.082 360.563s50.361 262.009 151.082 362.967c100.721 98.554 220.628 149.033 362.117 149.033s261.396-50.479 362.117-149.033c100.721-100.958 148.684-221.146 148.684-362.967s-47.963-262.009-148.684-360.563c-100.721-100.958-220.628-151.437-362.117-151.437zM767.401 344.638l-254.201 257.202-256.6-257.202h510.801z" />
<glyph unicode="&#xe926;" glyph-name="import" d="M787.692 54.355c0 10.685-3.897 19.931-11.692 27.74s-17.026 11.712-27.692 11.712c-10.667 0-19.897-3.904-27.692-11.712s-11.692-17.055-11.692-27.74c0-10.685 3.897-19.931 11.692-27.74s17.026-11.712 27.692-11.712c10.667 0 19.897 3.904 27.692 11.712s11.692 17.055 11.692 27.74zM945.231 54.355c0 10.685-3.897 19.931-11.692 27.74s-17.026 11.712-27.692 11.712c-10.667 0-19.897-3.904-27.692-11.712s-11.692-17.055-11.692-27.74c0-10.685 3.897-19.931 11.692-27.74s17.026-11.712 27.692-11.712c10.667 0 19.897 3.904 27.692 11.712s11.692 17.055 11.692 27.74zM1024 192.436v-197.259c0-16.438-5.744-30.411-17.231-41.918s-25.436-17.26-41.846-17.26h-905.846c-16.41 0-30.359 5.753-41.846 17.26s-17.231 25.479-17.231 41.918v197.259c0 16.438 5.744 30.411 17.231 41.918s25.436 17.26 41.846 17.26h262.769c8.615-23.014 23.077-41.918 43.385-56.712s42.974-22.192 68-22.192h157.538c25.026 0 47.692 7.397 68 22.192s34.769 33.698 43.385 56.712h262.769c16.41 0 30.359-5.753 41.846-17.26s17.231-25.479 17.231-41.918zM824 629.591c-6.974-16.438-19.077-24.625-36.308-24.657h-157.538v-313.868c0-10.685-3.897-19.931-11.692-27.74s-17.026-11.712-27.692-11.712h-157.538c-10.667 0-19.897 3.904-27.692 11.712s-11.692 17.055-11.692 27.74v313.868h-157.538c-17.231 0-29.333 8.219-36.308 24.657-6.974 16.027-4.103 30.205 8.615 42.534l275.692 276.162c7.385 7.808 16.615 11.712 27.692 11.712s20.308-3.904 27.692-11.712l275.692-276.162c12.718-12.329 15.59-26.507 8.615-42.534z" />
<glyph unicode="&#xe927;" glyph-name="layer-off" d="M911.288 244.635l-74.342 74.168 62.351 45.458 71.944-71.776zM765.002 390.579l-402.885 401.944 148.684 114.841 460.44-356.486c-69.234-52.804-137.666-106.642-206.239-160.299zM64.749 960l959.251-957.009-64.749-64.598-194.248 193.794-254.201-196.187-460.44 356.486 83.934 64.598 376.506-294.28 182.258 141.159-74.342 71.776-107.916-81.346c-153.449 118.869-306.618 238.1-460.44 356.486l165.471 129.196-215.831 215.327z" />
<glyph unicode="&#xe928;" glyph-name="layer-on" d="M512 69.675l395.771 310.227 88.229-68.099-484-375.803-484 375.803 88.229 68.099zM512 208.394l-395.771 307.704-88.229 68.099 484 375.803 484-375.803-88.229-68.099z" />
<glyph unicode="&#xe929;" glyph-name="locate" d="M927.932 493.753h96.068v-91.506h-96.068c-10.917-98.043-50.217-180.834-120.085-250.553-69.868-67.54-152.836-108.936-248.904-119.83v-95.864h-93.885v95.864c-96.068 10.894-179.036 52.289-248.904 119.83-69.868 69.719-111.352 152.511-120.085 250.553h-96.068v91.506h96.068c8.733 98.043 50.217 180.834 120.085 248.375 69.868 69.719 152.836 111.115 248.904 122.008v95.864h93.885v-95.864c96.068-10.894 179.036-52.289 248.904-122.008 69.868-67.54 109.168-150.332 120.085-248.375zM513.092 123.37c89.518 0 165.936 30.502 229.254 93.685s96.068 141.617 96.068 230.945c0 89.328-32.751 165.583-96.068 228.766s-139.736 95.864-229.254 95.864c-91.701 0-168.119-32.681-231.437-95.864-65.501-63.183-96.068-139.438-96.068-228.766s30.567-167.762 96.068-230.945c63.318-63.183 139.736-93.685 231.437-93.685z" />
<glyph unicode="&#xe92a;" glyph-name="locate-disabled" d="M927.932 493.753h96.068v-91.506h-93.885c-6.55-52.289-21.834-102.4-45.851-148.153l-69.868 69.719c15.284 41.396 24.017 82.791 24.017 124.187 0 89.328-32.751 165.583-96.068 228.766s-139.736 95.864-229.254 95.864c-43.667 0-85.151-8.715-124.452-23.966l-69.868 69.719c45.851 23.966 93.885 39.217 146.286 45.753v95.864h93.885v-95.864c96.068-10.894 179.036-52.289 248.904-122.009 69.868-67.54 109.168-150.332 120.085-248.374zM93.885 807.489l58.951 58.826 779.463-777.804-58.951-58.826-96.068 95.864c-65.501-52.289-137.552-82.791-218.337-93.685v-95.864h-93.885v95.864c-96.068 10.894-179.036 52.289-248.904 119.83-69.868 69.719-111.352 152.511-120.085 250.553h-96.068v91.506h96.068c8.733 80.613 39.301 154.689 91.701 217.872zM711.778 190.911l-458.507 455.353c-45.851-58.826-67.684-124.187-67.684-198.264 0-89.328 30.567-167.762 96.068-230.945 63.318-63.183 139.736-93.685 231.437-93.685 72.051 0 137.552 21.787 198.687 67.54z" />
<glyph unicode="&#xe92b;" glyph-name="locate-success" d="M510.908 633.191c52.401 0 96.068-17.43 133.186-54.468 34.934-37.038 54.584-80.613 54.584-130.723s-19.65-93.685-54.584-130.723c-37.117-37.038-80.785-54.468-133.186-54.468s-96.068 17.43-131.002 54.468c-37.117 37.038-54.584 80.613-54.584 130.723s17.467 93.685 54.584 130.723c34.934 37.038 78.601 54.468 131.002 54.468zM927.932 493.753h96.068v-91.506h-96.068c-10.917-98.043-50.217-180.834-120.085-250.553-69.868-67.54-152.836-108.936-248.904-119.83v-95.864h-93.885v95.864c-96.068 10.894-179.036 52.289-248.904 119.83-69.868 69.719-111.352 152.511-120.085 250.553h-96.068v91.506h96.068c8.733 98.043 50.217 180.834 120.085 248.374 69.868 69.719 152.836 111.115 248.904 122.009v95.864h93.885v-95.864c96.068-10.894 179.036-52.289 248.904-122.009 69.868-67.54 109.168-150.332 120.085-248.374zM513.092 123.37c89.518 0 165.936 30.502 229.254 93.685s96.068 141.617 96.068 230.945c0 89.328-32.751 165.583-96.068 228.766s-139.736 95.864-229.254 95.864c-91.701 0-168.119-32.681-231.437-95.864-65.501-63.183-96.068-139.438-96.068-228.766s30.567-167.762 96.068-230.945c63.318-63.183 139.736-93.685 231.437-93.685z" />
<glyph unicode="&#xe92c;" glyph-name="marker" d="M510.799 960c98.455 0 182.502-36.056 254.542-105.765 69.639-69.709 105.659-153.84 105.659-252.394 0-50.479-14.408-108.169-38.421-173.070s-55.231-124.995-88.849-180.282c-36.020-55.286-72.040-105.765-105.659-156.244-36.020-48.075-64.836-86.535-88.849-115.38l-38.421-40.864c-9.605 9.615-24.013 24.038-38.421 43.268-16.809 19.23-45.625 55.286-86.448 110.573s-76.843 110.573-108.060 161.052c-33.619 52.883-62.435 112.977-86.448 177.878-26.415 64.901-38.421 122.592-38.421 173.070 0 98.554 33.619 182.685 103.258 252.394s153.686 105.765 254.542 105.765zM510.799 474.441c33.619 0 64.836 12.019 91.251 36.056 24.013 26.441 38.421 55.286 38.421 91.343s-14.408 64.901-38.421 88.939c-26.415 26.441-57.632 38.46-91.251 38.46-36.020 0-67.237-12.019-91.251-38.46-24.013-24.038-36.020-52.883-36.020-88.939s12.007-64.901 36.020-91.343c24.013-24.038 55.231-36.056 91.251-36.056z" />
<glyph unicode="&#xe92d;" glyph-name="marker-edit" d="M501.060 921c-126.906 0-229.744-105.111-229.744-232.12 0-172.995 229.744-429.204 229.744-429.204s231.932 256.208 231.932 429.204c2.188 127.009-102.838 232.12-231.932 232.12zM450.735 588.148h-45.949v48.176l109.402 109.491 45.949-45.986zM597.333 737.056l-24.068-24.088-45.949 45.986 24.068 24.088c4.376 4.38 13.128 4.38 17.504 0l30.632-30.657c2.188-4.38 2.188-10.949-2.188-15.329zM606.085 187.412c0 24.088-48.137 43.796-107.214 43.796s-107.214-19.708-107.214-43.796c0-24.088 48.137-43.796 107.214-43.796s107.214 19.708 107.214 43.796zM336.957 391.065l-126.906-50.366 153.162-61.315-78.769-32.847-153.162 61.315-131.282-50.366 17.504 131.389h319.453v2.19zM667.35-25l131.282 59.125-170.667 70.074 78.769 35.037 170.667-70.074 126.906 54.745 19.692-148.907h-356.65z" />
<glyph unicode="&#xe92e;" glyph-name="marker-locate" d="M818.171 652.319c0-43.268-12.007-91.343-31.217-146.629-21.612-55.286-48.027-105.765-76.843-151.437-31.217-45.671-62.435-91.343-91.251-132.207s-55.231-74.516-74.441-96.15l-33.619-36.056c-9.605 7.211-19.211 19.23-33.619 36.056s-38.421 48.075-72.040 93.746c-36.020 45.671-67.237 91.343-93.652 134.61-28.816 45.671-52.829 93.746-74.441 149.033-24.013 55.286-33.619 105.765-33.619 149.033 0 84.131 28.816 156.244 88.849 216.338s132.074 91.343 218.522 91.343c84.047 0 156.087-31.249 216.12-91.343s91.251-132.207 91.251-216.338zM409.943 652.319c0-26.441 9.605-50.479 28.816-72.113 19.211-19.23 43.224-28.845 72.040-28.845s52.829 9.615 72.040 28.845c19.211 21.634 31.217 45.671 31.217 72.113 0 28.845-12.007 52.883-31.217 72.113-19.211 21.634-43.224 31.249-72.040 31.249s-52.829-9.615-72.040-31.249c-19.211-19.23-28.816-43.268-28.816-72.113zM153 36.958h718v-100.958h-718v100.958z" />
<glyph unicode="&#xe92f;" glyph-name="marker-off" d="M562.531 729.239c-36.094 0-67.375-14.423-93.844-43.268l-163.625 163.455c69.781 74.516 156.406 110.573 257.469 110.573 98.656 0 185.281-36.056 255.063-105.765s105.875-153.84 105.875-252.394c0-76.92-28.875-170.667-89.031-281.239l-185.281 187.493c28.875 26.441 43.313 57.69 43.313 93.746s-12.031 64.901-38.5 88.939c-26.469 26.441-55.344 38.46-91.438 38.46zM788.719 238.873l185.281-187.493-64.969-64.901-173.25 170.667c-26.469-36.056-52.938-74.516-81.813-112.977-28.875-36.056-50.531-64.901-67.375-81.728l-24.063-26.441c-9.625 9.615-21.656 24.038-38.5 43.268s-43.313 55.286-84.219 110.573c-40.906 55.286-79.406 110.573-110.688 161.052-31.281 52.883-60.156 112.977-86.625 177.878s-38.5 122.592-38.5 173.070c0 26.441 2.406 52.883 9.625 79.324l-163.625 163.455 64.969 64.901 435.531-435.080z" />
<glyph unicode="&#xe930;" glyph-name="relation-link" d="M903.142 208.481c0 15.382-4.395 30.764-17.579 41.751l-129.648 129.648c-10.987 13.185-26.369 17.579-43.948 17.579s-30.764-6.592-43.948-19.777l24.172-24.172c0 0 6.592-6.592 10.987-13.185 4.395-4.395 6.592-8.79 6.592-15.382 2.197-4.395 2.197-10.987 2.197-17.579 0-15.382-4.395-30.764-17.579-41.751-10.987-10.987-24.172-17.579-41.751-17.579-6.592 0-10.987 0-17.579 2.197-4.395 2.197-10.987 4.395-15.382 8.79-6.592 2.197-8.79 6.592-13.185 8.79l-13.185 13.185c0 0-8.79 10.987-10.987 10.987-13.185-10.987-19.777-26.369-19.777-43.948s4.395-32.961 17.579-43.948l127.451-129.648c13.185-10.987 26.369-17.579 43.948-17.579 15.382 0 30.764 6.592 41.751 17.579l92.292 90.094c13.185 13.185 17.579 26.369 17.579 43.948zM461.459 650.163c0 17.579-4.395 30.764-17.579 41.751l-127.451 131.845c-13.185 10.987-26.369 17.579-43.948 17.579-15.382 0-30.764-6.592-41.751-17.579l-92.292-92.292c-13.185-10.987-17.579-26.369-17.579-41.751 0-17.579 4.395-30.764 17.579-41.751l129.648-131.845c10.987-10.987 26.369-17.579 43.948-17.579s30.764 6.592 43.948 19.777c0 2.197-4.395 6.592-10.987 13.185l-24.172 24.172c-4.395 6.592-6.592 10.987-6.592 15.382-2.197 6.592-2.197 10.987-2.197 17.579 0 17.579 4.395 30.764 17.579 43.948 10.987 10.987 24.172 17.579 41.751 17.579 6.592 0 10.987-2.197 17.579-2.197 4.395-2.197 10.987-4.395 15.382-8.79 6.592-4.395 8.79-6.592 13.185-8.79l13.185-13.185c0 0 8.79-10.987 10.987-13.185 13.185 13.185 19.777 28.567 19.777 46.146zM1024 208.481c0-50.541-17.579-94.489-52.738-127.451l-92.292-92.292c-35.159-35.159-76.91-52.738-127.451-52.738s-94.489 17.579-127.451 52.738l-129.648 131.845c-35.159 32.961-52.738 76.91-52.738 127.451s17.579 94.489 54.936 129.648l-54.936 54.936c-35.159-35.159-79.107-54.936-129.648-54.936s-94.489 17.579-129.648 52.738l-129.648 131.845c-35.159 35.159-52.738 76.91-52.738 127.451s17.579 92.292 52.738 127.451l92.292 92.292c35.159 35.159 76.91 50.541 127.451 50.541s94.489-17.579 127.451-52.738l129.648-129.648c35.159-35.159 52.738-76.91 52.738-127.451s-17.579-94.489-54.936-131.845l54.936-54.936c35.159 37.356 79.107 54.936 129.648 54.936s94.489-17.579 129.648-52.738l129.648-129.648c35.159-35.159 52.738-79.107 52.738-127.451z" />
<glyph unicode="&#xe931;" glyph-name="search" d="M732.997 314.853l291.003-291.003-87.85-87.85-291.003 291.003v46.67l-16.472 16.472c-71.378-60.397-153.737-90.595-247.078-90.595-107.067 0-197.662 35.689-271.786 109.812s-109.812 164.718-109.812 269.040c0 107.067 35.689 194.917 109.812 269.040s164.718 112.558 269.040 112.558c104.322 0 194.917-38.434 269.040-112.558s112.558-161.973 112.558-269.040c0-93.34-30.198-175.7-90.595-247.078l16.472-16.472h46.67zM381.598 314.853c71.378 0 134.52 24.708 186.681 76.869 49.416 52.161 76.869 112.558 76.869 186.681s-27.453 134.52-76.869 186.681c-52.161 52.161-115.303 76.869-186.681 76.869-74.123 0-137.265-24.708-186.681-76.869-52.161-52.161-76.869-112.558-76.869-186.681s24.708-134.52 76.869-186.681c49.416-52.161 112.558-76.869 186.681-76.869z" />
<glyph unicode="&#xe932;" glyph-name="synchro-error" d="M469 411.215v260.785h86v-260.785h-86zM469 236v87.607h86v-87.607h-86zM412.295 86.086l-262.334-0.125 98.808 98.808c-72.493 72.493-109.486 161.977-109.437 263.824 1.592 103.391 37.127 191.367 108.145 262.385 50.948 50.948 111.146 83.383 182.137 98.848l-0.046-95.675c-43.214-12.366-81.803-35.531-115.769-69.496-54.036-54.036-81.843-118.861-81.88-196.018s27.707-145.042 81.691-199.026l98.808 98.808zM708.844 644.844l-98.808-98.808 1.669 263.877 262.334 0.125-98.808-98.808c72.493-72.493 111.029-160.433 109.437-263.824-0.049-101.847-35.583-189.823-109.689-263.929-49.404-49.404-111.146-83.383-182.137-98.848l1.59 97.218c43.214 12.366 81.803 35.531 114.225 67.953 55.58 55.579 81.845 121.947 81.881 199.104s-27.709 141.956-81.693 195.94z" />
<glyph unicode="&#xe933;" glyph-name="synchro-ko" d="M427.76 715.060c-6.361-2.12-19.082-8.481-33.923-16.962l-65.727 67.847c31.803 19.082 63.607 33.923 99.65 42.404zM109.087 746.665l57.246 57.246 710.273-712.393-57.246-57.246-109.211 106.011c-31.803-19.082-65.727-33.923-101.77-42.404v93.29c10.601 4.24 21.202 10.601 36.044 16.962l-375.469 377.79c-19.082-40.284-35.412-99.38-35.412-143.905 0-74.208 27.563-137.814 80.568-190.82l117.251 105.35v-271.388h-271.388l90.531 102.432c-72.087 69.967-105.578 154.458-109.751 254.021-3.646 86.98 23.996 155.726 60.040 212.972zM885.087 810.271l-108.131-108.131c72.087-69.967 108.131-154.776 108.131-254.426 0-69.967-19.082-133.574-55.126-190.82l-67.847 65.727c21.202 40.284 31.803 80.568 31.803 125.093 0 74.208-27.563 137.814-80.568 190.82l-99.65-99.65v271.388z" />
<glyph unicode="&#xe934;" glyph-name="synchro-ok" d="M185.586 262.591l-185.586 185.409h139.736c0 102.52 37.117 191.953 109.168 263.936 74.235 71.982 161.569 109.064 262.004 109.064 72.051 0 137.552-19.632 198.687-58.895l-67.684-67.62c-39.301 21.813-82.968 32.719-131.002 32.719-76.418 0-141.919-26.175-196.503-80.708s-82.968-122.152-82.968-198.497h139.736zM790.38 448h-139.736l187.77 185.409 185.586-185.409h-139.736c0-102.52-34.934-191.953-109.168-263.936-72.051-71.982-159.386-109.064-264.188-109.064-69.868 0-137.552 19.632-198.687 58.895l69.868 67.62c39.301-21.813 82.968-32.719 128.819-32.719 78.601 0 144.102 28.357 198.687 82.889s80.785 119.971 80.785 196.316z" />
<glyph unicode="&#xe935;" glyph-name="time" d="M512 960q103.82 0 198.766-40.374t163.716-109.144 109.144-163.716 40.374-198.766-40.374-198.766-109.144-163.716-163.716-109.144-198.766-40.374-198.766 40.374-163.716 109.144-109.144 163.716-40.374 198.766 40.374 198.766 109.144 163.716 163.716 109.144 198.766 40.374zM512 826.898q-102.932 0-190.336-50.579t-137.983-137.983-50.579-190.336 50.579-190.336 137.983-137.983 190.336-50.579 190.336 50.579 137.983 137.983 50.579 190.336-50.579 190.336-137.983 137.983-190.336 50.579zM445.449 714.204h44.367q8.873 0 15.529-6.655t6.655-15.529v-244.021h155.286q8.873 0 15.529-6.655t6.655-15.529v-44.367q0-8.873-6.655-15.529t-15.529-6.655h-221.837q-8.873 0-15.529 6.655t-6.655 15.529v310.572q0 8.873 6.655 15.529t15.529 6.655z" />
<glyph unicode="&#xe936;" glyph-name="user" d="M510.499 448c-72.070 0-132.129 23.953-180.176 74.854-51.050 50.901-75.073 110.784-75.073 179.649 0 71.86 24.023 131.743 75.073 182.643 48.047 50.901 108.106 74.854 180.176 74.854s132.129-23.953 183.179-74.854c48.047-50.901 75.073-110.784 75.073-182.643 0-68.865-27.026-128.749-75.073-179.649-51.050-50.901-111.109-74.854-183.179-74.854zM510.499 319.251c63.062 0 132.129-8.982 210.205-26.947 75.073-17.965 144.141-47.906 207.202-89.825 63.062-38.924 96.094-86.83 96.094-137.731v-128.749h-1024v128.749c0 50.901 30.029 98.807 93.091 137.731 63.062 41.918 132.129 71.86 210.205 89.825 75.073 17.965 144.141 26.947 207.202 26.947z" />
<glyph unicode="&#xe937;" glyph-name="view-data" d="M103.119 755.681v-718.723h714.642v-100.958h-714.642c-28.778 0-55.157 9.615-74.342 28.845-19.185 21.634-28.778 45.671-28.778 72.113v718.723h103.119zM920.881 960c28.778 0 52.759-9.615 71.944-31.249 19.185-19.23 31.176-43.268 31.176-69.709v-615.362c0-28.845-11.991-52.883-31.176-74.516-19.185-19.23-43.166-28.845-71.944-28.845h-613.92c-28.778 0-55.157 9.615-74.342 28.845-19.185 21.634-28.778 45.671-28.778 74.516v615.362c0 26.441 9.593 50.479 28.778 69.709 19.185 21.634 45.564 31.249 74.342 31.249h613.92zM870.52 498.479v103.362h-513.199v-103.362h513.199zM664.281 294.16v103.362h-306.96v-103.362h306.96zM870.52 705.202v100.958h-513.199v-100.958h513.199z" />
<glyph unicode="&#xe938;" glyph-name="view-map" d="M994.667 960c18.667 0 29.333-10.667 29.333-29.333v-858.667c0-13.333-8-24-21.333-26.667l-320-109.333-341.333 120-304-117.333-8-2.667c-18.667 0-29.333 10.667-29.333 29.333v858.667c0 13.333 8 24 21.333 26.667l320 109.333 341.333-120 304 117.333zM682.667 50.667v674.667l-341.333 120v-674.667z" />
<glyph unicode="&#xe939;" glyph-name="visible" d="M513.092 797c113.535 0 218.337-32.719 310.038-98.156 91.701-63.256 159.386-148.325 200.87-250.844-41.484-102.519-109.168-187.587-200.87-253.025-91.701-63.256-196.503-95.975-310.038-95.975-115.719 0-220.52 32.719-312.222 95.975-93.885 65.438-161.569 150.506-200.87 253.025 39.301 102.519 106.985 187.587 200.87 250.844 91.701 65.438 196.503 98.156 312.222 98.156zM513.092 214.606c63.318 0 117.902 21.813 163.753 67.619 43.667 45.806 67.684 102.519 67.684 165.775s-24.017 117.788-67.684 163.594c-45.851 45.806-100.435 69.8-163.753 69.8-65.501 0-120.085-23.994-165.936-69.8s-67.684-100.337-67.684-163.594c0-63.256 21.834-119.969 67.684-165.775s100.435-67.619 165.936-67.619zM510.908 587.6c39.301 0 72.051-13.087 100.435-41.444 26.2-26.175 41.484-58.894 41.484-98.156s-15.284-71.981-41.484-100.337c-28.384-26.175-61.134-39.263-100.435-39.263s-72.051 13.088-98.252 39.263c-26.2 28.356-39.301 61.075-39.301 100.337s13.1 71.981 39.301 98.156c26.2 28.356 58.951 41.444 98.252 41.444z" />
<glyph unicode="&#xe93a;" glyph-name="wifi-off" d="M1024 645.383l-241.062-298.131-453.28 452.336c59.751 14.393 119.501 20.561 181.312 20.561 185.433 0 356.443-57.57 513.030-174.766zM733.489 283.514l152.467-152.15-55.63-55.514-146.286 145.981-171.010-211.776-2.060-2.056v2.056l-510.97 635.327c47.388 37.009 100.958 69.907 162.769 96.636l-90.656 90.467 55.63 55.514z" />
<glyph unicode="&#xe93b;" glyph-name="zoom-in" d="M732.997 314.853l291.003-291.003-87.85-87.85-291.003 291.003v46.67l-16.472 16.472c-71.378-60.397-153.737-90.595-247.078-90.595-107.067 0-197.662 35.689-271.786 109.812s-109.812 164.718-109.812 269.040c0 107.067 35.689 194.917 109.812 269.040s164.718 112.558 269.040 112.558c104.322 0 194.917-38.434 269.040-112.558s112.558-161.973 112.558-269.040c0-93.34-30.198-175.7-90.595-247.078l16.472-16.472h46.67zM381.598 314.853c71.378 0 134.52 24.708 186.681 76.869 49.416 52.161 76.869 112.558 76.869 186.681s-27.453 134.52-76.869 186.681c-52.161 52.161-115.303 76.869-186.681 76.869-74.123 0-137.265-24.708-186.681-76.869-52.161-52.161-76.869-112.558-76.869-186.681s24.708-134.52 76.869-186.681c49.416-52.161 112.558-76.869 186.681-76.869zM527.099 550.949h-118.048v-118.048h-57.651v118.048h-118.048v57.651h118.048v118.048h57.651v-118.048h118.048v-57.651z" />
<glyph unicode="&#xe93c;" glyph-name="zoom-out" d="M732.997 314.853l291.003-291.003-87.85-87.85-291.003 291.003v46.67l-16.472 16.472c-71.378-60.397-153.737-90.595-247.078-90.595-107.067 0-197.662 35.689-271.786 109.812s-109.812 164.718-109.812 269.040c0 107.067 35.689 194.917 109.812 269.040s164.718 112.558 269.040 112.558c104.322 0 194.917-38.434 269.040-112.558s112.558-161.973 112.558-269.040c0-93.34-30.198-175.7-90.595-247.078l16.472-16.472h46.67zM381.598 314.853c71.378 0 134.52 24.708 186.681 76.869 49.416 52.161 76.869 112.558 76.869 186.681s-27.453 134.52-76.869 186.681c-52.161 52.161-115.303 76.869-186.681 76.869-74.123 0-137.265-24.708-186.681-76.869-52.161-52.161-76.869-112.558-76.869-186.681s24.708-134.52 76.869-186.681c49.416-52.161 112.558-76.869 186.681-76.869zM233.351 608.601h293.748v-57.651h-293.748v57.651z" />
<glyph unicode="&#xe93d;" glyph-name="point-remove-on-map" d="M0 448c0-281.938 230.062-512 512-512s512 230.062 512 512c0 281.938-230.062 512-512 512s-512-227.806-512-512zM207.507 675.806l74.432 76.687 227.806-227.806 227.806 227.806 74.432-76.687-223.295-227.806 227.806-227.806-74.432-74.432-230.062 227.806-227.806-227.806-74.432 74.432 227.806 227.806-230.062 227.806z" />
<glyph unicode="&#xe93e;" glyph-name="undo" d="M527.858 620.163c-133.664 0-253.735-47.571-346.619-129.122l-181.239 178.959v-444h450.832l-181.239 178.959c70.23 56.633 158.584 92.878 256 92.878 178.973 0 328.496-113.265 380.602-271.837l117.805 38.51c-65.699 206.143-262.796 355.653-496.142 355.653z" />
<glyph unicode="&#xe93f;" glyph-name="edit-cross" d="M512 448l-92.476-279.683h-139.841l232.317-232.317 232.317 232.317h-139.841l-92.476 279.683zM1024 448l-232.317 207.507v-112.775l-279.683-92.476 279.683-92.476v-119.542l232.317 209.762zM512 448l-279.683 92.476v119.542l-232.317-212.018 232.317-214.273v119.542l279.683 94.731zM512 448l92.476 279.683h139.841l-232.317 232.317-232.317-232.317h139.841l92.476-279.683z" />
<glyph unicode="&#xe940;" glyph-name="add-point" d="M489.951 832c-199.765 0-361.951-169.244-361.951-378.311 0-201.102 152.296-366.364 344.15-376.32-11.867 23.893-21.757 51.769-27.69 79.644-138.451 23.893-243.278 147.342-243.278 298.667 0 167.253 130.54 302.649 290.747 302.649 128.562 0 237.345-87.609 276.902-209.067 27.69-1.991 53.403-7.964 79.115-15.929-35.602 169.244-181.964 298.667-357.995 298.667zM654.114 535.324c-112.739-35.84-197.787-137.387-215.588-260.836-75.159 23.893-130.54 95.573-130.54 181.191 0 103.538 81.093 189.156 181.964 189.156 73.181-1.991 136.473-45.796 164.163-109.511zM753.008 501.476c-150.318 0-270.969-127.431-270.969-282.738s120.65-282.738 270.969-282.738c150.318 0 270.969 127.431 270.969 282.738 1.978 155.307-120.65 282.738-270.969 282.738zM889.481 190.862h-108.783v-113.493h-53.403v113.493h-108.783v55.751h108.783v113.493h53.403v-113.493h108.783v-55.751z" />
<glyph unicode="&#xe941;" glyph-name="remove-point" d="M525.563 754.087c134.499 0 249.219-79.861 296.689-194.783h85.051c-51.426 157.774-201.748 272.696-379.762 272.696-219.55 0-399.541-175.304-399.541-389.565s178.013-389.565 399.541-389.565c5.934 0 13.845 0 19.779 0v77.913c-5.934 0-13.845 0-19.779 0-176.035 0-318.446 140.243-318.446 311.652s140.433 311.652 316.468 311.652zM654.128 520.348l31.647 38.957c-35.603 46.748-94.94 77.913-160.212 77.913-110.764 0-199.77-87.652-199.77-194.783s89.007-194.783 199.77-194.783c5.934 0 13.845 0 19.779 0v132.452l-29.669 5.843v134.4h138.455zM909.28 487.235l-31.647 33.113h-164.168l-33.625-33.113h-114.72v-64.278h458.879v64.278h-114.72zM679.841 232.070l45.492 46.748 69.227-68.174 69.227 68.174 45.492-46.748-69.227-68.174 69.227-68.174-45.492-46.748-69.227 68.174-69.227-68.174-45.492 44.8 69.227 68.174-69.227 70.122zM598.746 0.278c0-35.061 29.669-64.278 65.272-64.278h261.086c35.603 0 65.272 29.217 65.272 64.278v389.565h-391.629v-389.565z" />
<glyph unicode="&#xe942;" glyph-name="add-line" d="M888.048 192.481h-109.207v-114.5h-55.718v114.5h-109.207v57.25h109.207v112.21h55.718v-112.21h109.207v-57.25zM749.868 503.922c-151.553 0-274.132-125.95-274.132-283.961s122.579-283.961 274.132-283.961c151.553 0 274.132 125.95 274.132 283.961s-122.579 283.961-274.132 283.961zM716.367 960c-80.008 0-144.867-66.643-144.867-148.85 0.056-19.732 3.84-38.539 10.666-55.74l-407.482-505.356c-8.94 2.076-19.224 3.295-29.776 3.354-80.050 0-144.909-66.642-144.909-148.85s64.859-148.85 144.867-148.85c80.008 0 144.867 66.643 144.867 148.85-0.042 27.581-7.378 53.392-20.131 75.518l396.27 491.662c14.997-5.943 32.347-9.402 50.48-9.437 80.022 0 144.881 66.643 144.881 148.85s-64.859 148.85-144.867 148.85zM716.367 898.188c0.005 0 0.011 0 0.017 0 46.774 0 84.691-38.96 84.691-87.020 0-0.006 0-0.013 0-0.019 0-0.004 0-0.011 0-0.017 0-48.060-37.918-87.020-84.691-87.020-0.006 0-0.012 0-0.018 0-0.004 0-0.010 0-0.016 0-46.774 0-84.691 38.96-84.691 87.020 0 0.006 0 0.013 0 0.019 0 0.004 0 0.011 0 0.017 0 48.060 37.918 87.020 84.691 87.020 0.006 0 0.012 0 0.018 0zM144.867 191.595c0.005 0 0.011 0 0.017 0 46.774 0 84.691-38.96 84.691-87.020 0-0.006 0-0.013 0-0.019 0-0.004 0-0.011 0-0.017 0-48.060-37.918-87.020-84.691-87.020-0.006 0-0.012 0-0.018 0-0.004 0-0.010 0-0.016 0-46.774 0-84.691 38.96-84.691 87.020 0 0.006 0 0.013 0 0.019 0 0.004 0 0.011 0 0.017 0 48.060 37.918 87.020 84.691 87.020 0.006 0 0.012 0 0.018 0z" />
<glyph unicode="&#xe943;" glyph-name="remove-line" d="M910.747 490.275l-33.032 32.881h-160.442l-33.032-32.881h-113.253v-65.761h453.014v65.761h-113.253zM684.24 234.275l44.829 46.972 68.424-68.11 68.424 68.11 44.829-46.972-68.424-68.11 68.424-68.11-44.829-46.972-68.424 68.11-68.424-68.11-44.829 46.972 68.424 68.11-68.424 68.11zM606.378 1.761c0-35.229 28.313-65.761 63.705-65.761h257.18c35.392 0 63.705 28.183 63.705 65.761v392.22h-384.59v-392.22zM716.367 960c-80.008 0-144.867-66.643-144.867-148.85 0.052-18.753 3.552-37.328 10.317-54.745l-407.133-506.351c-9.8 2.175-19.792 3.3-29.818 3.355-80.008 0-144.867-66.643-144.867-148.85s64.859-148.85 144.867-148.85c80.008 0 144.867 66.643 144.867 148.85-0.038 26.298-6.857 52.117-19.762 74.828l395.902 492.352c16.151-6.209 33.25-9.405 50.494-9.437 80.008 0 144.867 66.643 144.867 148.85s-64.859 148.85-144.867 148.85zM716.367 898.188c46.787 0.010 84.718-38.964 84.709-87.038 0.010-48.074-37.921-87.048-84.709-87.038-46.787-0.010-84.718 38.964-84.709 87.038-0.010 48.074 37.921 87.048 84.709 87.038zM144.867 191.595c46.787 0.010 84.718-38.964 84.709-87.038 0.010-48.074-37.921-87.048-84.709-87.038-46.787-0.010-84.718 38.964-84.709 87.038-0.010 48.074 37.921 87.048 84.709 87.038z" />
<glyph unicode="&#xe944;" glyph-name="add-polygon" d="M883.384 204.044h-111.132v-111.193h-56.7v111.193h-111.132v56.731h111.132v111.193h56.7v-111.193h111.132v-56.731zM745.035 510.393c-154.224 0-278.965-124.809-278.965-279.118s124.74-279.118 278.965-279.118c154.224 0 278.965 124.809 278.965 279.118s-124.74 279.118-278.965 279.118zM762.612 960c-81.419 0-147.42-66.038-147.42-147.501 0-1.362 0.227-2.719 0.227-4.078l-311.098-153.44c-26.88 23.761-61.497 36.905-97.365 36.964-81.419 0-147.42-66.038-147.42-147.501 0-54.6 30.219-104.715 78.45-130.26l-34.907-190.095c-61.327-19.352-103.042-76.247-103.079-140.587 0-81.462 66.001-147.501 147.42-147.501 60.277 0 114.466 36.762 136.833 92.765l173.269 50.348c-12.69 25.275-23.512 53.003-31.741 89.574l-138.382-39.269c-13.669 41.791-45.26 75.301-86.159 91.392l32.648 178.704c69.802 12.978 120.445 73.894 120.488 144.93 0 8.532-0.839 17.044-2.347 25.441l298.295 147.102c28.001-32.968 69.054-51.975 112.293-51.989h0.748l32.115-109.253c46.338-11.371 79.879-26.346 107.565-40.384l-46.301 183.365c-0.612-0.454-1.293-0.726-1.905-1.157 34.839 27.953 55.135 70.199 55.194 114.881 0 81.464-66.001 147.501-147.42 147.501zM762.612 898.748c47.612 0.009 86.211-38.611 86.202-86.25 0.009-47.638-38.59-86.259-86.202-86.25-47.612-0.009-86.211 38.611-86.202 86.25-0.009 47.638 38.59 86.259 86.202 86.25zM206.951 630.693c47.612 0.009 86.211-38.611 86.202-86.25 0.009-47.638-38.59-86.259-86.202-86.25-47.612-0.009-86.211 38.611-86.202 86.25-0.009 47.638 38.59 86.259 86.202 86.25zM147.416 169.751c47.612 0.009 86.211-38.611 86.202-86.25 0.009-47.638-38.59-86.259-86.202-86.25-47.612-0.009-86.211 38.611-86.202 86.25-0.009 47.638 38.59 86.259 86.202 86.25z" />
<glyph unicode="&#xe945;" glyph-name="remove-polygon" d="M753.847 960c-80.482 0-145.726-65.332-145.726-145.925 0.045-1.347 0.135-2.69 0.224-4.034l-307.523-151.8c-26.571 23.51-60.789 36.51-96.245 36.569-80.482 0-145.726-65.332-145.726-145.925 0.045-54.017 29.872-103.595 77.548-128.867l-34.505-188.064c-60.623-19.145-101.858-75.43-101.894-139.084 0-80.591 65.243-145.925 145.726-145.925 59.583 0.023 113.15 36.369 135.261 91.773l276.695 81.381v95.895l-273.586-77.697c-13.512 41.342-44.739 74.494-85.167 90.413l32.272 176.794c69.001 12.839 119.061 73.104 119.103 143.381-0.045 8.441-0.823 16.862-2.321 25.169l294.867 145.53c27.678-32.615 68.259-51.419 111.002-51.433h0.744l31.746-108.085h96.421l-35.862 141.453c-0.599-0.427-1.278-0.718-1.883-1.145 34.438 27.654 54.502 69.449 54.56 113.653 0 80.593-65.244 145.925-145.726 145.925zM753.847 899.403c47.065 0.009 85.221-38.199 85.211-85.328 0.010-47.129-38.146-85.337-85.211-85.326-47.065-0.011-85.221 38.196-85.211 85.326-0.010 47.129 38.146 85.337 85.211 85.328zM204.572 634.213c47.065 0.009 85.221-38.199 85.211-85.328 0.010-47.129-38.146-85.337-85.211-85.326-47.065-0.011-85.221 38.196-85.211 85.326-0.010 47.129 38.146 85.337 85.211 85.328zM145.721 178.197c47.065 0.009 85.221-38.199 85.211-85.328 0.010-47.129-38.146-85.337-85.211-85.326-47.065-0.011-85.221 38.196-85.211 85.326-0.010 47.129 38.146 85.337 85.211 85.328zM911.903 488.27l-31.387 31.43h-159.177l-31.387-31.43h-112.097v-65.105h446.145v65.105h-112.097zM687.71 232.34l44.839 44.9 67.258-69.595 67.258 69.595 44.839-44.9-67.258-69.595 67.258-69.595-44.839-44.9-67.258 69.595-67.258-69.595-44.839 44.9 67.258 69.595-67.258 69.595zM607 1.105c0-35.92 29.145-65.105 62.774-65.105h257.823c35.871 0 62.774 29.185 62.774 65.105v388.385h-383.371v-388.385z" />
<glyph unicode="&#xe946;" glyph-name="layer-search" d="M512 480l352 192-352 192-352-192zM0 671.114l512 288.886 512-288.886-512-287.114zM96 512l-96-64 512-288 8.063 4.531c-5.111 17.827-8.054 38.302-8.063 59.464v0.004c0.090 18.363 2.375 36.149 6.606 53.166l-0.324-1.541-6.281-3.625-416 240zM928 512l-127.5-73.563c38.919-11.969 72.079-33.015 98.242-60.735l0.102-0.109 125.156 70.406-96 64zM96 288l-96-64 512-288 141.906 79.813c-35.179 14.124-64.794 35.659-88.025 62.818l-0.256 0.307-53.625-30.937-416 240zM954.969 270.031c3.113-13.801 4.941-29.678 5.031-45.967v-0.065c-0.082-13.474-1.34-26.597-3.678-39.343l0.209 1.374 67.469 37.969-69.031 46.031zM736 400c-97.202 0-176-78.798-176-176v0c0-97.202 78.798-176 176-176v0c32.469 0.090 62.849 8.958 88.913 24.354l-0.819-0.448 135.906-135.906 64 64-135.844 135.844c14.938 25.268 23.787 55.673 23.844 88.14v0.016c0 97.202-78.798 176-176 176v0zM736 336c61.856 0 112-50.144 112-112v0c0-61.856-50.144-112-112-112v0c-61.856 0-112 50.144-112 112v0c0 61.856 50.144 112 112 112v0z" />
<glyph unicode="&#xe947;" glyph-name="star" d="M1024 557.777q0-13.53-16-29.52l-223.385-217.709 52.923-307.498q0.615-4.305 0.615-12.3 0-12.915-6.462-21.832t-18.769-8.917q-11.692 0-24.615 7.38l-276.308 145.139-276.308-145.139q-13.538-7.38-24.615-7.38-12.923 0-19.385 8.917t-6.462 21.832q0 3.69 1.231 12.3l52.923 307.498-224 217.709q-15.385 16.605-15.385 29.52 0 22.755 34.462 28.29l308.923 44.895 138.462 279.824q11.692 25.215 30.154 25.215t30.154-25.215l138.462-279.824 308.923-44.895q34.462-5.535 34.462-28.29z" />
<glyph unicode="&#xe948;" glyph-name="star-empty" d="M699.692 338.223l188.308 182.654-259.692 38.13-116.308 234.929-116.308-234.929-259.692-38.13 188.308-182.654-44.923-258.914 232.615 122.384 232-122.384zM1024 557.777q0-13.53-16-29.52l-223.385-217.709 52.923-307.498q0.615-4.305 0.615-12.3 0-30.75-25.231-30.75-11.692 0-24.615 7.38l-276.308 145.139-276.308-145.139q-13.538-7.38-24.615-7.38-12.923 0-19.385 8.917t-6.462 21.832q0 3.69 1.231 12.3l52.923 307.498-224 217.709q-15.385 16.605-15.385 29.52 0 22.755 34.462 28.29l308.923 44.895 138.462 279.824q11.692 25.215 30.154 25.215t30.154-25.215l138.462-279.824 308.923-44.895q34.462-5.535 34.462-28.29z" />
</font>
</defs>
</svg>
